/* XPM */
static char *bitcoin__[] = {
/* columns rows colors chars-per-pixel */
"32 32 162 2",
"   c #262311",
".  c #3F3923",
"X  c #4D452C",
"o  c #504829",
"O  c #544B30",
"+  c #654D2B",
"@  c #7C5F31",
"#  c #6F6442",
"$  c #66614C",
"%  c #917E2D",
"&  c #856634",
"*  c #8E733F",
"=  c #937E30",
"-  c #987E33",
";  c #9B7A3A",
":  c #A57E33",
">  c #A07E3A",
",  c #897B4F",
"<  c #95812E",
"1  c #9A852F",
"2  c #958231",
"3  c #9B8436",
"4  c #9F8B3F",
"5  c #A98734",
"6  c #A28B30",
"7  c #AD8D34",
"8  c #AE8C3F",
"9  c #B58634",
"0  c #B58E34",
"q  c #B88F3F",
"w  c #AB9231",
"e  c #B39433",
"r  c #B99736",
"t  c #B79B33",
"y  c #BA9F33",
"u  c #BA963B",
"i  c #B79C38",
"p  c #BD9E3A",
"a  c #BBA036",
"s  c #BDA23A",
"d  c #C19E39",
"f  c #C3A33B",
"g  c #CCA63B",
"h  c #D0A73D",
"j  c #93895F",
"k  c #AA8940",
"l  c #A69246",
"z  c #AB974A",
"x  c #AA984D",
"c  c #B59544",
"v  c #BA9341",
"b  c #BB9A42",
"n  c #B99F48",
"m  c #AA9458",
"M  c #B29E53",
"N  c #B39C5C",
"B  c #BEA343",
"V  c #B8A65D",
"C  c #918A75",
"Z  c #9D907E",
"A  c #A89862",
"S  c #A69F73",
"D  c #BEA579",
"F  c #C79E44",
"G  c #C0994A",
"H  c #C7A141",
"J  c #CAA343",
"K  c #C3A54D",
"L  c #CDA549",
"P  c #C4AC49",
"I  c #CEA94C",
"U  c #D3AD49",
"Y  c #CBB04F",
"T  c #C4A351",
"R  c #C5AB53",
"E  c #CCAB52",
"W  c #C6AF5E",
"Q  c #CAAA5B",
"!  c #CCB153",
"~  c #CEB15A",
"^  c #D1B65E",
"/  c #C2AE64",
"(  c #C7B261",
")  c #CCB264",
"_  c #C5B06F",
"`  c #CAB76D",
"'  c #D2B665",
"]  c #D4BB64",
"[  c #D3BB69",
"{  c #C6B87F",
"}  c #E1BD63",
"|  c #D3C06D",
" . c #DBC16C",
".. c #D7C071",
"X. c #D9C274",
"o. c #DAC779",
"O. c #DECA7E",
"+. c #E6C76C",
"@. c #E2C774",
"#. c #E2C877",
"$. c #E5CB7A",
"%. c #A29B87",
"&. c #B1B0AA",
"*. c #BEBBB2",
"=. c #DBC481",
"-. c #DFCC83",
";. c #D9C28E",
":. c #DFCD88",
">. c #DFCA95",
",. c #DBC69D",
"<. c #DDCF9F",
"1. c #DDD09F",
"2. c #E1CD82",
"3. c #E3CE89",
"4. c #EDD487",
"5. c #E1D08C",
"6. c #EFDA8F",
"7. c #E1CF93",
"8. c #E0CB9F",
"9. c #E5D295",
"0. c #EBD593",
"q. c #EDDB96",
"w. c #E3D398",
"e. c #E8D69D",
"r. c #F0DB91",
"t. c #F2E09D",
"y. c #DFD2A8",
"u. c #C4C1B5",
"i. c #C9C4B7",
"p. c #CAC7BA",
"a. c #CFCABB",
"s. c #E6D4A4",
"d. c #E8D4A4",
"f. c #EDDAA3",
"g. c #E1D1AF",
"h. c #E8D6A8",
"j. c #ECDDAE",
"k. c #F1DFA1",
"l. c #EEDDB0",
"z. c #E2D8BD",
"x. c #F1E3A5",
"c. c #F1E5AB",
"v. c #F1E0B1",
"b. c #F3EAB4",
"n. c #F3E9B9",
"m. c #DED7C7",
"M. c #EADEC6",
"N. c #EEE3C6",
"B. c #F3E6C3",
"V. c #F0E8CB",
"C. c #EDE4D3",
"Z. c #E4E1DA",
"A. c #ECE5DA",
"S. c #EEE8DB",
"D. c #F0E7D4",
"F. c #F2EAD5",
"G. c #F3ECDC",
"H. c #F8F1DE",
"J. c #F5EFE1",
"K. c #F6F1E3",
"L. c #F9F3E4",
"P. c None",
/* pixels */
"P.P.P.P.P.P.P.P.P.P.P.P.P.P.1 < < 2 P.P.P.P.P.P.P.P.P.P.P.P.P.P.",
"P.P.P.P.P.P.P.P.P.P.< % 1 6 w w w w 6 1 % % P.P.P.P.P.P.P.P.P.P.",
"P.P.P.P.P.P.P.P.% < w y y y y y y y a y y w < % P.P.P.P.P.P.P.P.",
"P.P.P.P.P.P.P.% w a H F t a y y y a y y y t 7 w % P.P.P.P.P.P.P.",
"P.P.P.P.P.< 1 t y y p E 0 y y y y y y y y b : e y 1 < P.P.P.P.P.",
"P.P.P.P.% 1 y a y y i L 9 r y y y y y t v c > 5 y a 3 % P.P.P.P.",
"P.P.P.P.< y y y y y f J U h g f f d r : 8 & & 5 y y y < P.P.P.P.",
"P.P.P.% y a a s <.<.s.l.l.d.d.d.d.s.,.D * + @ 5 y y y y % P.P.P.",
"P.P.% w y y y B G.H.H.L.G.G.G.H.G.G.G.A.C.Z ; 7 y y y y w % P.P.",
"P.P.< y y y y ] K.H.H.K.G.G.G.G.G.G.G.G.Z.Z.g.p y y y y y < P.P.",
"P.% w y a y a 4.L.S.S.G.G.G.J.G.F.G.G.H.G.G.A.,.y y y y y w < P.",
"P.% y a a i ! n.f.%.m.K.G.G.S.p.C 7.F.G.G.G.A.D.W y y y y y % P.",
"P.1 y y y y 5.b.+.} B.J.J.S.Z.$ o ~ 9.L.K.K.S.G.s.y y y y y 1 P.",
"P.6 y y y P b.b.A m V.K.K.G.J._ ~ [ 3.V.K.L.G.G.D.a y y y y 6 P.",
"2 w y a a | b.S     &.K.K.K.K.3.:.:.3.h.L.L.G.G.G.R y y a a w 2 ",
"< w y a a o.c.j     *.K.K.K.K.9.:.:.:.d.L.K.H.S.G.( y y y a w = ",
"< w y y a o.x.j X . m.J.J.J.L.w.:.:.:.e.L.L.J.G.D.) y a y y w < ",
"< w y a a | x.{ X X *.J.J.G.K.w.:.:.3.c.L.L.S.G.G.) y y y y w 1 ",
"P.6 y y a Y t.r., # u.Z.Z.Z.K.9.2.0.0.B.K.J.G.D.A.~ r y y y 6 P.",
"P.1 y y y a q.6.-.N z.S.J.J.L.w.3.0.k.K.L.G.A.A.M.F d y y y 1 P.",
"P.% y y y y ] r.f.0.F.L.L.L.L.v.f.v.K.L.G.S.A.A.;.f f y y y % P.",
"P.< w y y y  .X.L.L.L.L.L.L.L.L.L.L.J.L.K.S.A.C.E L p y y w < P.",
"P.P.< y y y +.X.K.L.L.L.L.L.L.K.K.G.K.L.K.G.A.3.[ ' r a a < P.P.",
"P.P.% w y y $.3.K.G.H.H.J.G.G.G.J.K.K.K.H.D.7.[ X.~ u a w % P.P.",
"P.P.P.% y s $.2.H.G.F.D.C.D.G.G.G.G.F.N.d.O.O.2.o.Q u y % P.P.P.",
"P.P.P.P.< I $.$.$.@.K I K [ ...... .X.| o.2.2.-.[ G u 1 P.P.P.P.",
"P.P.P.P.< z $.$.$.$.R K [ X.....X.X.o.O.O.-.2.O.T v - % P.P.P.P.",
"P.P.P.P.P.< l $.$.X.R ......X.X.o.O.2.2.2.O.-.W v ; = P.P.P.P.P.",
"P.P.P.P.P.P.P.3 W ~ ^ ......o.O.2.2.2.O.2.O.) k = P.P.P.P.P.P.P.",
"P.P.P.P.P.P.P.P.2 3 B E  .O.O.5.O.2.O.O.o./ 5 = P.P.P.P.P.P.P.P.",
"P.P.P.P.P.P.P.P.P.P.2 2 x V V ` | V V 8 2 2 P.P.P.P.P.P.P.P.P.P.",
"P.P.P.P.P.P.P.P.P.P.P.P.P.P.2 2 2 1 P.P.P.P.P.P.P.P.P.P.P.P.P.P."
};
