/* XPM */
static char *bitcoin__[] = {
/* columns rows colors chars-per-pixel */
"16 16 150 2",
"   c #252211",
".  c #4B442B",
"X  c #896C37",
"o  c #957533",
"O  c #97832D",
"+  c #97802F",
"@  c #96832E",
"#  c #9D872F",
"$  c #9E882F",
"%  c #9F8A3A",
"&  c #A48D2F",
"*  c #A58D2F",
"=  c #A48E2F",
"-  c #A88636",
";  c #A18830",
":  c #A28B30",
">  c #A28C30",
",  c #A38C30",
"<  c #B79333",
"1  c #B19732",
"2  c #B19336",
"3  c #B19832",
"4  c #B59A33",
"5  c #B69C32",
"6  c #B99D33",
"7  c #BA9E33",
"8  c #BA9F33",
"9  c #BA9B37",
"0  c #BA9E34",
"q  c #BA9F34",
"w  c #B69D3A",
"e  c #BB9D3A",
"r  c #BBA035",
"t  c #BDA037",
"y  c #BCA238",
"u  c #BDA33B",
"i  c #BCA23E",
"p  c #B48F41",
"a  c #A79346",
"s  c #AD9345",
"d  c #AC994C",
"f  c #BA9940",
"g  c #B39B49",
"h  c #A3925B",
"j  c #B19A53",
"k  c #BA9D56",
"l  c #B4A154",
"z  c #BEA05F",
"x  c #C4A343",
"c  c #C1A744",
"v  c #C9AD59",
"b  c #CEAD59",
"n  c #C8B254",
"m  c #C8B255",
"M  c #CCB15A",
"N  c #C6AC62",
"B  c #CFB264",
"V  c #CBB769",
"C  c #D3B868",
"Z  c #D4BA6F",
"A  c #D4BC6C",
"S  c #D8BC6F",
"D  c #D6BF70",
"F  c #D7BD76",
"G  c #D1BF7A",
"H  c #D7C377",
"J  c #D8C173",
"K  c #D9C273",
"L  c #D9C374",
"P  c #DAC376",
"I  c #DEC176",
"U  c #DFC775",
"Y  c #DBC578",
"T  c #DDC97C",
"R  c #DECA7D",
"E  c #DFCB7F",
"W  c #E2C879",
"Q  c #E4CA79",
"!  c #E5CC7C",
"~  c #C7BE8C",
"^  c #C0B89D",
"/  c #CFC28A",
"(  c #DFCC87",
")  c #DDC68E",
"_  c #DFCD88",
"`  c #DBC791",
"'  c #DDCB97",
"]  c #DCCD9A",
"[  c #DECE9F",
"{  c #E0CD81",
"}  c #E0CD87",
"|  c #E8D18D",
" . c #E1CF99",
".. c #E3D397",
"X. c #E7D497",
"o. c #EFDC96",
"O. c #D5CBB0",
"+. c #DDD4BB",
"@. c #E4D4A0",
"#. c #E5D6A5",
"$. c #E6D7A6",
"%. c #EDDCA9",
"&. c #EADEB2",
"*. c #EEE4AB",
"=. c #ECE1BA",
"-. c #EEE2BC",
";. c #EDE3BE",
":. c #F1E2B6",
">. c #D5CDC1",
",. c #D6D3C9",
"<. c #DEDBCE",
"1. c #E0DACB",
"2. c #E9DECA",
"3. c #F4E7C0",
"4. c #F4E9C8",
"5. c #E8E3D5",
"6. c #EDE4D7",
"7. c #EDE7D8",
"8. c #EAE7DD",
"9. c #F5EBD3",
"0. c #F0E8D9",
"q. c #F1E9DA",
"w. c #F3EADB",
"e. c #F2EBDB",
"r. c #F3EBDB",
"t. c #F6EFD8",
"y. c #F4ECDB",
"u. c #F4EDDB",
"i. c #F2EBDC",
"p. c #F3EBDC",
"a. c #F3ECDC",
"s. c #F3ECDD",
"d. c #F3EDDF",
"f. c #F5EDDD",
"g. c #F4EDDE",
"h. c #F7F0DE",
"j. c #F8F0DF",
"k. c #F4EEE0",
"l. c #F6EFE0",
"z. c #F6F0E0",
"x. c #F6F0E1",
"c. c #F7F1E2",
"v. c #F7F2E2",
"b. c #F7F2E3",
"n. c #F9F1E1",
"m. c #F8F2E2",
"M. c #F8F3E4",
"N. c #F9F3E4",
"B. c #F9F4E5",
"V. c None",
/* pixels */
"V.V.V.V.V.V.# : : $ V.V.V.V.V.V.",
"V.V.V.V.& e 8 8 8 8 4 ; V.V.V.V.",
"V.V.O 1 8 x < 8 8 8 f - 3 O V.V.",
"V.V.1 r V F I S Z z X o q 3 V.V.",
"V.& 8 c j.n.r.g.r.r.>.k 8 8 & V.",
"V.5 8 L +.7.p.5.O.u.a.2.i 8 5 V.",
"# 8 y *.N 9.g.^ j &.c.p.G 8 r # ",
"> q m ~   ,.c.=.( ..M.p.] 8 8 & ",
"& 8 n / . <.a.;.( X.B.a.[ r 5 > ",
"# r y o.h <.8.=.| :.c.0.) 6 r $ ",
"V.5 r U ;.j.n.h.4.c.a.6.b e 5 V.",
"V.& r Q j.N.c.c.k.c.a. .C q & V.",
"V.V.w ! %.` ' @.$.@.} { B 2 V.V.",
"V.V.% A Q v J J Y W { H p + V.V.",
"V.V.V.V.g M K T { ( H s V.V.V.V.",
"V.V.V.V.V.V.d l l a V.V.V.V.V.V."
};
