/* XPM */
static char *dogecoin32[] = {
/* columns rows colors chars-per-pixel */
"32 32 161 2 ",
"   c #1D1A09",
".  c #221F0C",
"X  c #242111",
"o  c #463E25",
"O  c #4F4627",
"+  c #4B442B",
"@  c #574023",
"#  c #645938",
"$  c #795B30",
"%  c #6F6A52",
"&  c #8E7C2E",
"*  c #927F2E",
"=  c #8B6A36",
"-  c #8E7D32",
";  c #947D31",
":  c #977434",
">  c #A57D33",
",  c #A17E3A",
"<  c #8C7E51",
"1  c #95812F",
"2  c #9B862F",
"3  c #9F892F",
"4  c #968230",
"5  c #9E8436",
"6  c #9E8830",
"7  c #988539",
"8  c #9C893C",
"9  c #B69A2B",
"0  c #B89C2F",
"q  c #A78534",
"w  c #A88634",
"e  c #AC8B34",
"r  c #A7863F",
"t  c #B68734",
"y  c #B48D3D",
"u  c #B58E34",
"i  c #A79030",
"p  c #AC9331",
"a  c #B29633",
"s  c #B89637",
"d  c #B49A33",
"f  c #BA9F33",
"g  c #BA943B",
"h  c #BD9D39",
"j  c #BBA033",
"k  c #BDA23A",
"l  c #C19F3B",
"z  c #C3A53D",
"x  c #CFA73D",
"c  c #D2A83E",
"v  c #9C814B",
"b  c #A28E44",
"n  c #BA8F40",
"m  c #BE9647",
"M  c #BD9B44",
"N  c #B09B4E",
"B  c #B49845",
"V  c #AA9950",
"C  c #B59D59",
"Z  c #BFA443",
"A  c #BFA748",
"S  c #BBA65B",
"D  c #918962",
"F  c #9A8D61",
"G  c #A49C73",
"H  c #B7A467",
"J  c #BBA178",
"K  c #C0A745",
"L  c #C9A242",
"P  c #CCA847",
"I  c #C4A64F",
"U  c #C2A84E",
"Y  c #CBAA4E",
"T  c #CCA54A",
"R  c #D3AC4C",
"E  c #C6A553",
"W  c #C5AA54",
"Q  c #CCAD5C",
"!  c #D2AD55",
"~  c #CCB153",
"^  c #CCB659",
"/  c #D4B456",
"(  c #D8B65C",
")  c #C2AF65",
"_  c #CCB365",
"`  c #C7B16C",
"'  c #D3B762",
"]  c #D2BC6D",
"[  c #D8BF6F",
"{  c #D4B963",
"}  c #C1B179",
"|  c #D7BF71",
" . c #D7C067",
".. c #D6C274",
"X. c #D9C274",
"o. c #DFC877",
"O. c #DBC47A",
"+. c #DDC97C",
"@. c #E7C86C",
"#. c #E0C675",
"$. c #E4C977",
"%. c #E5CB7B",
"&. c #9E9482",
"*. c #B4AB92",
"=. c #DECC84",
"-. c #DFCD88",
";. c #DBCE9B",
":. c #DBC597",
">. c #E1CD82",
",. c #E0CD8B",
"<. c #E6D089",
"1. c #EBD38C",
"2. c #E0CE90",
"3. c #E3CF9E",
"4. c #E4D293",
"5. c #ECD591",
"6. c #EAD996",
"7. c #E6D29D",
"8. c #ECD79A",
"9. c #F1DC93",
"0. c #F2E19D",
"q. c #C5C2B3",
"w. c #E0CFAB",
"e. c #E6D2A3",
"r. c #E9D4A3",
"t. c #EEDCA5",
"y. c #E0D3A9",
"u. c #E7D9A9",
"i. c #EEDDAE",
"p. c #F0DEAB",
"a. c #EEDFB0",
"s. c #E8DABC",
"d. c #F1E1A3",
"f. c #F4E3AC",
"g. c #F3E9AD",
"h. c #ECE4B4",
"j. c #F5ECB4",
"k. c #F4E6B8",
"l. c #CECDC8",
"z. c #D9D6CE",
"x. c #D3D1CC",
"c. c #DCDBD1",
"v. c #E9DEC4",
"b. c #E3DFD4",
"n. c #EDE2C6",
"m. c #EDE5CB",
"M. c #F2E9CE",
"N. c #ECE4D3",
"B. c #E5E2DB",
"V. c #ECE5DA",
"C. c #EBE8DF",
"Z. c #F5ECD3",
"A. c #F0E7D9",
"S. c #F3ECDC",
"D. c #F9F0DE",
"F. c #EDEBE1",
"G. c #F4EEE2",
"H. c #F6F1E3",
"J. c #F9F3E4",
"K. c #F9F5E9",
"L. c None",
/* pixels */
"L.L.L.L.L.L.L.L.L.L.L.L.L.L.L.1 1 L.L.L.L.L.L.L.L.L.L.L.L.L.L.L.",
"L.L.L.L.L.L.L.L.L.L.* * 6 p p a a p p 3 & * L.L.L.L.L.L.L.L.L.L.",
"L.L.L.L.L.L.L.L.4 * p f f f f j f f j j j p * 1 L.L.L.L.L.L.L.L.",
"L.L.L.L.L.L.L.1 p f z T d f f f f f f f j s e p 1 L.L.L.L.L.L.L.",
"L.L.L.L.L.1 * f f f s ! u f f f f f f f f Z > a f * 4 L.L.L.L.L.",
"L.L.L.L.1 3 j j f f a ! t f 0 f f f j d m n > e j j 6 4 L.L.L.L.",
"L.L.L.L.* j f f f f Z L R c x z l l s > b = = > j j f 1 L.L.L.L.",
"L.L.L.1 f f f K ;.3.e.i.i.8.e.7.r.e.:.J < @ = > j f f f * L.L.L.",
"L.L.4 p d j j A S.D.D.J.J.A.S.D.S.S.S.V.b.&.: a j f f f a 1 L.L.",
"L.L.1 f j j j ] H.J.H.D.S.V.D.S.S.S.S.S.b.F.w.h f f f f f 1 L.L.",
"L.* p f j j d 6.H.C.F.D.A.S.J.G.S.S.S.S.G.A.B.e.9 f j f f p 1 L.",
"L.& j f j j Y k.f.*.N.D.S.S.G.q.&.7.Z.D.G.S.V.S.) j f f f j & L.",
"L.6 j f f 9 6.g.@.( Z.J.S.A.F.% @ / 7.J.J.J.S.S.y.j f f f j 2 L.",
"L.p f j f ~ j.h.H C V.J.H.H.G.` ( X.=.Z.H.J.S.S.m.k f f f f p L.",
"L.p j f f ..j.G X   l.J.J.D.K.-.=.-.=.u.K.H.D.S.A.Z f f f f a L.",
"1 p j j k O.g.D X . x.J.H.H.K.4.=.-.=.4.K.H.G.V.J.A f j f j d & ",
"4 p f j j +.d.F + o b.H.G.G.K.4.-.=.,.1.K.J.G.S.G.I f j f f d & ",
"L.p f j j X.g.} + o c.G.S.S.K.4.=.,.>.i.K.J.S.S.S.I f f f f a L.",
"L.p f f j ^ 0.6.< # z.B.b.B.K.4.<.1.1.M.J.G.A.A.M.! d f j j p L.",
"L.6 j j f j 0.6.>.C N.S.G.G.K.4.<.5.t.J.J.S.A.A.s.Y h j f j 2 L.",
"L.& j f f 0  .9.d.8.D.J.J.J.J.p.t.k.D.J.G.V.V.V.:.L z f f j & L.",
"L.; p j f 0 #.$.J.K.J.J.K.J.J.K.K.J.H.J.H.A.B.S.Y P h f f i 1 L.",
"L.L.1 f f 0 $.>.S.J.K.J.J.K.J.J.G.S.J.J.J.A.A.O.{ ' s f j 1 L.L.",
"L.L.1 p f z %.1.D.S.S.D.S.S.S.C.S.J.H.H.S.S.2.O.| _ g j a * L.L.",
"L.L.L.1 f z %.<.Z.M.n.n.v.n.M.M.M.M.M.n.u.+.+.>.O.E g d 4 L.L.L.",
"L.L.L.L.* ~ %.%.%.#.Q Q W | X.X...O.X.X.O.>.>.>.X.m g 4 L.L.L.L.",
"L.L.L.L.1 N %.%.%.$.I W ] X.| X...O.+.+.>.>.>.+.E n q 4 L.L.L.L.",
"L.L.L.L.L.1 b %.$.o.I ..X.X.X.X.+.+.+.=.=.%.>.E n ; ; L.L.L.L.L.",
"L.L.L.L.L.L.L.7 _ ~ { ....O.X.+.=.>.>.>.>.>._ y ; L.L.L.L.L.L.L.",
"L.L.L.L.L.L.L.L.1 5 B / o.+.+.=.+.>.+.+.O.S 8 1 L.L.L.L.L.L.L.L.",
"L.L.L.L.L.L.L.L.L.L.1 - V ) ] ..X...S b - * L.L.L.L.L.L.L.L.L.L.",
"L.L.L.L.L.L.L.L.L.L.L.L.L.L.L.& & L.L.L.L.L.L.L.L.L.L.L.L.L.L.L."
};
