/* XPM */
static char *dogecoin64[] = {
/* columns rows colors chars-per-pixel */
"64 64 210 2 ",
"   c #1B1809",
".  c #211E0F",
"X  c #252211",
"o  c #2D2917",
"O  c #322D1A",
"+  c #3B3621",
"@  c #53391D",
"#  c #423C24",
"$  c #473F24",
"%  c #513C25",
"&  c #4E472D",
"*  c #58452A",
"=  c #5C5336",
"-  c #574F34",
";  c #665B3C",
":  c #71552E",
">  c #7F6032",
",  c #6C6241",
"<  c #756943",
"1  c #7D744F",
"2  c #7A7867",
"3  c #806F2B",
"4  c #85742C",
"5  c #88762D",
"6  c #8D7B2D",
"7  c #917E2E",
"8  c #886935",
"9  c #8E7C33",
"0  c #927B32",
"q  c #9E7935",
"w  c #947339",
"e  c #9C7B3A",
"r  c #9E7732",
"t  c #946A28",
"y  c #A17B34",
"u  c #A3782F",
"i  c #83754D",
"p  c #8C7C63",
"a  c #95812E",
"s  c #9B852F",
"d  c #9E882F",
"f  c #968230",
"g  c #998530",
"h  c #9F8930",
"j  c #93813A",
"k  c #9B873B",
"l  c #B89C2E",
"z  c #B79A2F",
"x  c #A58235",
"c  c #AD8432",
"v  c #A48D30",
"b  c #AD8A39",
"n  c #B48534",
"m  c #B98D35",
"M  c #B48E3E",
"N  c #B98F3E",
"B  c #B58C34",
"V  c #AC9331",
"C  c #AD9438",
"Z  c #B19433",
"A  c #B59B33",
"S  c #BA9F33",
"D  c #BC923C",
"F  c #B7993D",
"G  c #BCA033",
"H  c #BCA13A",
"J  c #C49A39",
"K  c #C19638",
"L  c #C2A53C",
"P  c #CDA53B",
"I  c #D1A73C",
"U  c #D4A93D",
"Y  c #9C8942",
"T  c #94804C",
"R  c #9A8256",
"E  c #A78A44",
"W  c #BA8F41",
"Q  c #A3914B",
"!  c #AE9643",
"~  c #B39243",
"^  c #BB9141",
"/  c #BD9C44",
"(  c #BA994A",
")  c #AC9A53",
"_  c #A59353",
"`  c #B79C58",
"'  c #BCA14A",
"]  c #BEA75B",
"[  c #888579",
"{  c #AB9F6F",
"}  c #BFAF79",
"|  c #C29C4D",
" . c #C59F40",
".. c #C2A443",
"X. c #CBA644",
"o. c #C2A946",
"O. c #CCA847",
"+. c #C2A44C",
"@. c #CAA74D",
"#. c #C4AA4C",
"$. c #CDAB4D",
"%. c #C4A451",
"&. c #CDAE52",
"*. c #C8AD58",
"=. c #D1AF53",
"-. c #CEB153",
";. c #CDB25B",
":. c #D2B255",
">. c #D9B453",
",. c #D4B55C",
"<. c #DDBB5D",
"1. c #CEAC4D",
"2. c #CDB364",
"3. c #CDB96D",
"4. c #CAB66A",
"5. c #D5BA65",
"6. c #DBBC64",
"7. c #D6BD6C",
"8. c #D0B464",
"9. c #D6BE71",
"0. c #DCBE74",
"q. c #D4BA76",
"w. c #C9B269",
"e. c #E6BD62",
"r. c #DBC16C",
"t. c #D7C272",
"y. c #D9C173",
"u. c #DCC47A",
"i. c #DECA7D",
"p. c #D1C07F",
"a. c #E3C56C",
"s. c #E7C46A",
"d. c #E4C672",
"f. c #E3C975",
"g. c #EBCC73",
"h. c #E5CB7A",
"j. c #939186",
"k. c #AAA594",
"l. c #ADA897",
"z. c #B4AD99",
"x. c #BEB085",
"c. c #B8B7B5",
"v. c #C7BA83",
"b. c #C4B89A",
"n. c #C2B6A3",
"m. c #DFCC85",
"M. c #DFCD88",
"N. c #D9C68B",
"B. c #DDCB9B",
"V. c #D9C896",
"C. c #CEC59F",
"Z. c #E0CD82",
"A. c #E4CE89",
"S. c #ECD283",
"D. c #E7D188",
"F. c #EAD48B",
"G. c #EFD98D",
"H. c #E0CD93",
"J. c #ECD592",
"K. c #EEDD9C",
"L. c #E7D797",
"P. c #F1DD95",
"I. c #F1DE99",
"U. c #F3E19E",
"Y. c #D8CAA9",
"T. c #D6CDB3",
"R. c #EADAA7",
"E. c #EADBAA",
"W. c #E5D6A8",
"Q. c #F2DBA9",
"!. c #ECDEB4",
"~. c #E7D9BA",
"^. c #EDE1A6",
"/. c #F3E6AB",
"(. c #F3E8AD",
"). c #F5E4A2",
"_. c #EEE1B8",
"`. c #F4E4B2",
"'. c #F4EBB3",
"]. c #F3E4B9",
"[. c #F5EDBB",
"{. c #DBDAD7",
"}. c #DEDDD9",
"|. c #D5D3CB",
" X c #E6DDC5",
".X c #E0DED9",
"XX c #E6DED7",
"oX c #EEE3C5",
"OX c #EFE7CE",
"+X c #F5EDC3",
"@X c #F3EACC",
"#X c #F2E7C7",
"$X c #E4E2DB",
"%X c #ECE5DA",
"&X c #EEE9DC",
"*X c #EBE5D6",
"=X c #F2EAD5",
"-X c #F0E7D9",
";X c #F3ECDC",
":X c #F5EBD6",
">X c #F6F0DE",
",X c #F9F1DE",
"<X c #F5F2D0",
"1X c #EDEBE3",
"2X c #F4EEE1",
"3X c #F6F1E3",
"4X c #F9F3E4",
"5X c #F9F5E9",
"6X c #FCF8EB",
"7X c None",
/* pixels */
"7X7X7X7X7X7X7X7X7X7X7X7X7X7X7X7X7X7X7X7X7X7X7X7X7X7X7X7X7X7X7X7X7X7X7X7X7X7X7X7X7X7X7X7X7X7X7X7X7X7X7X7X7X7X7X7X7X7X7X7X7X7X7X7X",
"7X7X7X7X7X7X7X7X7X7X7X7X7X7X7X7X7X7X7X7X7X7X7X7X7Xh h g a a 6 6 6 a a a h g g 7X7X7X7X7X7X7X7X7X7X7X7X7X7X7X7X7X7X7X7X7X7X7X7X7X",
"7X7X7X7X7X7X7X7X7X7X7X7X7X7X7X7X7X7X7X7X7X7Xg f f 6 4 4 6 a s s h s a 6 4 5 6 a f g 7X7X7X7X7X7X7X7X7X7X7X7X7X7X7X7X7X7X7X7X7X7X",
"7X7X7X7X7X7X7X7X7X7X7X7X7X7X7X7X7X7X7Xs f 5 5 s v V A G G G G G G G G G G G V v s 5 5 f g 7X7X7X7X7X7X7X7X7X7X7X7X7X7X7X7X7X7X7X",
"7X7X7X7X7X7X7X7X7X7X7X7X7X7X7X7X7Xf f 6 5 V L G G G G G A G G G G G G G G A G G G G V 5 6 g s 7X7X7X7X7X7X7X7X7X7X7X7X7X7X7X7X7X",
"7X7X7X7X7X7X7X7X7X7X7X7X7X7X7Xg a 4 a V l G K J G G G A G G G A G A G A G G A G S S S G V a 4 a g 7X7X7X7X7X7X7X7X7X7X7X7X7X7X7X",
"7X7X7X7X7X7X7X7X7X7X7X7X7X7Xg 7 5 l G G l O.O.n G A G G A G A G A G G G G G G G S S S S S S A 4 7 g 7X7X7X7X7X7X7X7X7X7X7X7X7X7X",
"7X7X7X7X7X7X7X7X7X7X7X7X7Xf 5 d A G G G G #.6.m B G G G G G G G G G G G A G A G S S S x y x S G h 5 a 7X7X7X7X7X7X7X7X7X7X7X7X7X",
"7X7X7X7X7X7X7X7X7X7X7Xg f 4 A S S S S S S ' 6.K n A S S S S S S A l G G S S S S S A  .~ y y b G G A 4 a g 7X7X7X7X7X7X7X7X7X7X7X",
"7X7X7X7X7X7X7X7X7X7Xg 7 6 S S S G S S S G F 6.K n Z G S S S S S G G A G S S S S S  ./ / B y x G S S S 6 7 g 7X7X7X7X7X7X7X7X7X7X",
"7X7X7X7X7X7X7X7X7Xg 6 7 S S S S S S S S G C <.N n n S S S S S S G G G G S S S S D +.(  .N u y S S S S S a 7 g 7X7X7X7X7X7X7X7X7X",
"7X7X7X7X7X7X7X7Xg 7 7 G S S S S S S S S G C >.J n m m S S S S S G A G G S S S n / ( ~ E i w y A S S G S S 7 6 7X7X7X7X7X7X7X7X7X",
"7X7X7X7X7X7X7X7Xf 6 S S S S S S S S S G z  .X.K J I I I P J J l V V Z V V V n u ~ ~ w w w w q Z G S S S G S 7 a 7X7X7X7X7X7X7X7X",
"7X7X7X7X7X7X7Xf 4 A S S S S S S S A l S D =.J >.<.>.I I I U U U U U U O.U m n y ~ w 8 : : 8 q V G S S S S S A 5 f 7X7X7X7X7X7X7X",
"7X7X7X7X7X7Xg 5 A G S G S S S H 4.3.3.7.q.q.A.A.A.A.d.0.0.0.0.0.i.h.0.q.q.` t u e % * % * w u B G S S S S S G A 4 g 7X7X7X7X7X7X",
"7X7X7X7X7Xg 7 d S S S S S S S o.2X&X;X2X3X3X4X4X4X3X2X;X2X2X2X2X2X;X2X2X;X-X1Xn.R E 8 % : w y A S S S S S S S G v 6 g 7X7X7X7X7X",
"7X7X7X7X7Xf 5 S A G G G G G G ' &X>X,X,X>X,X4X4X,X,X:X-X-X;X:X;X;X;X:X=X;X-X%X%X%X Xp @ 8 q y S S S G S A G G G S 5 a 7X7X7X7X7X",
"7X7X7X7Xg 4 A S G G G A G A G ' 3X3X,X,X,X4X4X,X3X,X:X;X;X;X>X>X;X;X;X,X;X;X%X%X%X.X.Xn.E E x S S S S S G S G A G V 4 s 7X7X7X7X",
"7X7X7X7Xs a G S l G A G G A V h.,X,X,X,X4X>X4X,X3X:X;X-X>X>X>X>X,X;X;X;X;X;X:X;X%X{..X;X X| m S S S S S S S S S G G a a 7X7X7X7X",
"7X7X7Xg 5 V S S G G G G G A ,.S.4X,X,X4X,X>X4X4X;X-X%X;X2X>X;X3X,X;X;X;X;X;X,X;X-X%XXX%X%X=X$.D S S S S S S S S G G A 5 g 7X7X7X",
"7X7X7Xg 5 S S S A G G G G H g.h.3X,X&X$X$X3X>X;X;X;X&X;X3X>X;X;X:X;X;X;X;X,X;X;X;X;X-X&X-X%X~.J A G S S S S G S S S S 5 g 7X7X7X",
"7X7X7X5 V G S S G G G A G #.g.^.6X2X2X1X1X&X;X;X;X-X;X;X>X;X3X=X;X:X;X;X;X;X,X;X;X,X;X-XXXXX&XW.z G S G S S G G S S G v 6 7X7X7X",
"7X7Xa 5 G S S S G G G G V r.P.<X,X@X Xc.|.,X3X,X;X;X>X;X;X;X{.*XT. XoX:X;X;X,X;X;X;X;X;X%XXX-X-X*.G S S S S S A S S S S 4 g 7X7X",
"7X7Xa s G S S S G G G G V h.<X[.g.d.i - z.,X,X,X3X;X;X&X%X$XOX2 o $ @.,.@X3X;X;X,X,X;X;X-X*X%X=XT.G S S S S S G S S S G a a 7X7X",
"7X7Xa v S S S S S G S A ' (.+X(.g.s.6.,.Q.,X4X3X,X;X:X%X{.5X[   O + ( :.5.=X2X3X3X>X>X>X&X;X-X;X>X' G G S S G S S S S G V 6 7X7X",
"7Xg 6 V S S S S S S S G D.+X'.'.g.s.s.e.Q.3X4X,X3X,X;X-X}.3XC.O + _ :.,.Z.L.4X4X5X3X4X3X;X;X-X;X&XB.l A S S S S S G S S A 6 g 7X",
"7Xh 5 A S S S S G G S #.'.'.[.[.P.d.d.d.!.3X3X3X4X;X;X;X;X1Xx._ ] ,.=.0.M.M.@X5X5X3X3X4X>X;X=X-X&X=XG G S S S S S S S S S 6 g 7X",
"7Xh 4 G G S S S l G G t.'.'.[.W., # $ < Y.3X3X5X,X4X3X2X2X2XM.:.=.5.m.M.M.M.H.5X4X3X5X4X3X-X;X;X;X*X#.S S S S S S S S S S 7 g 7X",
"7Xf 6 G S S H H H H G L.'.'.(.1 . X X . [ %X3X5X4X,X4X,X;X3XN.5.i.M.M.M.M.M.m.>X3X4X3X3X3X=X-X;X;X=X4.G S S S S S S S S S 7 s 7X",
"7Xa a G S S S S G G l '.'.(.^.& X X X X j.{.1X3X3X3X3X3X3X5XE.M.M.M.M.M.M.M.m.oX5X3X5X4X4X&X;X;X;X;XN.G S S S S S S S S S a g 7X",
"7X7 g G S S S S G A H '.(.(.^.O X X X X [ {.2X3X3X2X4X4X5X5XW.A.M.M.M.M.M.m.M._.5X4X3X4X4X;X*X;X&X&XN.A S S S S S S S S S s f 7X",
"7X6 h G S G G G H H ' '.^.^.v.= X X X o k.1X3X1X2X4X2X3X4X5XW.Z.M.M.M.M.M.M.m._.3X4X4X4X4X>X=X>X:X&XV.l S S S S S S S S S d a 7X",
"7X5 d G G G G G G G ' ^.(.U.{ ; & o O + z.3X3X1X3X3X2X;X3X5XW.m.M.M.M.M.M.A.A.E.4X4X4X3X5X-X-X;X;X;XV.G S S S G S S S S S s a 7X",
"7Xa d G G A G G H H H [.(.R.3.; ; - = + k.3X1X5X3X;X;X2X5X5XE.A.M.M.M.M.Z.Z.Z._.5X5X4X4X3X-X-X;X;X-XB.S S S S S S S G S S s f 7X",
"7Xa a G A G A G G H l (.'.K.U.1 & & = , k.1X1X3X1X;X;X2X3X5XW.Z.M.M.M.Z.Z.Z.J.#X5X5X4X3X;X;X;X;X-X-XH.A S S S S S S S S G a s 7X",
"7Xf 5 G G G G G G G l P.'.K.^.q.- & # # j.1X3X3X3X;X&X%X3X5XR.Z.M.Z.Z.A.A.J.G.:X5X3X4X4X-X-X;X-X-X-XA.F S S S S S S S S S 7 g 7X",
"7Xg 4 G G G G G G G G i.U.I.U.D.< , , , l.$X}.$X}.{.{.$X;X5XR.A.Z.A.F.J.J.J.J.6X4X3X4X2X-X-X:X-X-X;X0.O.A G S S S S S S S 7 a 7X",
"7Xh 4 G A G G A G G G ;.U.U.U.U.3.< , < z.$X$X$X$X$X$X%X3X4XW.Z.Z.F.J.J.J.J._.5X4X4X4X&X;X;X;X-X-X-X,.O.A S S S S S S S A 7 g 7X",
"7Xh 6 V G G G A G A G H I.U.U.G.D.9.T T b.;X&X&X&X1X&X2X3X5XW.Z.A.J.J.J.J.K.2X4X4X4X;X-X-X-X-X-X-X=XX.O.F G G S S S G S A 6 g 7X",
"7X7Xa v A G G G G G G G i.U.G.F.G.h.y.4.W.3X;X;X3X3X4X3X3X6XR.Z.Z.A.J.J.J.@X4X4X4X4X-X-X-X-X;X*X;XY.J X...G S S S G G G V 6 7X7X",
"7X7Xf s G G G S S S S G H U.P.G.S.G.h.d.!.3X3X3X,X4X4X4X4X4XR.D.A.A.J.J.:X5X4X4X3X;X-X;X-X-X*X-X2X@.J O.o.A G A S S S G a a 7X7X",
"7X7Xg 5 G G S S S S G A H S.P.G.`.`./.^.#X2X3X3X4X4X4X4X5X4X@X'.].].#X3X5X4X3X4X3X-X-X&X;XXXXX-X~.K  .O.X.G G G S S S G > d 7X7X",
"7X7X7X5 v G S S S S G S -.f.u.F.6X4X6X6X4X4X3X4X4X4X4X4X5X4X6X6X5X6X4X4X3X3X3X4X3X>X=X%XXX%X%X-Xq. .O.O.X.G G G S S G v 6 7X7X7X",
"7X7X7Xf 5 G S S S S S G r.h.,.6.4X4X4X4X4X4X4X5X4X6X4X4X4X4X4X4X4X4X4X3X;X3X5X4X5X>X-X%X%X%X-X XX.O.1.O.F S A G S S S 5 h 7X7X7X",
"7X7X7Xh 5 V G G S S S G 6.h.6.7.>X,X4X5X5X4X5X4X4X4X6X4X4X4X5X4X5X4X;X;X2X4X4X3X3X3X;X-X%X%XOX&.$.7.y.&.D G A G G G A 6 g 7X7X7X",
"7X7X7X7Xa a G G S S S A r.h.h.0.>X;X4X5X4X4X4X4X4X5X4X4X4X4X4X3X:X;X;X3X4X4X4X3X5X3X;X%X%X=Xy.5.y.y.u.%.^ G G G G G a a 7X7X7X7X",
"7X7X7X7Xa 5 A G S S G L h.h.h.D.3X;X;X;X;X4X4X4X4X3X3X;X,X;X&X;X;X2X2X3X2X3X4X4X4X;X-X;XOXN.y.y.y.0.y.( ^ A G A G V 4 f 7X7X7X7X",
"7X7X7X7X7Xa 4 G S G S H f.h.h.F.4X4X>X;X;X;X;X;X&X&X&X;X-X;X&X;X2X2X3X3X2X4X2X4X>X;X3XoXy.y.h.u.y.y.0.W D A G G G 4 h 7X7X7X7X7X",
"7X7X7X7X7X7X7 h G G G H h.h.h.D.4X4X4X>X>X>X;X;X;X&X-X;X;X3X3X3X3X>X3X3X3X>X4X4X3X_.D.y.i.Z.i.m.i.t.7.D W F S S v 7 g 7X7X7X7X7X",
"7X7X7X7X7X7Xf 5 A S G o.h.h.f.D.:X,X,X,X:X:X;X=X-X-X=X;X;X>X;X>X;X>X;X>X>XOX_.H.t.t.i.Z.i.Z.Z.Z.u.y.7.^ W S S A 4 g 7X7X7X7X7X7X",
"7X7X7X7X7X7X7Xa 4 A G :.h.h.h.h.f.d.f.a.' #.1.$.' / #.7.7.7.7.7.r.7.5.7.r.t.t.t.t.t.i.Z.Z.Z.Z.Z.u.0.2.W W S A 5 f 7X7X7X7X7X7X7X",
"7X7X7X7X7X7X7X7Xf 6 S h.h.h.h.h.h.h.h.f.+.+.+.+...2.9.t.t.y.y.y.t.t.t.t.t.t.t.t.u.Z.Z.Z.Z.Z.Z.Z.y.y.^ W W S 7 a 7X7X7X7X7X7X7X7X",
"7X7X7X7X7X7X7X7Xg 6 k h.h.h.h.h.h.h.h.h.%.+.+.+.+.y.y.y.y.t.y.9.t.t.y.t.t.t.t.i.Z.Z.Z.Z.i.Z.Z.i.t.( N W W 0 6 g 7X7X7X7X7X7X7X7X",
"7X7X7X7X7X7X7X7X7Xg f Y h.h.h.h.h.h.h.h.;.+.+.*.y.y.y.9.9.y.y.y.y.y.y.9.i.Z.i.Z.Z.Z.Z.Z.Z.Z.Z.y.| ^ W W 0 7 g 7X7X7X7X7X7X7X7X7X",
"7X7X7X7X7X7X7X7X7X7Xs 6 Q u.h.h.h.h.h.h.;.+.7.t.y.y.y.y.y.y.y.y.y.t.u.m.Z.i.Z.Z.Z.Z.i.Z.m.Z.m.;.m W M 0 6 g 7X7X7X7X7X7X7X7X7X7X",
"7X7X7X7X7X7X7X7X7X7X7X7Xa f y.h.h.h.f.9.( ;.y.t.y.y.r.t.y.y.t.y.Z.Z.Z.i.Z.Z.Z.Z.i.Z.Z.Z.m.h.( W ^ W 4 f g 7X7X7X7X7X7X7X7X7X7X7X",
"7X7X7X7X7X7X7X7X7X7X7X7X7Xf 4 ] h.u.5.-.;.t.t.t.y.t.t.t.t.t.t.i.Z.Z.Z.Z.Z.Z.Z.Z.i.Z.Z.Z.Z.+.W W x 4 f 7X7X7X7X7X7X7X7X7X7X7X7X7X",
"7X7X7X7X7X7X7X7X7X7X7X7X7X7Xg 6 j ' :.-.-.;.7.5.r.y.y.t.t.i.Z.Z.i.Z.Z.Z.Z.i.Z.Z.Z.Z.Z.i.2.5.( 5 6 g 7X7X7X7X7X7X7X7X7X7X7X7X7X7X",
"7X7X7X7X7X7X7X7X7X7X7X7X7X7X7Xg f 5 k #.-.-.-.-.-.t.t.i.u.i.Z.Z.Z.Z.Z.i.Z.i.Z.i.Z.Z.i.t.2.Y 4 g f 7X7X7X7X7X7X7X7X7X7X7X7X7X7X7X",
"7X7X7X7X7X7X7X7X7X7X7X7X7X7X7X7X7Xg a a f ! &.:.r.i.i.Z.Z.Z.Z.Z.Z.Z.Z.Z.Z.i.t.t.y.t.) j 6 7 g 7X7X7X7X7X7X7X7X7X7X7X7X7X7X7X7X7X",
"7X7X7X7X7X7X7X7X7X7X7X7X7X7X7X7X7X7X7Xg f a > Q 4.u.i.m.Z.Z.Z.i.Z.Z.i.m.i.4.4.] Y > a s g 7X7X7X7X7X7X7X7X7X7X7X7X7X7X7X7X7X7X7X",
"7X7X7X7X7X7X7X7X7X7X7X7X7X7X7X7X7X7X7X7X7X7Xd a 6 9 j k Y Q ) ) ) ) Q Y k f 5 a f g 7X7X7X7X7X7X7X7X7X7X7X7X7X7X7X7X7X7X7X7X7X7X",
"7X7X7X7X7X7X7X7X7X7X7X7X7X7X7X7X7X7X7X7X7X7X7X7X7Xg f g h f f f f f h f f h f 7X7X7X7X7X7X7X7X7X7X7X7X7X7X7X7X7X7X7X7X7X7X7X7X7X",
"7X7X7X7X7X7X7X7X7X7X7X7X7X7X7X7X7X7X7X7X7X7X7X7X7X7X7X7X7X7X7X7X7X7X7X7X7X7X7X7X7X7X7X7X7X7X7X7X7X7X7X7X7X7X7X7X7X7X7X7X7X7X7X7X"
};
