/* XPM */
static char *bitcoin__[] = {
/* columns rows colors chars-per-pixel */
"64 64 256 2",
"   c #040300",
".  c #090902",
"X  c #1D1A0B",
"o  c #181406",
"O  c #191A14",
"+  c #272007",
"@  c #272412",
"#  c #3A341E",
"$  c #3C2205",
"%  c #452D1D",
"&  c #473A23",
"*  c #412E20",
"=  c #7B6A1E",
"-  c #494229",
";  c #564B2B",
":  c #554E34",
">  c #5B5135",
",  c #6A4F2C",
"<  c #74552B",
"1  c #655A3B",
"2  c #60522C",
"3  c #7F6F2B",
"4  c #7D6A26",
"5  c #6A5F42",
"6  c #786C49",
"7  c #6C6040",
"8  c #727269",
"9  c #6F6E68",
"0  c #89751F",
"q  c #AA7D1D",
"w  c #816F21",
"e  c #836C27",
"r  c #996A2B",
"t  c #857324",
"y  c #84742C",
"u  c #89762D",
"i  c #8C7A2D",
"p  c #897825",
"a  c #937D26",
"s  c #917E2C",
"d  c #947327",
"f  c #876836",
"g  c #8C7A30",
"h  c #897631",
"j  c #9B7432",
"k  c #95743B",
"l  c #997835",
"z  c #A17625",
"x  c #A17C35",
"c  c #AE7E30",
"v  c #B07D31",
"b  c #837546",
"n  c #877A54",
"m  c #B38A1B",
"M  c #AF911B",
"N  c #B2941C",
"B  c #B19317",
"V  c #95812C",
"C  c #9A842C",
"Z  c #9E882D",
"A  c #978127",
"S  c #958131",
"D  c #9A8631",
"F  c #9D8831",
"G  c #94823C",
"H  c #99853C",
"J  c #A18B2F",
"K  c #AA8425",
"L  c #B6852F",
"P  c #AD942B",
"I  c #AD9124",
"U  c #B49422",
"Y  c #B59A2C",
"T  c #B99D2E",
"R  c #B99428",
"E  c #A58E30",
"W  c #AC8C32",
"Q  c #A7853A",
"!  c #B38434",
"~  c #B5893C",
"^  c #B78A38",
"/  c #AC9331",
"(  c #A79030",
")  c #B29433",
"_  c #B59B32",
"`  c #BA9F33",
"'  c #BB973C",
"]  c #BCA134",
"[  c #BCA239",
"{  c #B7A035",
"}  c #CA9C29",
"|  c #C3972D",
" . c #C39B3A",
".. c #C39937",
"X. c #D1A12B",
"o. c #C2A634",
"O. c #C5A934",
"+. c #C4A439",
"@. c #CDA23C",
"#. c #C8A535",
"$. c #D0A435",
"%. c #E1B438",
"&. c #9A8843",
"*. c #9F8D51",
"=. c #A18D45",
"-. c #AA8C42",
";. c #B68C40",
":. c #A6954D",
">. c #BD9443",
",. c #BC9D44",
"<. c #B69849",
"1. c #AA9458",
"2. c #B79B55",
"3. c #BDA248",
"4. c #B5A259",
"5. c #B7A155",
"6. c #8C8972",
"7. c #B6A667",
"8. c #B4A674",
"9. c #C39543",
"0. c #C29C4D",
"q. c #C09A40",
"w. c #C2A243",
"e. c #CCA744",
"r. c #CCA947",
"t. c #C3A44C",
"y. c #C3AB4D",
"u. c #CCAB4B",
"i. c #C5A747",
"p. c #D2A94B",
"a. c #D9B448",
"s. c #C3AB53",
"d. c #CBAD54",
"f. c #C6AA59",
"g. c #CAB359",
"h. c #D2B354",
"j. c #DBBB55",
"k. c #D4B45D",
"l. c #D8B95B",
"z. c #E3BE58",
"x. c #F5BF4E",
"c. c #C9AE65",
"v. c #D4BA63",
"b. c #DCBB63",
"n. c #D6BD6D",
"m. c #DCBD6B",
"M. c #D6B565",
"N. c #C1B27B",
"B. c #D6BE71",
"V. c #D5BB7B",
"C. c #CAB66A",
"Z. c #E7C45F",
"A. c #DDC36D",
"S. c #D7C071",
"D. c #D9C274",
"F. c #DBC57A",
"G. c #DEC97D",
"H. c #D3C27B",
"J. c #E4C66D",
"K. c #E7C664",
"L. c #F4CD68",
"P. c #E4C975",
"I. c #E4CB7B",
"U. c #E9CE7D",
"Y. c #E4C773",
"T. c #EBD27C",
"R. c #F6D57A",
"E. c #FFD66F",
"W. c #999483",
"Q. c #8B8A81",
"!. c #A09A87",
"~. c #ADA38A",
"^. c #B4AA95",
"/. c #C6B68F",
"(. c #DECB83",
"). c #DFCD88",
"_. c #D1C182",
"`. c #D8CA99",
"'. c #E1CD82",
"]. c #E8CE81",
"[. c #E2CC8B",
"{. c #E3D185",
"}. c #ECD384",
"|. c #E3D28B",
" X c #EBD48B",
".X c #EEDB8D",
"XX c #E7D98D",
"oX c #F5DB8B",
"OX c #F3D784",
"+X c #E3CE98",
"@X c #E2D391",
"#X c #ECD693",
"$X c #E9D99B",
"%X c #F4DB96",
"&X c #FDE28C",
"*X c #F7E39B",
"=X c #DBCAA3",
"-X c #EBDDAE",
";X c #E9D8A3",
":X c #EADEB1",
">X c #E0D5B7",
",X c #E0CEA0",
"<X c #EEE4AA",
"1X c #F3E3A3",
"2X c #FDECA3",
"3X c #F4EAAE",
"4X c #FEEFA9",
"5X c #FFF7AA",
"6X c #ECE1B9",
"7X c #F4EBB4",
"8X c #FCEEB4",
"9X c #F5EFBA",
"0X c #F5E5B7",
"qX c #FCF3BA",
"wX c #C2C5C9",
"eX c #DAD9D7",
"rX c #DACFC8",
"tX c #E8DEC7",
"yX c #E9DFD5",
"uX c #E3DED8",
"iX c #E1D9D5",
"pX c #EEE3C4",
"aX c #EEE4CB",
"sX c #E7E0C6",
"dX c #F1E6CA",
"fX c #F5EAC8",
"gX c #FDF8C7",
"hX c #EDE5D6",
"jX c #E3E2DC",
"kX c #ECE5D9",
"lX c #EFE9DB",
"zX c #F3EAD2",
"xX c #F0E7D8",
"cX c #F3ECDC",
"vX c #F8EFDD",
"bX c #F7F1DF",
"nX c #FAF1DE",
"mX c #FEF9D7",
"MX c #DCE1ED",
"NX c #EEECEC",
"BX c #EAE7E3",
"VX c #F4EEE2",
"CX c #F3EEE9",
"ZX c #F6F1E3",
"AX c #FAF4E4",
"SX c #FBFBE4",
"DX c #F6F1EB",
"FX c #FAF5EB",
"GX c #FDF9ED",
"HX c #F5F3F4",
"JX c #F9F6F3",
"KX c #FCFAF4",
"LX c #FEFDFB",
"PX c #F9F6F9",
"IX c #EFEEF1",
"UX c None",
/* pixels */
"UXUXUXUXUXUXUXUXUXUXUXUXUXUXUXUXUXUXUXUXUXUXUXUXUXUXUXUXUXUXUXUXUXUXUXUXUXUXUXUXUXUXUXUXUXUXUXUXUXUXUXUXUXUXUXUXUXUXUXUXUXUXUXUX",
"UXUXUXUXUXUXUXUXUXUXUXUXUXUXUXUXUXUXUXUXUXUXUXUXUXUXA i i i u u u u h u s A UXUXUXUXUXUXUXUXUXUXUXUXUXUXUXUXUXUXUXUXUXUXUXUXUXUX",
"UXUXUXUXUXUXUXUXUXUXUXUXUXUXUXUXUXUXUXUXUXUXD i y y u S s a A A C A a a i h y y i D UXUXUXUXUXUXUXUXUXUXUXUXUXUXUXUXUXUXUXUXUXUX",
"UXUXUXUXUXUXUXUXUXUXUXUXUXUXUXUXUXUXUXF s y y s F / _ ] o.o.O.o.O.o.O.o.] _ / E s u y g F UXUXUXUXUXUXUXUXUXUXUXUXUXUXUXUXUXUXUX",
"UXUXUXUXUXUXUXUXUXUXUXUXUXUXUXUXUXF i y i Z ) +.O.o.] ] ] ` ` ` ` ` ` ` ] o.o.O.o.Y Z i y i F UXUXUXUXUXUXUXUXUXUXUXUXUXUXUXUXUX",
"UXUXUXUXUXUXUXUXUXUXUXUXUXUXUXUXV y i ( ] O...` ] ` ` ` ` ` ` ` ` ` ` ` ` ` ` ` ] ] O.o.P i y i UXUXUXUXUXUXUXUXUXUXUXUXUXUXUXUX",
"UXUXUXUXUXUXUXUXUXUXUXUXUXUXD y u J ] O.T r.p.! _ ] ] ` ` ` ` ` ` ` ` ` ` ` ` ` ` ] T T ] O.P y y D UXUXUXUXUXUXUXUXUXUXUXUXUXUX",
"UXUXUXUXUXUXUXUXUXUXUXUXUXS e V ] O.] _ Y h.J.| W ] ` ` ] ` ` ` ` ` ` ` ` ` ` ` ] ] ] Q l Q O.O.C 3 s UXUXUXUXUXUXUXUXUXUXUXUXUX",
"UXUXUXUXUXUXUXUXUXUXUXUXi y E O.] ` ] ` Y i.Y.9.c _ ] ] ` ` ` ` ` ` ` ` ` ` ` ` ] _ w.~ j j Q O.O./ y u F UXUXUXUXUXUXUXUXUXUXUX",
"UXUXUXUXUXUXUXUXUXUXUXu y _ O.` ] _ ` ] Y 3.J. .v ) ] ] ` ` ` ` ` ` ` ` ` ` ` ] T +.t.3.~ j l ] ] O.` y y F UXUXUXUXUXUXUXUXUXUX",
"UXUXUXUXUXUXUXUXUXUXu y ] O.` ` ` ] ` ] Y { m.^ c ! T ] ` ` ` ` ` ` ` ` ` ` o.`  .t.,.i.>.j x _ ] ] O.o.i y F UXUXUXUXUXUXUXUXUX",
"UXUXUXUXUXUXUXUXUXh y o.o.` ` ` ` ` ` ] Y ,.l...v ! ^ _ _ _ ` ` ` ] ] ` ` ] ] K ;.t.<.-.k k x ) ] ` _ o.O.i y F UXUXUXUXUXUXUXUX",
"UXUXUXUXUXUXUXUXi y ` o.` ` ` ` ] ] ` ] P 0.p.| ..$.e.@.+.+.` ` _ _ _ ) ) _ ) r Q t.x b x b j ^ o.] ] _ ] o.u u UXUXUXUXUXUXUXUX",
"UXUXUXUXUXUXUXS 3 _ O.` ` ` ` ` N N N N I ..| e.a.a.X.X.X.X.X.} } } } } } c r r <.k < < , f l ) ] ] ` ] ` +.] y s UXUXUXUXUXUXUX",
"UXUXUXUXUXUXD e E O.` ` ` ` ` ` g.c.g.s.c.M.Y.].I.I.b.b.b.b.M.m.m.m.m.b.M.2.r z d * & * % f x ^ ] ` ` ] ` ` O./ 3 D UXUXUXUXUXUX",
"UXUXUXUXUXUXh V O.] ` ] ` ] N s.DXCXCXDXFXFXFXFXFXAXDXDXVXCXVXDXCXDXDXVXDXVXrX=X1.r e % < x x ^ ] ` ` ` ` ` ` O.D y UXUXUXUXUXUX",
"UXUXUXUXUXs y ] ] ] ` ` ` ` N y.DXZXAXAXAXnXAXGXAXbXvXcXcXcXVXvXcXvXcXcXcXcXNXHXJXfXn $ < l x ` ] ] ] ] ] ` ` ] o.u i UXUXUXUXUX",
"UXUXUXUXF y E O.` ` ` ` ] ] M 5.FXSXnXvXnXAXnXAXnXvXcXhXxXvXcXvXvXcXcXcXcXcXlXkXcXIXMX^.x z x T ] ] ] _ ` ` ` _ O.P y D UXUXUXUX",
"UXUXUXUXg i o.` ` ` ` ` ` ` K F.GXAXvXnXAXAXAXAXbXxXcXhXcXvXVXvXvXcXcXcXcXvXcXzXkXeXjXLXdX>.q ' T ] ] ` ` ` ` ` ` O.s u UXUXUXUX",
"UXUXUXF y E O.` ` ` ` ` ] I 3.&XAXAXAXAXnXvXAXnXcXcXkXlXVXvXvXVXvXcXcXcXcXcXcXcXxXyXuXkXPXzX@.R { ` ` ` ` ` ` ` ` o./ y D UXUXUX",
"UXUXUXS i ] ] ` ] ` ` ` T / K.OXAXAXbXjXjXbXAXcXcXkXkXcXZXbXbXbXlXcXcXvXcXvXcXcXcXcXkXkXhXHXtX| U ] ` ` ` ` ` ` ` ] o.i i UXUXUX",
"UXUXUXy Z O.` ` ` ] ` ] P 3.L.<XLXAXDXNXBXBXvXvXcXkXcXvXbXbXZXZXGXAXVXcXcXcXcXvXvXvXxXcXyXiXPX,XM { ` ` ` ` ` ` ` ] O.E y UXUXUX",
"UXUXD y ) o.` ` ] _ ] ] P h.&XbXKXxXkXwXwXcXnXnXcXcXbXbXZXlXlXJXiXmXnXVXDXvXcXvXvXcXvXxXkXiXcXJXf.M ` ` ] ` ] ` ` ` ] ` u S UXUX",
"UXUXi s ] ] ` ` ` ` { ] I P.SXfXR.P.n # ~.LXnXvXcXvXvXlXkXjXlXQ.O & ,.J.zXFXcXcXcXvXvXvXcXuXyXKX>XM T ` _ ] ` ` ` ` ] O.V h UXUX",
"UXUXu F O.` ` ` ` ` ` Y { 7XmX<XZ.K.d. .%XKXAXAXcXcXcXhXeXLXQ.  .   Q %.l.bXFXbXbXbXbXVXlXlXlXvXFXs.N ` ` ` ` ` ` ` ` O.E y UXUX",
"UXUXy / o.` ` ` ` ` ` M H.mX9X7XY.K.L.Z.$XKXAXAXAXvXxXkXeXPX^.. O *.z.h.S.;XJXDXAXZXZXAXbXzXzXxXPX`.B ` ] ` ` ` ` ` ] ] / u A UX",
"UXA h _ ] ] ` ` ` ` Y [ 9X9X7XmX5XE.E.E.7XJXZXAXAXvXcXxXcXDX`.H 2.Z.r.D.@XH.pXKXAXAXZXFXZXxXcXcXDXsXT T ` ` ` ` ` ` ` ] ] i s UX",
"UXs i ] ` ` ] ` ] ` M D.gX7XgX6X6.; 1 b =XKXAXZXvXAXAXVXbXJX@Xa.z.k.D.|.).F.$XGXDXZXAXAXZXxXxXcXVXVXs.N ` ` ` ` ` ` ` ] o.s i UX",
"UXg a ] ] ` ] [ [ [ Y @XgX9XgX&.    .   9 LXZXZXAXAXZXvXVXJX@Xu.F.|.@X).).(.(.bXGXAXAXAXvXxXxXcXvXHXC.N ` ` ` ` ` ` ` ` o.a i UX",
"UXi a o.` ` ` ` ` Y { <X9X8XqX-   @ @   9 HXZXDXAXvXnXvXAXJX6X(.@X).).).).).G.pXJXZXAXZXZXcXxXcXvXHX_.B ] ` ` ` ` ] ` ` o.C u UX",
"UXu C o.` ` ` ` ` Y w.7X3XqX3X- . @ @   8 LXAXZXVXZXZXAXAXJX6XF.).).).).).).H.6XLXAXAXAXAXVXcXcXxXJX`.B ` ` ` ` ` ` ` ` o.Z y UX",
"UXu A O.` ` ] ` [ _ y.<X1X8X`.; X X X o W.LXAXVXVXZXZXVXAXJX-XD.).).).).).).G.<XJXZXAXZXAXcXxXxXvXJX`.M ` ` ` ` ` ` ` ` o.J y 7.",
"UXu A o.` ` ` ` { T s.<X3X5X8.1 - X X + ~.LXZXZXZXZXlXbXAXJX-XF.).).).).).[.F.-XJXAXAXAXAXbXxXcXcXJX`.M T ] ` ` ` ` ` ` o.Z y 7.",
"UXu A o.` ` ` ` ] T 3.7X8X5X8.> 6 > 1 + W.LXZXDXVXcXcXlXFXJX-XF.).).).).[.'.Y.6XKXSXAXDXZXlXlXzXcXFX=XU ` ` ` ` ` ` ` ` o.Z y UX",
"UXi a o.` ` ` ] [ _ [ 1X9X1X2Xn # - : - W.LXZXZXVXlXbXbXAXJX:XF.).).).'.'.'.].fXKXDXAXAXcXxXcXcXkXJX+XU _ ] ` ` ` ` ` ` O.C u UX",
"UXg a o.] ` ` ` ] ` T XXgX$X5XN.# & # X 6.LXZXZXZXbXlXkXZXKX-XF.(.(.(.'.[. X XzXJXAXAXAXlXxXcXxXcXPX[.R Y ] ` ` ] ` ` ` o.A u UX",
"UXi i ] ] ` ` ` ` _ N (.8X%X4XXX5 5 6 ; W.NXjXBXjXeXeXeXlXKX:XY.[.'. X#X#X X#XFXGXZXAXZXkXxXcXkXxXDXV.} ` ` ` ` ` ` ` ] o.s i UX",
"UXA h ` ] ` ` ] ` ` N k.8X*X1X*XS.1 : 2 ~.JXjXeXeXuXjXkXvXKX-XF.'. X#X#X#XU.-XJXAXAXAXlXxXcXcXxXcXVXl..._ ` ` ` ` ` ` ] ] i s UX",
"UXUXu / ] ] ] ] { ] Y { 1X1X*X.X&XB.6 3 /.KXlXlXlXlXkXVXAXJX<XD.'.#X#X#X X XnXFXZXAXvXxXcXxXcXxXCXaXe.e.' ` ` ` ` ` ` ] _ h A UX",
"UXUXu F O.` ` _ ] ] ] I D.qX.X}. XOXY.y.`.JXZXcXDXAXAXAXAXKX-XD.F.[.#X X].fXKXAXAXZXcXkXxXxXxXxXHX=XR p.w._ ` ` ] ` ` o.E y UXUX",
"UXUXi V o.] ` ` ` ` ` U [ 1X*XOXT.T.J.z.$XKXAXvXAXAXAXAXZXJX;XJ.I.Y.]. XfXJXAXZXAXcXxXlXxXxXkXkXJXc.U r.e._ ` ` ` ` ` O.V u UXUX",
"UXUXD u _ ] ` ` ` ` ` T ] I.1X%X0X9X0X;XdXFXZXZXAXAXZXAXAXFXdX0XpX0X0XvXKXAXAXAXZXlXcXxXkXkXyXCXaXL ..r.r.] _ ` ` ` ] ] u S UXUX",
"UXUXUXy E O.` ` ] ` _ Y y.Y.b.$XLXKXKXLXFXnXZXAXGXAXAXAXAXAXGXLXKXJXPXJXAXZXAXAXZXcXxXhXyXyXhXPXV.| r.r.e.] ] ` ` ` O.E y UXUXUX",
"UXUXUXi i ] ] ` ] _ ] T A.}.r.v.GXGXAXAXAXAXAXAXAXAXAXAXAXAXFXAXAXGXAXAXlXZXAXAXAXbXxXkXhXyXHXtX}  .p.e.,.] _ ] ` ` o.s i UXUXUX",
"UXUXUXF y / O.` ` ` ` Y l. Xb.M.VXAXSXAXAXAXSXAXAXSXAXAXSXAXGXAXGXAXvXkXVXAXAXZXAXZXlXcXkXBXVXr. .m.G.k.^ ] ] ` ` o._ y D UXUXUX",
"UXUXUXUXu i o.` ` ` ` U h. XJ.F.VXcXAXGXGXAXAXAXAXAXGXAXAXAXAXZXcXxXkXZXAXAXAXZXAXFXcXkXBXDXF.r.D.F.G.f.! ` ] ` ` O.s y UXUXUXUX",
"UXUXUXUXD y / o.` ` _ ] I.].J.#XVXVXkXcXVXAXAXAXAXZXZXcXvXcXlXkXkXcXZXAXZXZXZXAXAXbXhXDXZX[.k.F.D.D.F.0.! ' ] ` o./ y D UXUXUXUX",
"UXUXUXUXUXs u ] ] ] T ] I.U.J. XAXDXvXlXcXlXcXvXcXlXkXcXkXlXlXcXVXAXvXVXZXZXZXAXAXHXHXpXF.v.G.F.D.D.D.0.~ ` ] ] O.i i UXUXUXUXUX",
"UXUXUXUXUXUXy D O.` Y [ P.].J.@XKXKXGXFXFXFXDXCXDXAXDXVXDXDXFXFXFXFXFXDXFXGXJXJXFXdX@Xv.A.{.'.{.G.D.B.>.;.' ] O.Z y F UXUXUXUXUX",
"UXUXUXUXUXUXD 3 / O.Y +.].I.Y.].fXnXzXzXaXdXdXpXtXtXtXdXzXzXzXzXzXzXzXaXzXdX6X;X(.v.v.G.'.{.G.{.G.D.D.>.^ ' O.T 3 S UXUXUXUXUXUX",
"UXUXUXUXUXUXUXs y ] T h.}.I.I.P.P.P.U.A.0.r.h.d.3.' s.S.S.S.S.B.S.S.S.S.S.S.v.k.v.S.{.'.(.G.(.{.G.G.n.~ ~ ` o.y i UXUXUXUXUXUXUX",
"UXUXUXUXUXUXUXUXu y O.U.}.I.I.I.P.Y.I.J.,.3.t.t.,.t.m.D.n.S.n.B.S.S.S.n.S.S.S.S.D.(.'.{.G.{.'.'.G.D.>.~ 9.+.i y UXUXUXUXUXUXUXUX",
"UXUXUXUXUXUXUXUXF w H oX}.P.I.I.I.I.U.P.t.3.t.,.t.B.F.B.D.D.S.D.S.S.S.S.S.A.D.F.{.).'.G.'.'.'.'.F.0.! >.9.l y F UXUXUXUXUXUXUXUX",
"UXUXUXUXUXUXUXUXUXF w &.OXOXP.I.I.I.I.}.k.,.0.s.B.D.D.D.D.S.D.D.S.S.S.S.H.G.'.'.(.I.G.{.'.'.'.'.0.! 9.9.g y F UXUXUXUXUXUXUXUXUX",
"UXUXUXUXUXUXUXUXUXUXF = G ].oXI.I.I.I.].g.,.v.H.F.S.D.S.B.D.S.B.S.D.D.(.'.'.'.{.G.{.'.'.'.{.XXf.! q.9.g y F UXUXUXUXUXUXUXUXUXUX",
"UXUXUXUXUXUXUXUXUXUXUXF w h B.&X].I.].B.,.g.G.F.S.D.D.D.D.S.B.D.G.{.'.'.'.{.G.G.{.G.'.'.{.].f.^ 9.;.y y F UXUXUXUXUXUXUXUXUXUXUX",
"UXUXUXUXUXUXUXUXUXUXUXUXUXp 4 4.oXT.v.d.d.S.D.D.D.S.S.S.D.S.D.G.{.'.G.{.G.'.'.'.'.'.'.{.XX0.! 9.Q 3 V UXUXUXUXUXUXUXUXUXUXUXUXUX",
"UXUXUXUXUXUXUXUXUXUXUXUXUXUXV 4 &.s.a.l.h.k.S.S.n.S.D.S.S.F.G.{.G.(.'.'.'.'.G.{.I.'.).{.A.k.<.u 3 V UXUXUXUXUXUXUXUXUXUXUXUXUXUX",
"UXUXUXUXUXUXUXUXUXUXUXUXUXUXUXF t 4 H 3.l.l.h.u.u.D.S.F.F.G.).G.'.G.{.'.G.{.{.{.(.{. X].f.:.3 i F UXUXUXUXUXUXUXUXUXUXUXUXUXUXUX",
"UXUXUXUXUXUXUXUXUXUXUXUXUXUXUXUXUXZ u 3 S <.u.j.T..XG.{.{.{.I.(.'.'.G.{.{.I.G.G.}.D.4.H 3 t D UXUXUXUXUXUXUXUXUXUXUXUXUXUXUXUXUX",
"UXUXUXUXUXUXUXUXUXUXUXUXUXUXUXUXUXUXUXZ u y i =.7.H.|. X.X.X.X.X.X&X.X.X{.S.f.5.&.g t t C UXUXUXUXUXUXUXUXUXUXUXUXUXUXUXUXUXUXUX",
"UXUXUXUXUXUXUXUXUXUXUXUXUXUXUXUXUXUXUXUXUXUXV t t u H &.=.:.4.4.4.4.:.=.H G u 3 t V UXUXUXUXUXUXUXUXUXUXUXUXUXUXUXUXUXUXUXUXUXUX",
"UXUXUXUXUXUXUXUXUXUXUXUXUXUXUXUXUXUXUXUXUXUXUXUXUXA p 0 t 0 = = 4 0 t t 0 p A UXUXUXUXUXUXUXUXUXUXUXUXUXUXUXUXUXUXUXUXUXUXUXUXUX",
"UXUXUXUXUXUXUXUXUXUXUXUXUXUXUXUXUXUXUXUXUXUXUXUXUXUXUXUXUXUXUX7.7.UXUXUXUXUXUXUXUXUXUXUXUXUXUXUXUXUXUXUXUXUXUXUXUXUXUXUXUXUXUXUX"
};
