/* XPM */
static char *dogecoin16[] = {
/* columns rows colors chars-per-pixel */
"16 16 170 2 ",
"   c #1A190D",
".  c #4D462E",
"X  c #816330",
"o  c #907132",
"O  c #947E31",
"+  c #95812F",
"@  c #9B852F",
"#  c #9C862F",
"$  c #9B8630",
"%  c #9B8730",
"&  c #9C8730",
"*  c #9D8730",
"=  c #9D8830",
"-  c #9C883A",
";  c #B89C2D",
":  c #A98636",
">  c #A18B30",
",  c #A28B31",
"<  c #A48B31",
"1  c #A28C30",
"2  c #AA9231",
"3  c #AA9232",
"4  c #B09733",
"5  c #B29235",
"6  c #B99634",
"7  c #B19832",
"8  c #B29832",
"9  c #B39A32",
"0  c #B49A32",
"q  c #B69C32",
"w  c #B69C33",
"e  c #B99D31",
"r  c #B99E30",
"t  c #B99C32",
"y  c #B99E33",
"u  c #BA9E32",
"i  c #BA9F32",
"p  c #BB9F32",
"a  c #BA9E33",
"s  c #BA9F33",
"d  c #B99834",
"f  c #B49B39",
"g  c #B99A3A",
"h  c #BBA033",
"j  c #BCA033",
"k  c #BCA133",
"l  c #BBA034",
"z  c #BCA136",
"x  c #BEA337",
"c  c #BEA138",
"v  c #BDA238",
"b  c #BEA43B",
"n  c #BDA33D",
"m  c #A18D40",
"M  c #AB9446",
"N  c #AD9644",
"B  c #A69448",
"V  c #B59040",
"C  c #BE9D43",
"Z  c #A18F59",
"A  c #B79950",
"S  c #B29F53",
"D  c #BDA153",
"F  c #C3A042",
"G  c #C3AA47",
"H  c #C3AB47",
"J  c #C2A94B",
"K  c #CAAF56",
"L  c #CDAC54",
"P  c #CCAF5A",
"I  c #C5A96A",
"U  c #CFB265",
"Y  c #CCB86B",
"T  c #D5BB6B",
"R  c #D4BC6C",
"E  c #CEBC75",
"W  c #D8BF79",
"Q  c #D7C070",
"!  c #D7C377",
"~  c #D8C071",
"^  c #DAC275",
"/  c #DAC077",
"(  c #DAC475",
")  c #DEC575",
"_  c #DEC576",
"`  c #DEC779",
"'  c #DFC27F",
"]  c #DEC97C",
"[  c #DEC97D",
"{  c #E1C370",
"}  c #E4C976",
"|  c #E5CC7B",
" . c #B9B29A",
".. c #C2BA8B",
"X. c #CBBE8A",
"o. c #DAC280",
"O. c #DBC182",
"+. c #D9C285",
"@. c #DFCC86",
"#. c #D8C389",
"$. c #DACB95",
"%. c #DECD9D",
"&. c #E1CC80",
"*. c #E0CD81",
"=. c #E1CE82",
"-. c #E3CF83",
";. c #E0CD87",
":. c #E1CF89",
">. c #E3D084",
",. c #E7D089",
"<. c #E0CF93",
"1. c #EFDB91",
"2. c #E4D39B",
"3. c #E3D29F",
"4. c #E4D39C",
"5. c #E4D59C",
"6. c #E8D69C",
"7. c #CDC1A4",
"8. c #CDCABE",
"9. c #ECD9A0",
"0. c #ECDFB1",
"q. c #E4D9BA",
"w. c #EDE2A7",
"e. c #EDE0B9",
"r. c #EEE2B8",
"t. c #EDE3BD",
"y. c #F2E3B7",
"u. c #D4D0C2",
"i. c #D9D3C1",
"p. c #DCD8CB",
"a. c #DAD5D0",
"s. c #E9DDC7",
"d. c #F4E8CC",
"f. c #F8EECF",
"g. c #EBE1D2",
"h. c #E9E3D3",
"j. c #EAE7DD",
"k. c #F7EED3",
"l. c #F2EBD8",
"z. c #F3EBDB",
"x. c #F6EED9",
"c. c #F2EBDC",
"v. c #F2EADE",
"b. c #F3EDDE",
"n. c #F3ECDF",
"m. c #F3EDDF",
"M. c #F4EDDD",
"N. c #F5EDDE",
"B. c #F5EEDE",
"V. c #F6EEDF",
"C. c #F8F1DC",
"Z. c #F8F0DE",
"A. c #F5EDE1",
"S. c #F6EFE1",
"D. c #F6F0E1",
"F. c #F7F2E2",
"G. c #F7F2E3",
"H. c #F5F0E4",
"J. c #F8F3E3",
"K. c #F9F3E3",
"L. c #F8F2E5",
"P. c #FAF3E4",
"I. c #F8F3E7",
"U. c #F9F4E4",
"Y. c #F8F4E5",
"T. c #FAF4E6",
"R. c #FBF5E7",
"E. c #FCF5E7",
"W. c #F9F4E8",
"Q. c None",
/* pixels */
"Q.Q.Q.Q.Q.Q.> > * $ Q.Q.Q.Q.Q.Q.",
"Q.Q.Q.Q.2 g t p p t 8 < Q.Q.Q.Q.",
"Q.Q.Q.7 j F 6 p y t C : 4 + Q.Q.",
"Q.Q.7 v E X.} W W I X o p 7 Q.Q.",
"Q.3 h J E.P.B.B.B.c.a.A a l 1 Q.",
"Q.0 y [ q.h.z.p.7.x.c.s.n a w Q.",
"% y b w.{ d.B. .D r.U.S.Y y l * ",
"* l H ..  8.F.r.;.2.F.S.$.; j 1 ",
"= l H X.. u.c.t.;.6.P.c.%.; p , ",
"# a b 1.Z i.j.r.,.y.S.c.O.y y * ",
"Q.7 l _ k.Z.U.Z.k.Y.c.h.L v q Q.",
"Q.2 x _ W.E.U.I.F.G.z.3.T d 1 Q.",
"Q.Q.f | 9.+.#.5.4.<.@.*.U 5 Q.Q.",
"Q.Q.- R } P Q Q ( [ =.( V O Q.Q.",
"Q.Q.Q.Q.N K ] =.;.-.( M Q.Q.Q.Q.",
"Q.Q.Q.Q.Q.Q.B S S : Q.Q.Q.Q.Q.Q."
};
