<?xml version="1.0" encoding="UTF-8" standalone="no"?>
<svg
   id="Layer_1"
   viewBox="0 0 126.5664 126.5664"
   width="256"
   height="256"
   version="1.1"
   sodipodi:docname="dogecoin256.svg"
   inkscape:version="1.1.1 (c3084ef, 2021-09-22)"
   xmlns:inkscape="http://www.inkscape.org/namespaces/inkscape"
   xmlns:sodipodi="http://sodipodi.sourceforge.net/DTD/sodipodi-0.dtd"
   xmlns:xlink="http://www.w3.org/1999/xlink"
   xmlns="http://www.w3.org/2000/svg"
   xmlns:svg="http://www.w3.org/2000/svg">
  <sodipodi:namedview
     id="namedview261"
     pagecolor="#ffffff"
     bordercolor="#111111"
     borderopacity="1"
     inkscape:pageshadow="0"
     inkscape:pageopacity="0"
     inkscape:pagecheckerboard="1"
     showgrid="false"
     inkscape:zoom="1.0962943"
     inkscape:cx="71.148777"
     inkscape:cy="132.71983"
     inkscape:window-width="1384"
     inkscape:window-height="847"
     inkscape:window-x="0"
     inkscape:window-y="25"
     inkscape:window-maximized="0"
     inkscape:current-layer="Layer_1" />
  <style
     id="style2">.st0{fill:#988430}.st1{fill:#7a6a2a}.st2{fill:#ba9f33}.st3,.st4,.st5,.st6{clip-path:url(#SVGID_2_);fill:#e2cc85}.st4,.st5,.st6{fill:#f1d789}.st5,.st6{fill:#f4ecb4}.st6{fill:#f3e19d}.st10,.st11,.st7,.st8,.st9{clip-path:url(#SVGID_2_);fill:#f2e8b0}.st10,.st11,.st8,.st9{fill:#f5eec0}.st10,.st11,.st9{fill:#e6db9d}.st10,.st11{fill:#e5cb7a}.st11{fill:#d8c173}.st12,.st13,.st14,.st15,.st16{clip-path:url(#SVGID_2_);fill:#e0cd81}.st13,.st14,.st15,.st16{fill:#dfc57c}.st14,.st15,.st16{fill:#e5cc7c}.st15,.st16{fill:#d2c281}.st16{fill:#e2c270}.st17,.st18,.st19,.st20,.st21{clip-path:url(#SVGID_2_);fill:#ccb360}.st18,.st19,.st20,.st21{fill:#d5b457}.st19,.st20,.st21{fill:#d2b257}.st20,.st21{fill:#d2b159}.st21{fill:#c2a44d}.st22,.st23,.st24,.st25,.st26{clip-path:url(#SVGID_2_);fill:#caa13e}.st23,.st24,.st25,.st26{fill:#b59544}.st24,.st25,.st26{fill:#c89d3a}.st25,.st26{fill:#ceb052}.st26{fill:#cca847}.st27,.st28,.st29,.st30,.st31{clip-path:url(#SVGID_2_);fill:#c39d3c}.st28,.st29,.st30,.st31{fill:#d2ba6b}.st29,.st30,.st31{fill:#c0993a}.st30,.st31{fill:#a88f33}.st31{fill:#e3c571}.st32,.st33,.st34,.st35,.st36{clip-path:url(#SVGID_2_);fill:#d8b65b}.st33,.st34,.st35,.st36{fill:#d3ae4d}.st34,.st35,.st36{fill:#f4efc8}.st35,.st36{fill:#ebcc73}.st36{fill:#e5c66b}.st37,.st38,.st39,.st40,.st41{clip-path:url(#SVGID_2_);fill:#e6bd62}.st38,.st39,.st40,.st41{fill:#b6933f}.st39,.st40,.st41{fill:#c49937}.st40,.st41{fill:#dfc068}.st41{fill:#c99e3d}.st42,.st43,.st44,.st45,.st46{clip-path:url(#SVGID_2_);fill:#b58634}.st43,.st44,.st45,.st46{fill:#e6c367}.st44,.st45,.st46{fill:#dcba5a}.st45,.st46{fill:#e9ce77}.st46{fill:#cdae50}.st47,.st48,.st49,.st50,.st51{clip-path:url(#SVGID_2_);fill:#d2a83e}.st48,.st49,.st50,.st51{fill:#c29637}.st49,.st50,.st51{fill:#ac8132}.st50,.st51{fill:#a67a2e}.st51{fill:#8c6228}.st52,.st53,.st54,.st55,.st56{clip-path:url(#SVGID_2_);fill:#cba94c}.st53,.st54,.st55,.st56{fill:#be9c44}.st54,.st55,.st56{fill:#a17c34}.st55,.st56{fill:#92723a}.st56{fill:#b18e3e}.st57,.st58,.st59,.st60,.st61{clip-path:url(#SVGID_2_);fill:#543e26}.st58,.st59,.st60,.st61{fill:#806031}.st59,.st60,.st61{fill:#b6903c}.st60,.st61{fill:#685026}.st61{fill:#d4b968}.st62,.st63,.st64,.st65,.st66{clip-path:url(#SVGID_2_);fill:#cca849}.st63,.st64,.st65,.st66{fill:#585136}.st64,.st65,.st66{fill:#252211}.st65,.st66{fill:#c3b378}.st66{fill:#e6d89c}.st67,.st68,.st69,.st70,.st71{clip-path:url(#SVGID_2_);fill:#6f674d}.st68,.st69,.st70,.st71{fill:#ac924c}.st69,.st70,.st71{fill:#9f8e57}.st70,.st71{fill:#eac970}.st71{fill:#d7bc6b}.st72,.st73,.st74,.st75,.st76{clip-path:url(#SVGID_2_);fill:#453a25}.st73,.st74,.st75,.st76{fill:#84754b}.st74,.st75,.st76{fill:#f7f7e7}.st75,.st76{fill:#f8f6de}.st76{fill:#d4c38b}.st77,.st78,.st79,.st80,.st81{clip-path:url(#SVGID_2_);fill:#e2d59d}.st78,.st79,.st80,.st81{fill:#cbac5a}.st79,.st80,.st81{fill:#d6bc6f}.st80,.st81{fill:#dfc677}.st81{fill:#c4a859}.st82,.st83,.st84,.st85,.st86{clip-path:url(#SVGID_2_);fill:#927d49}.st83,.st84,.st85,.st86{fill:#6e6342}.st84,.st85,.st86{fill:#39331f}.st85,.st86{fill:#292311}.st86{fill:#3f3824}.st87,.st88,.st89,.st90,.st91{clip-path:url(#SVGID_2_);fill:#2d2815}.st88,.st89,.st90,.st91{fill:#82764f}.st89,.st90,.st91{fill:#2d2816}.st90,.st91{fill:#574f35}.st91{fill:none}.st92,.st93,.st94,.st95,.st96{clip-path:url(#SVGID_2_);fill:#cfb66c}.st93,.st94,.st95,.st96{fill:#dec270}.st94,.st95,.st96{fill:#cbaf59}.st95,.st96{fill:#e3c677}.st96{fill:#ecd592}.st97{opacity:.8;fill:#fff;enable-background:new}</style>
  <defs
     id="defs11">
    <circle
       id="SVGID_1_"
       cx="618"
       cy="618"
       r="585.59998" />
  </defs>
  <clipPath
     id="SVGID_2_">
    <use
       xlink:href="#SVGID_1_"
       overflow="visible"
       id="use13"
       x="0"
       y="0"
       width="100%"
       height="100%" />
  </clipPath>
  <g
     id="g388"
     transform="scale(0.1024)">
    <circle
       class="st0"
       cx="618"
       cy="618"
       r="618"
       id="circle4" />
    <circle
       class="st1"
       cx="618"
       cy="618"
       r="598.20001"
       id="circle6" />
    <circle
       class="st2"
       cx="618"
       cy="618"
       r="585.59998"
       id="circle8" />
    <path
       class="st3"
       d="m 470.2,860 -19.6,-37.1 11.4,-46.4 81.3,-31.4 -34.6,-71 17.1,-71.7 32.1,-64.2 99.2,-15.6 72.9,-69.5 157.4,11.9 30.9,168.3 -59.5,211.9 -33.9,109.7 -137.4,5.2 -63.8,-44.2 -74.7,-31.2 z"
       clip-path="url(#SVGID_2_)"
       id="path16" />
    <path
       class="st4"
       d="m 711.2,858.8 c 0,0 -19,8.7 -51.4,6.7 -9.4,-12.6 -75.1,-18.5 -75.1,-18.5 0,0 -8.2,-2.5 -22.7,3.5 -14.6,5.9 -28.4,5.2 -41.3,8.4 -12.9,3.2 -25.7,-13.6 -35.6,-17.1 -9.9,-3.7 -23,-12.6 -23,-12.6 l -27.7,-2.7 -55.6,-23.5 -88.3,-88 -24,37.6 -7.4,46.5 26.7,55.1 71.9,65.5 140.2,35.6 83.1,-24.5 104.1,-44 z"
       clip-path="url(#SVGID_2_)"
       id="path18" />
    <path
       class="st5"
       d="m 213.1,547.8 17.8,-53.9 21.2,-34.8 68.3,-5.7 -20.5,59.8 -57.1,101.6 23.7,90.7 -42,21 -12.9,-19.8 -10.4,-45.4 -0.7,-51 z"
       clip-path="url(#SVGID_2_)"
       id="path20" />
    <path
       class="st6"
       d="m 289.7,855.1 -13.1,-18.3 c 0,0 -3.5,-8.7 -1.5,-16.3 2,-7.7 1.7,-8.2 0.7,-11.1 -1,-2.9 -9.4,-12.9 -8.9,-21.5 0.5,-8.7 -0.7,-11.6 5.7,-18.5 6.7,-6.7 4.7,-18.3 4.7,-18.3 l 8.7,5.4 2,-3 c 0,0 3.2,2.5 3.2,6.4 0.7,-5.4 -2.2,-30.4 4.4,-36.1 6.7,-5.7 18.3,26.7 18.3,26.7 l -7.2,-47 -18.5,-48.2 -32.9,-44 -2,-48.5 v -4.2 c 0,0 -15.1,23.2 -19.3,41.5 -3,12.6 4.2,27.9 2.7,46 -1.2,18 -2.7,16.6 1.7,23.7 4.4,7.1 15.1,21.8 10.9,32.4 -3.7,9.1 -16.3,2.7 -16.3,2.7 0,0 -2.5,7.4 -5.9,10.1 -1.2,-4.4 -2.5,-7.2 -4.9,-9.9 -0.2,1.7 -0.7,4 -0.7,4 0,0 -2.2,-6.9 -4.4,-15.6 -3,-11.6 -6.2,-26.9 -9.1,-35.1 -1.2,4.7 -4.2,19 -4.2,19 l 1.7,22 8.2,30.2 7.9,19.8 7.7,24.2 6.7,16.3 5.4,12.4 4.7,27.9 22.7,24 12.1,5.4 z"
       clip-path="url(#SVGID_2_)"
       id="path22" />
    <path
       class="st7"
       d="m 225,503.8 c 0,0 -16.3,27.7 -21,55.6 -4.7,27.9 -8.9,57.4 -5.9,95.4 3,38.3 8.7,61.8 13.3,78.6 7.9,27.9 28.4,66.7 28.4,66.7 l 0.7,-1.5 c 0,0 -5.4,-9.9 -8.2,-20.5 -2.7,-10.6 -3.7,-23.2 -6.2,-28.9 -2.2,-5.7 -5.9,-10.6 -7.7,-17.6 -1.7,-6.7 -2,-17.3 -7.2,-25.2 -2.2,-3.2 -4.9,-11.6 -5.7,-20 -1,-12.6 0.5,-26.7 -0.7,-38.3 -2.2,-19.3 -3.7,-32.4 -1.7,-42.5 2,-10.1 12.4,-38.8 18.8,-61.6 4.2,-14.6 1.7,-26.9 9.4,-39.6 7.7,-12.6 12.4,-23.7 14.1,-31.4 2,-7 -20.4,30.8 -20.4,30.8 z"
       clip-path="url(#SVGID_2_)"
       id="path24" />
    <path
       class="st8"
       d="m 302.3,492.7 c 0,0 -8.4,2.5 -12.4,6.9 -4,4.2 -5.7,7.7 -11.1,14.8 -5.4,7.2 -5.7,12.9 -10.1,21.8 -4.4,8.7 -14.1,21.8 -15.3,26.5 -1.2,4.7 -3.2,26.7 -5.7,37.1 -2.2,10.4 2.5,23.2 2.5,23.2 l 5.7,-1.2 c 0,0 0,7.4 5.7,12.4 5.7,4.9 6.7,-16.6 6.7,-16.6 l 21.3,-71.9 32.1,-21.8 3.5,-17.6 z"
       clip-path="url(#SVGID_2_)"
       id="path26" />
    <path
       class="st9"
       d="m 317.9,525.3 c 0,0 -15.1,1 -22.5,6.4 -3,2.2 -4.2,4 -7.4,6.7 -5.9,4.9 -11.9,9.4 -14.8,15.8 -3.2,6.4 -6.7,16.1 -9.1,34.4 -1,7.7 -1,14.8 -1.7,21 -1,8.4 -2.5,15.1 -1.7,19.8 1,9.6 10.9,14.6 11.9,25.5 l 20.5,-10.4 19.3,-76.1 41,-25.7 -23.2,-26 z"
       clip-path="url(#SVGID_2_)"
       id="path28" />
    <path
       class="st10"
       d="m 321.1,1204.6 -91.5,2.2 -48.5,-3.7 c 0,0 3,-35.6 3.7,-44 1.7,-5.2 7.4,-20 9.1,-22.7 1.2,-4 2.7,-14.1 -0.7,-26.5 2.2,-3.5 9.1,-5.4 16.8,-74.4 3,-25.7 3.5,-45.2 5.7,-57.4 3.2,-17.3 5.4,-23.7 4.9,-30.2 -0.7,-10.4 -1.5,-18 -0.5,-26 1.5,-10.6 11.9,-23.2 11.6,-31.9 -0.2,-6.9 -3.7,-11.4 -6.7,-15.6 -3,-4.2 -5.4,-7.7 -5.4,-7.7 0,0 20.5,-14.1 20.3,-70.9 0.7,0.2 1.2,0.5 1.2,0.5 l 10.1,28.7 6.9,8.4 26.5,49.4 34.1,33.1 50.4,33.9 31.6,34.4 3.2,91.7 -41.3,53.6 z"
       clip-path="url(#SVGID_2_)"
       id="path30" />
    <path
       class="st11"
       d="m 335.9,1125.5 c 0,0 0.7,-11.4 10.1,-18.8 1.5,2.5 2.5,4.9 2.2,6.7 1.7,-3 13.6,-22.2 40.5,-27.2 26.9,-4.9 33.4,-24.5 33.4,-24.5 l 57.1,-51.9 65.3,-60.1 79.4,-27.9 37.1,-9.1 c 0,0 0.7,2.7 -0.7,8.7 6.9,-0.5 22.2,-4 38.1,-9.6 6.4,-2.5 12.4,-3.5 15.6,-0.2 4.7,4.4 5.4,14.8 5.7,21 7.7,-1.7 16.6,-9.1 23.7,-8.4 11.4,1.2 21.5,14.6 33.1,14.6 15.3,0 22.2,-9.4 32.9,-16.8 6.4,-4.4 15.6,-9.9 20.8,-13.6 12.4,-9.1 143.6,-49.2 143.6,-49.2 l 46,3 7.4,49.4 -4,129.8 -210.6,110 -332,50.9 -135.2,-34.6 z"
       clip-path="url(#SVGID_2_)"
       id="path32" />
    <path
       class="st4"
       d="m 195.5,1204.9 c 0,0 12.1,-27.4 17.8,-67 4.7,-32.4 0.5,-39.8 1.7,-50.2 1.7,-15.6 19.3,-46 20.8,-51.9 1.2,12.1 4.7,57.8 17.3,68 -2.7,4 -7.2,17.8 8.9,28.4 -2.7,5.7 -8.2,12.6 -4.7,23 3.5,10.4 7.7,25.2 5.7,41.5 -5.7,1.2 -11.9,3.7 -16.8,8.4 -4.9,4.4 -50.7,-0.2 -50.7,-0.2 z"
       clip-path="url(#SVGID_2_)"
       id="path34" />
    <path
       class="st12"
       d="m 402.9,1185.8 73.7,-20.5 3.2,1 c 0,0 1.7,1 1.7,4.4 4.7,-2.7 8.7,-2.2 11.6,-4 1.5,3.2 3,13.8 9.6,15.1 6.9,1.5 14.3,-3 21.8,-8.7 7.4,-5.9 15.8,-13.3 22.2,-16.3 1.2,2 4.2,8.2 6.2,13.3 8.4,-6.7 23,-33.9 43.8,-33.4 2,-4.7 9.4,-21.8 28.9,-34.9 19.3,-13.1 31.4,-14.1 46.5,-12.9 5.9,-7.7 13.6,-14.6 21.8,-19.5 2.5,1 9.4,5.2 18,1.2 8.7,-4 18.5,-19.5 31.4,-21.5 11.4,-1.7 20,4.2 20,4.2 0,0 37.6,-37.3 63.5,-49.7 -1,-3 -3,-14.3 27.4,-39.3 1.7,1.5 0.5,5.7 1.7,5.9 0.5,0 7.9,-3.2 17.3,-10.4 11.6,-8.7 25.5,-17.8 33.9,-20.3 15.8,-4.7 32.6,4.9 32.6,4.9 0,0 2,-1.5 4.7,-2.2 4,-0.7 6.9,-1.2 9.1,-2 -0.2,5.2 2.7,14.1 0,21.8 0,0 4.2,2.5 9.9,4.2 -1.7,3.7 -5.4,13.1 -11.6,17.6 5.2,2.5 5.9,5.4 13.3,7.9 -3,4.2 -7.9,11.4 -10.1,15.8 -2.2,4.7 -10.1,24.2 -13.6,31.6 -3.7,7.4 -8.7,21 -11.1,23.7 -2.5,2.7 -11.1,14.3 -17.8,20 5.9,-2.2 30.2,-9.6 40.5,-12.4 -6.2,9.1 -63.5,94.2 -63.5,94.2 l -115.4,34.4 -56.6,9.6 -294.9,-0.2 -26,-12.9 z"
       clip-path="url(#SVGID_2_)"
       id="path36" />
    <path
       class="st13"
       d="m 320.4,522.6 c 0,0 -8.7,0 -10.4,1.2 -1.7,1.2 8.7,3.7 11.9,4.9 3.2,1.2 10.1,6.7 11.9,11.1 1.7,4.2 62.5,28.7 62.5,28.7 l 43,-2.2 14.8,-20.5 -28.2,-24.7 19.8,-58.3 -26.2,4.2 -63,37.6 -31.6,12.1 z"
       clip-path="url(#SVGID_2_)"
       id="path38" />
    <path
       class="st14"
       d="m 414.8,541.9 c 0,0 1.7,3.2 5.9,3.2 8.9,0 17.1,2.2 20.5,6.7 5.7,7.2 21.5,30.2 21.5,30.2 l 37.8,13.6 2.5,-44.5 -41.3,-28.7 -47,17.3 v 2.2 z"
       clip-path="url(#SVGID_2_)"
       id="path40" />
    <path
       class="st15"
       d="m 407.4,558.4 c 0,0 6.9,0.5 15.6,-2.7 8.7,-3.2 23,-10.1 29.2,-7.4 8.7,3.7 6.9,15.3 16.3,25.7 5.7,6.4 16.1,6.2 22,13.1 5.9,6.9 26.2,3.7 26.2,3.7 l 7.7,41.5 -30.9,39.6 -10.1,49.2 h -41.8 l -38.2,-15.1 -18.8,-45.5 9.4,-46 z"
       clip-path="url(#SVGID_2_)"
       id="path42" />
    <path
       class="st16"
       d="m 488.2,560.4 c 0,0 1.5,0.5 3.2,0.5 -1.2,1 -3.7,3.2 -2.7,8.9 1,5.7 4.2,12.9 1.5,17.3 1.2,1.5 3,3.2 4.7,8.2 1.7,4.9 2.2,9.4 13.3,10.1 -2.5,1.5 -4.4,3.5 -4.4,3.5 0,0 7.7,6.7 11.6,12.9 4,-0.2 14.6,-3.5 14.6,-3.5 l 2.2,1.5 4.7,-2 c 0,0 -4.4,-1.7 -1.2,-12.4 3,-9.4 5.7,-8.9 5.9,-9.6 0.2,-0.7 2.2,-10.6 2.2,-14.6 1.5,-5.2 2.7,-21 2.7,-21 l -3.2,-34.9 -18,-10.9 -14.6,-14.1 -13.8,26 -9.1,9.1 -0.7,22.5 z"
       clip-path="url(#SVGID_2_)"
       id="path44" />
    <path
       class="st17"
       d="m 531.5,531.2 c 0,0 3.2,9.1 4.4,16.1 0.7,-2.2 0.7,-4.2 0.7,-4.2 0,0 2.5,13.8 3,19.5 1,-0.2 2,-0.5 2.2,0.5 0.2,1 2.5,12.1 2,18.3 1.2,-2.2 6.9,-10.9 16.8,-16.8 4,-2.5 8.7,-5.2 13.6,-5.4 7.7,-0.2 13.3,4.9 22.5,4.9 22.2,0 42.3,-16.3 57.1,-21.3 10.9,-3.7 20.3,-6.4 26.9,-12.4 3.2,-2.7 8.9,-8.7 14.1,-17.6 6.9,-11.9 14.1,-22.2 21.3,-23.5 -5.7,1 -9.9,0.7 -9.9,0.7 0,0 2.2,-2.2 5.9,-5.2 3.7,-3 8.2,-6.7 14.6,-6.7 11.4,0 17.1,1.7 23.5,1.7 6.4,-0.2 10.1,-1.7 10.1,-1.7 0,0 6.7,4.7 21.8,4.7 15.1,0.2 25.2,1.5 33.1,2.2 7.9,0.7 34.4,-2.2 42,-2 7.9,0.2 14.3,3.5 14.3,3.5 L 847,415.3 759,338.4 706.6,375.5 626,456.1 548,485 531.7,503.3 v 27.9 z"
       clip-path="url(#SVGID_2_)"
       id="path46" />
    <path
       class="st18"
       d="m 706.5,490.4 c 0,0 2.2,-2.2 5.9,-5.2 3.7,-3 8.2,-6.7 14.6,-6.7 11.4,0 17.1,1.7 23.5,1.7 6.4,-0.2 10.1,-1.7 10.1,-1.7 0,0 6.7,4.7 21.8,4.7 15.1,0.2 25.2,1.5 33.1,2.2 7.9,0.7 34.4,-2.2 42,-2 7.9,0.2 14.3,3.5 14.3,3.5 L 860.7,454.8 847.8,430.3 811,390 c 0,0 -44.2,-26 -44.5,-26.2 -0.2,-0.2 -15.3,-4.2 -15.3,-4.2 l -40,24.2 -36.3,93.9 -0.7,19.8 23.5,11.1 c 5.9,-9.9 12.4,-17.8 18.5,-18.8 -5.5,0.6 -9.7,0.6 -9.7,0.6 z"
       clip-path="url(#SVGID_2_)"
       id="path48" />
    <path
       class="st19"
       d="m 706,497.1 c -3.5,0.2 -6.4,-0.5 -7.2,-3 -3,-8.4 -5.4,-9.6 -7.9,-9.6 -2.5,0 -5.9,5.4 -7.9,5.9 -2,0.5 -4.4,-6.2 -4.4,-6.2 l -2.2,-1 c 0,0 -12.9,8.4 -22,18.3 -9.1,9.9 -24,26.7 -30.7,29.7 -6.7,3 -29.7,4 -37.6,5.7 -7.9,1.7 -16.6,7.4 -17.8,8.7 -1.2,1.3 3.5,2.7 4.2,4 0.7,1.2 -7.7,0.7 -8.4,2 -0.5,1 2,6.7 3.2,9.6 2.2,-1 4.4,-1.7 6.9,-1.7 7.7,-0.2 13.3,4.9 22.5,4.9 22.2,0 42.3,-16.3 57.1,-21.3 10.9,-3.7 20.3,-6.4 26.9,-12.4 3.2,-2.7 8.9,-8.7 14.1,-17.6 3.8,-6.1 7.5,-11.8 11.2,-16 z"
       clip-path="url(#SVGID_2_)"
       id="path50" />
    <path
       class="st20"
       d="m 387.6,992 c 0,0 -2,-7.4 -20.3,-26.5 -5.2,-5.4 -8.4,-9.9 -11.9,-13.1 -8.7,-8.2 -13.8,-10.4 -20,-15.1 -13.6,-10.1 -28.4,-10.1 -39.8,-22.5 -11.4,-12.4 -24.7,-36.1 -33.9,-60.3 -9.1,-24.2 -11.6,-31.9 -11.6,-32.6 0,-0.7 2.5,-5.4 5.7,-4.7 3.2,0.7 3.2,6.9 4,8.4 0.2,0.5 2.5,3.7 5.4,6.9 4.7,5.4 11.4,11.9 14.8,21.5 -0.7,-8.2 -3.5,-17.3 -3.5,-17.3 0,0 17.6,11.1 32.6,22.7 15.1,11.6 21.3,15.6 25.7,23 4.4,7.4 14.8,26.9 19.8,32.6 5,5.7 73.2,27.2 73.2,27.2 l 32.4,24.2 16.1,35.3 -12.6,19.8 -24.2,5.2 -39.3,-17.6 z"
       clip-path="url(#SVGID_2_)"
       id="path52" />
    <path
       class="st21"
       d="m 300.3,870.4 c 0,0 8.2,13.1 28.2,25.5 18,10.9 46.5,20.8 71.9,26.7 14.6,3.5 29.2,6.2 42.3,6.4 35.3,0.5 59.6,-9.6 89.7,-12.9 16.3,-1.7 36.3,-3 57.1,-7.9 26.7,-6.4 42.5,-13.6 64,-23.7 15.6,-7.2 29.9,-12.6 41.5,-19.5 16.3,-9.6 28.2,-20.3 42,-23.5 -1.7,4.7 -3.5,13.1 -17.1,21.8 7.2,-0.2 17.1,-0.7 17.1,-0.7 0,0 -9.6,5.7 -26.5,18.5 -10.4,7.9 -24.2,21.3 -38.3,30.2 -9.1,5.7 -19,9.9 -25.5,13.3 -15.8,8.7 -22.2,13.1 -32.6,23.7 3.7,-0.2 4,0 4,0 0,0 -13.1,1.7 -22.5,6.7 -2,0 -5.4,-0.7 -11.4,1 -4.7,1.5 -10.9,4.9 -17.3,6.7 -9.1,2.7 -12.1,1.5 -12.1,1.5 l 1.5,3 c 0,0 -11.9,-0.2 -15.8,0.2 0.7,0.2 0.5,0.5 0.5,0.5 0,0 -0.5,0 -2,0.7 -1.2,0.7 -3.2,2 -6.2,2.7 -1.2,0.2 -2.2,0.2 -3.7,0.5 0.5,1.2 4.4,7.9 6.2,11.9 -1.5,1 -24,18 -24,18 0,0 1,1.5 1.7,3.5 0.7,2.2 1,5.4 1.7,6.9 1.7,3 2.7,3.5 2.7,3.5 0,0 -2.7,0.5 -7.4,1.7 -4,1 -8.9,2.7 -15.8,3.7 -2,0.2 -4.2,0.5 -6.4,0.5 1,2.2 5.4,10.6 -2.7,20.3 -8.2,9.6 -10.6,11.1 -13.1,17.3 -0.7,-0.5 -2,-1.5 -4,-2.5 -2.7,-1.2 -6.4,-3 -7.7,-5.4 -0.2,1 -1.2,4.9 -3,9.4 -2.5,6.7 -6.2,13.3 -6.9,18.3 -2.7,-3 -7.7,-8.9 -14.6,-7.7 -6.9,1.2 -12.4,10.6 -13.6,13.3 0,-1.7 -1.2,-3 -1.5,-1 -0.2,2.2 -4,25.2 -25.2,43.8 -0.2,-4.7 -0.2,-15.1 -0.7,-18.5 -2,2 -4.4,4.9 -18.8,11.1 -14.1,6.2 -11.9,12.4 -11.9,12.4 0,0 -1.2,-9.9 6.4,-20.3 7.7,-10.4 12.4,-15.3 12.4,-16.1 0,-0.2 -0.2,-1.2 -1,-2.2 -1,-1 -3,-2.2 -3,-3 1.2,-0.5 13.1,-6.2 12.4,-18 -0.7,-10.6 -5.2,-16.1 -8.4,-20 -0.5,-0.5 4.7,-4.2 4,-5.4 -0.5,-0.7 -6.9,-5.4 -7.7,-7.9 0.2,-1.2 0.5,-3.2 1,-4.4 0.7,-2.2 1.2,-3.7 1,-5.2 -0.5,-2.5 -3.2,-9.4 -4,-10.1 0.7,0.2 5.7,0 5.7,0 0,0 -4,-6.4 -4.7,-9.4 -0.7,-3 -2.2,-10.9 -3,-12.4 1.7,0.2 5.9,0.5 5.9,0 0.2,-1.5 -3.7,-4 -2,-5.9 1.2,0.2 3.5,1.2 5.7,4 -1.2,-3.2 -3.2,-9.4 -7.4,-11.9 2,-0.7 8.7,-2.5 14.6,1 5.9,3.5 7.9,8.4 7.9,8.4 0,0 3.5,2.7 8.9,6.7 6.2,4.9 14.1,11.9 26.7,16.8 2.7,1.5 9.6,1.5 14.6,0.5 3,-0.7 4.7,-1.7 6.2,-2.5 1.2,-0.7 2.2,-1 2.2,-1 0,0 -2,-4 -3.7,-6.2 1.7,0 3.7,0.2 3.7,0.2 0,0 1.2,-2.7 -4.2,-7.9 1.2,-1.2 2.7,-2 2.7,-4 -1.7,-0.2 -4.7,-2.7 -5.4,-3.7 1,-0.7 2.5,-3 4.2,-3.7 -1.5,-1.2 -5.2,-6.2 -6.9,-6.7 1.7,-0.5 4.7,-2.2 4.7,-2.2 0,0 -8.4,-2.2 -11.1,-4 -2.7,-2 -6.7,-5.4 -9.1,-6.4 -2.5,-1 -6.9,-1.5 -8.7,-3.5 1.7,0.5 4.4,0 6.4,0 1.5,0 2.2,0.2 2.7,0.2 -0.2,-0.7 -0.2,-2.2 3.7,-2.7 3.7,-0.7 5.4,-1.7 5.4,-1.7 0,0 -3.7,-0.2 -7.9,-4.2 -4.2,-4 -7.7,-7.2 -10.1,-7.7 -2.5,-0.5 -7.2,1.7 -10.1,1.5 -4,-0.5 -5.7,-2.5 -5.7,-2.5 0,0 -13.3,1.2 -42.8,-16.8 -25.5,-15.6 -36.6,-29.4 -36.6,-29.4 0,0 -3,-1 -6.9,-3.2 -9.6,-5 -22.9,-15.4 -22.5,-29 z"
       clip-path="url(#SVGID_2_)"
       id="path54" />
    <path
       class="st22"
       d="m 668.2,270.2 c 0,0 3.5,1 5.9,4 4.7,5.4 7.7,15.6 -3,26.5 4.2,1.5 5.9,2 9.6,1.5 -3.7,4.4 -12.1,13.8 -12.6,22 -0.5,6.7 3.7,8.7 3.7,8.7 0,0 -6.4,7.4 -6.7,19.8 1.5,-1.7 4.9,-5.4 9.9,-9.4 7.4,-5.9 17.6,-12.6 24.5,-16.8 -0.2,2.7 0.7,5.2 0.7,5.2 0,0 12.9,-10.6 23.7,-5.9 4.9,2.2 2.7,9.1 2.7,9.1 0,0 6.7,-2.5 11.4,2.2 4.7,4.7 11.4,16.8 14.8,21.5 1.5,2.2 5.4,6.4 9.4,12.9 4.7,7.7 9.9,18.3 13.6,28.7 0.2,-5.2 1.5,-13.3 16.3,-8.2 14.8,5.2 31.6,16.1 45.7,37.6 14.1,21.5 17.6,45.7 24.7,54.9 7.2,8.9 14.6,23.7 15.1,29.9 0.5,6.2 -2.2,26.2 12.6,80.3 4.2,-16.8 10.6,-54.1 10.6,-54.1 l 3.5,-32.9 4,-101.8 -106.3,-88.3 -83.1,-60.3 -54.1,5.2 z"
       clip-path="url(#SVGID_2_)"
       id="path56" />
    <path
       class="st23"
       d="m 865.7,421.7 c 0,0 -1.5,-9.9 -26.5,-26.7 -25,-16.6 -44.5,-16.6 -62.5,-30.7 -13.8,-11.1 -28.2,-36.6 -37.6,-45 C 730,311 728.5,287 728.5,287 l 30.7,-25.7 45.7,-66 38.6,-42.5 18.5,25.7 25.7,30.2 14.3,60.6 5.2,88.7 z"
       clip-path="url(#SVGID_2_)"
       id="path58" />
    <path
       class="st24"
       d="m 896.6,528 c 0,0 1.7,-19.3 -4.9,-39.8 -6.6,-20.5 -21,-56.9 -27.7,-70.5 -2.7,-15.1 -0.7,-16.3 2.2,-18 3,-1.7 13.8,-7.9 19.8,-29.7 5.9,-21.8 24.5,-22.5 24.5,-22.5 l 11.4,-8.4 17.3,43.3 15.1,39.1 4.7,29.9 3.5,25.5 -8.2,53.9 -40.5,36.6 z"
       clip-path="url(#SVGID_2_)"
       id="path60" />
    <path
       class="st25"
       d="m 321.1,1204.6 c 0,0 -9.1,-16.8 -9.6,-24 -0.2,-6.9 2.5,-11.4 2.5,-11.4 0,0 -3.5,-5.2 -6.7,-6.4 0.7,-3.5 2,-7.7 4.7,-10.6 2.7,-3.2 7.9,-7.4 8.9,-8.9 1,-1.5 1.5,-3.5 4.4,-4 3,-0.5 6.2,-0.5 6.2,-4.4 v -7.2 c 0,0 1.2,-0.7 2.2,-2 0.7,-1 1.2,-2.2 1.7,-2.5 1,-0.5 5.7,-2 8.2,-1.5 2.5,0.5 9.1,3.2 12.6,3 7.2,-0.2 15.6,-5.7 28.9,-3.2 20,3.7 24.7,17.3 36.3,25 7.9,5.4 16.1,3 17.3,3 h 2.7 c 0.5,0 4.2,-4.2 6.2,-4 4,0.2 4.4,3.5 6.9,3.7 5.9,0.7 17.3,-3 23,-1.5 2.7,0.7 6.2,3.5 7.2,7.2 1.2,3.7 0.2,8.4 -2.7,11.1 -6.2,5.7 -12.1,11.1 -13.3,15.8 1.7,1.2 4.7,4 4.7,4 0,0 -2.7,2.5 -7.7,4.9 -2.2,1 -5.7,2.7 -9.6,3.2 -7.4,0.7 -16.6,1.7 -22,9.6 -5.4,7.9 -24,3.5 -24,3.5 z"
       clip-path="url(#SVGID_2_)"
       id="path62" />
    <path
       class="st26"
       d="m 864,929 c 0,0 15.6,-20.8 21,-31.1 5.4,-10.6 -17.1,-145.1 -17.1,-145.1 l 45.2,-148.1 -1.2,-48.2 c 0,0 2.2,-44.5 7.4,-63.8 6.2,11.1 25.5,24.5 29.7,31.6 2,-13.6 8.7,-42.3 7.7,-72.9 3.7,5.7 12.6,63 12.6,63 l 8.9,38.6 11.6,41 12.9,43.3 7.7,29.9 4.4,7.2 3.7,12.6 3.5,13.6 10.1,31.9 5.9,26.2 4.7,47.5 c 0,0 1.7,5.9 2.2,11.1 0.2,5.2 -0.7,8.2 -0.7,9.1 0,1 1.7,11.4 1,19.3 -1,7.9 -1,14.1 -7.2,19.8 -6.2,5.7 -10.1,39.6 -10.1,39.6 l -11.1,-7.4 c 0,0 2.2,-10.1 -3,-19.3 -5.2,-9.1 -15.3,-11.1 -21,-9.6 -5.7,1.2 -17.1,3 -20.8,6.2 -3.5,3.2 -12.1,13.1 -20,17.6 -9.9,5.9 -26,6.4 -34.6,8.4 -8.7,2 -18.3,7.9 -28.4,14.8 -10.5,6.8 -21.1,11.7 -25,13.2 z"
       clip-path="url(#SVGID_2_)"
       id="path64" />
    <path
       class="st27"
       d="m 864,1147.5 c 0,0 8.7,5.7 24.7,9.6 16,3.9 56.9,27.4 56.9,27.4 l 34.4,21 42.5,3.2 37.3,-5.2 c 0,0 1.2,-15.8 -1.2,-74.7 -2.5,-59.1 -4.4,-67.5 -4.4,-71.9 0,-4.4 -1.5,-79.4 -3.2,-95.7 -1.7,-16.3 -0.5,-32.9 -1,-42.5 -0.5,-9.6 -5.9,-48.7 -8.4,-58.8 -2.7,-10.1 -7.9,-15.1 -8.7,-15.1 -0.7,0.2 -4.9,19 -4.9,23.7 0,4.7 -1,16.1 -1,19 -0.7,-0.2 -1,-2 -1,-2.7 -1,2.5 -2.2,6.9 -2.7,7.4 -0.5,0.5 0.7,-4.2 0,-5.2 -0.7,-1 -2,-0.5 -1.7,-3 0.2,-2.5 0.7,-4.4 0.7,-4.4 0,0 -3,4.4 -5.2,15.6 -2.2,11.1 -2.2,11.4 -3,12.4 -0.7,1.2 -4.7,5.2 -4.9,6.7 -0.2,2.7 3.7,5.4 4,6.9 0.2,2.5 -3.5,14.1 -4.7,19.8 -1.2,5.7 -0.7,16.8 -2,22.5 -1,5.2 -2,8.2 -5.4,10.4 2.5,0.5 4.9,1.2 4.9,1.2 0,0 3.5,14.8 -5.4,27.4 -3.2,4.4 -4,6.4 -7.4,10.4 -6.7,7.4 -11.9,15.8 -12.4,21.3 -0.5,-2 -0.7,-4.9 -0.7,-4.9 0,0 -10.4,12.1 -14.8,19 -5.7,8.9 -13.6,8.4 -15.8,10.6 -2.2,2.2 -2.7,6.2 -2,9.4 -2,0.5 -5.7,1.2 -8.2,8.9 -1.2,4 -4.2,7.9 -8.9,10.6 -4.7,2.7 -10.4,3.5 -13.3,4.2 2.5,0.7 3.5,0.7 4.7,1.5 -1.5,2.5 -8.4,6.4 -16.1,11.4 -7.7,4.7 -11.4,11.6 -13.3,16.1 -2,4.2 -4.9,6.9 -9.6,7.4 2,1.2 4.9,4 6.4,4.9 -2.2,0.5 -5.9,0.5 -12.6,6.2 -7,5.8 -9.4,7.5 -12.6,8 z"
       clip-path="url(#SVGID_2_)"
       id="path66" />
    <path
       class="st28"
       d="m 715.4,1202.9 c 0,0 6.2,-9.6 21.8,-15.6 15.6,-6.2 32.1,-7.4 38.6,-9.4 6.2,-2 11.1,-4.7 18.8,-6.2 -0.7,5.9 -1,10.6 -2.7,14.6 5.7,1 20,-10.1 27.7,-12.6 7.7,-2.5 25.2,-6.2 26.7,-7.4 1.5,-1.2 4.7,-8.4 5.7,-8.7 1,-0.2 3.7,1.5 5.4,1.5 3.2,0 25.7,-20.8 43.5,-20.5 17.6,0.2 37.6,14.8 34.6,27.9 4.7,-2.7 9.6,-5.2 13.6,-4.2 -0.5,1.7 -0.7,3.7 -0.7,3.7 0,0 9.6,-2.2 12.1,1 2.7,3.2 1.2,6.2 7.7,13.8 5.2,6.4 3.7,7.9 2.7,10.1 2.5,0.7 14.8,4.9 26.2,15.6 11.4,10.6 -91,4 -91,4 l -188.9,-1.7 z"
       clip-path="url(#SVGID_2_)"
       id="path68" />
    <path
       class="st29"
       d="m 1012.5,783.6 c 0,0 -3.2,17.3 -8.9,28.2 -5.7,10.9 -11.9,26 -11.9,26 0,0 0,-5.4 1.2,-10.1 -7.2,4.2 -24.7,14.3 -29.7,18.8 -4.7,4.2 -12.6,11.6 -14.6,15.1 4.7,-13.8 9.6,-26.2 10.4,-31.9 -7.2,5.2 -40.8,32.9 -58.3,51.2 L 846.2,925 c 0,0 -8.4,4.7 -19.3,9.1 -9.4,4 -20.5,7.4 -28.7,10.6 2.2,-5.9 5.7,-11.1 10.6,-16.1 5.2,-4.9 20.8,-21.8 23.2,-29.7 2.2,-8.2 2.7,-13.1 -0.2,-20 -2.7,0.7 -8.9,1 -13.1,2.2 -4.2,1.2 -8.7,5.7 -8.7,5.7 0,0 3.2,-18.3 10.1,-35.6 -5.2,0.2 -14.1,1.7 -14.1,1.7 0,0 12.4,-20.8 33.6,-35.3 -3.5,0.7 -11.4,2.7 -19,5.9 -12.4,5.2 -26,12.9 -36.1,17.1 5.7,-7.9 45.7,-65 69.5,-118.2 23.7,-53.1 32.6,-66.7 37.8,-95.2 2.7,-14.1 2,-34.9 2.7,-53.6 0.7,-18.5 3,-35.1 1.5,-46.2 6.2,7.7 29.4,29.4 30.2,77.9 0.7,48.5 -22.2,114 -46.5,149.3 5.9,1.7 21.3,3.7 37.1,-23.7 15.8,-27.4 15.6,-35.1 21.3,-46.5 0.7,5.7 0.5,7.7 0.5,7.7 0,0 23,-27.9 33.9,-63 2.2,15.1 8.7,28.4 -1.5,56.1 -9.1,25 -21,31.1 -21,31.1 0,0 5.9,-1 14.6,-6.2 1.5,3.7 1.2,7.9 3.7,9.4 2.5,1.5 5.9,4 6.4,6.4 2.7,-4 6.9,-9.1 8.2,-12.9 -1,7.9 -1.7,42.5 2,60.1 7.7,-0.7 15.6,-1.2 21,-15.1 -3.7,13.6 -3.7,21.8 -1.2,33.4 4.1,-2.8 7.8,-7.8 7.8,-7.8 z"
       clip-path="url(#SVGID_2_)"
       id="path70" />
    <path
       class="st30"
       d="m 752.7,232.4 c 0,0 -7.7,3.2 -20.8,3.2 -11.4,0 -8.2,-4.4 -26,-4.4 -27.4,0 -123.1,15.8 -139.9,15.6 -10.9,-0.2 36.8,4.7 36.8,4.7 l 121.9,1.7 24.5,-2 9.1,-18.5 z"
       clip-path="url(#SVGID_2_)"
       id="path72" />
    <path
       class="st31"
       d="m 436.6,470.7 c 0,0 -15.6,11.9 -22.2,21 -6.7,9.1 -10.1,15.1 -17.6,22.5 2.5,0.2 5.2,-0.7 5.2,-0.7 0,0 0,2 -1.2,2.5 2.5,-0.2 4.4,0.7 5.7,2 -2.2,1.2 -8.2,7.2 -3.5,14.3 3.5,5.4 10.9,5.9 10.9,5.9 0,0 -1.7,4.9 5.4,4.4 15.3,-0.7 32.4,-7.4 40.3,-5.7 7.9,2 12.4,2.7 18,12.4 5.9,9.6 11.1,11.1 11.1,11.1 0,0 3.5,-8.9 2.7,-22.2 4.7,-11.4 4.7,-22.5 4.7,-22.5 l -5.2,-38.3 -22.7,-28.7 -29.4,16.3 z"
       clip-path="url(#SVGID_2_)"
       id="path74" />
    <path
       class="st32"
       d="m 464.5,465 c 0,0 2.2,5.2 11.4,5.7 -1,2.2 -1,2.5 -0.7,4.2 0.2,1.7 0.5,4.2 0.5,4.2 0,0 1.2,-0.5 2.7,-2 0.5,2.2 -0.5,5.7 0,8.2 0.5,2.5 1.5,4.4 1.5,4.4 0,0 0.2,-0.5 0.5,-1 0.2,-0.5 2,5.4 6.9,9.9 0,-1.2 0.5,-2 0.5,-2 0,0 0,1.7 1.2,3.5 -0.5,-0.2 -1,-0.7 -1,-0.7 0,0 0.5,15.8 3.2,24 0.7,-1 1,-1.2 1.2,-1.7 0,-0.5 -0.2,4.4 -0.7,7.9 -0.7,3.5 -0.2,8.4 -0.2,8.4 0,0 2.7,-2.2 5.9,-3.5 3,-1.2 7.9,-4.9 10.9,-13.1 3,-8.2 4,-14.3 4,-14.3 0,0 1.7,3.2 2,5.9 0.2,2.5 4.9,1.2 4.9,1.2 l 1,-10.9 5.9,-24.7 5.4,-15.3 26,-40.5 47,-36.1 41,9.4 34.6,-47 -59.6,-35.8 -56.4,5.9 -51.2,70.9 -41,64.3 z"
       clip-path="url(#SVGID_2_)"
       id="path76" />
    <path
       class="st33"
       d="m 759.9,362.4 c 0,0 -3.5,0.7 -13.6,5.9 -10.1,5.2 -17.1,6.9 -21,14.6 -4,7.7 -4.2,13.8 -4.2,13.8 0,0 6.9,-3 10.9,-4 4.2,-1 8.9,-0.7 8.4,1 -0.5,1.5 -2,3.2 -2,3.2 0,0 7.9,-0.2 7.7,3.7 -0.2,4 -1.5,8.2 -3,10.1 -1.5,2 -7.7,4.9 -8.4,7.2 -1.7,4.7 0.7,4.9 -0.2,8.7 -0.7,3.7 -4,10.9 -14.8,23.5 -11.1,12.6 -15.8,21.5 -15.8,21.5 0,0 -5.4,-10.1 -8.2,-18.8 -2,1 -12.6,6.9 -12.6,6.9 L 658.5,374 659,368.3 c 0,0 2.2,-2.7 2.7,-7.7 -3.7,-1.2 -4.2,-2.2 -9.1,-6.9 -4.9,-4.7 -8.9,-10.4 -17.1,-14.3 -1.2,-2.2 -2.7,-5.2 -8.7,-6.4 -5.9,-1.2 -9.6,-2.2 -9.6,-2.2 0,0 3.2,-1.2 4.7,-3.7 -3.7,0.5 -6.7,1.7 -14.8,1.5 -8.2,-0.2 -9.1,-0.5 -13.6,0.2 -4.5,0.7 -9.9,2.7 -11.9,-4.2 -2.2,-1.7 -6.9,-0.2 -10.9,5.7 -4,5.9 -5.4,10.6 -13.1,12.9 -0.2,1.5 -1,5.4 -3.5,9.6 -2.2,3.7 -5.7,7.4 -10.4,12.9 -7.4,8.7 -6.2,23 -18,33.9 -11.9,10.9 2,-30.2 2,-30.2 l 19,-45.5 54.1,-52.9 84,-5.7 8.2,43.5 41,14.1 z"
       clip-path="url(#SVGID_2_)"
       id="path78" />
    <path
       class="st22"
       d="m 773.2,372 -35.3,-50.9 -24.7,-19 c 0,0 -17.6,-32.4 -18.8,-33.4 -1,-0.7 -17.6,-2.5 -28.2,-3.2 l 2,4.9 c 0,0 3.5,1 5.9,4 4.7,5.4 7.7,15.6 -3,26.5 4.2,1.5 5.9,2 9.6,1.5 -3.7,4.4 -12.1,13.8 -12.6,22 -0.5,6.7 3.7,8.7 3.7,8.7 0,0 -6.4,7.4 -6.7,19.8 1.5,-1.7 4.9,-5.4 9.9,-9.4 7.4,-5.9 17.6,-12.6 24.5,-16.8 -0.2,2.7 0.7,5.2 0.7,5.2 0,0 12.9,-10.6 23.7,-5.9 4.9,2.2 2.7,9.1 2.7,9.1 0,0 6.7,-2.5 11.4,2.2 4.7,4.7 11.4,16.8 14.8,21.5 1.5,2.2 5.4,6.4 9.4,12.9 4.7,7.7 9.9,18.3 13.6,28.7 0.2,-4 1,-9.6 7.9,-9.6 z"
       clip-path="url(#SVGID_2_)"
       id="path80" />
    <path
       class="st34"
       d="m 244,516.6 c 0,0 -2.5,-6.2 0,-18.3 2.5,-12.1 6.4,-17.8 7.7,-35.6 1.2,-17.8 12.9,-40 12.9,-40 l 32.1,-14.6 22.7,6.2 6.7,30.4 -28.7,15.8 c 0,0 -1.5,6.7 -9.6,12.1 -8.2,5.4 -19.3,9.6 -22,15.1 -2.7,5.7 -3.5,10.6 -3.5,10.6 0,0 -8.2,-1.7 -13.1,3.7 -5.2,5.5 -5,10.4 -5.2,14.6 z"
       clip-path="url(#SVGID_2_)"
       id="path82" />
    <path
       class="st35"
       d="m 308.8,508.5 c 0,0 -2.7,1.7 -4.7,5.9 -2,-3.2 -6.7,-22.2 -6.9,-39.3 -0.2,-17.1 -1.2,-21.3 2.7,-27.2 4,-5.9 19.5,-12.1 17.3,-22.7 -2.2,-10.1 -11.4,-14.3 -22.7,-11.4 -7.9,2 -13.8,18.8 -22,27.2 -6.2,6.4 -13.6,5.4 -15.6,8.9 -2.7,4.7 -0.2,9.4 -1,12.4 -0.2,1 -2.7,6.4 -7.2,12.9 -9.1,13.1 -24.5,31.6 -26.5,48.2 0.7,-9.4 0.2,-9.6 2.7,-20 l -1.5,-2.5 9.9,-32.4 6.4,-26.7 14.3,-44.7 25.2,-45.7 24.5,-27.4 25.5,1.7 3,38.3 14.6,71.9 30.7,37.8 -49.2,33.1 z"
       clip-path="url(#SVGID_2_)"
       id="path84" />
    <path
       class="st36"
       d="m 324.1,522.1 c 0,0 -4.2,1 -5.7,0.2 -1.5,-0.7 -3,-1.7 -2.5,-2.7 0.5,-1 3.2,-2.7 3.2,-3.5 0,-0.7 -0.2,-2.7 -2.5,-3 -2.3,-0.3 -3,1.2 -3,1.2 0,0 -2.2,-1.7 -4,-2 1.5,-0.2 3.2,-0.2 3.2,-0.2 0,0 -4.2,-2 -8.7,-2.5 2.5,-1.5 7.4,-5.9 10.6,-5.9 3.2,0 5.2,-0.5 4.7,-2.2 -0.5,-1.7 -3,-4.2 -5.7,-5.2 1,-1.2 1.7,-3 -0.7,-7.9 -2.5,-4.9 -1.5,-8.2 -0.7,-9.4 0.7,-1.5 3.2,-4.2 4.4,-5.9 1.2,-1.7 2.2,-4 4.2,-5.2 1,-0.7 4.2,-2 7.4,-3.2 3.5,-1.2 6.4,-2.7 8.4,-1.2 2.2,1.5 1.2,3.5 1.2,3.5 0,0 6.9,-2.5 13.1,0.7 6.2,3 21.3,4.9 21.3,4.9 l 5.4,10.9 -35.8,30.7 -14.8,7.4 z"
       clip-path="url(#SVGID_2_)"
       id="path86" />
    <path
       class="st37"
       d="m 373.8,471.9 c 0,0 -11.1,7.4 -13.6,10.1 1.5,0.2 4,1.2 3,2.7 -1.2,1.5 -8.4,6.7 -12.4,11.6 -4.2,4.9 -8.2,11.1 -9.6,14.1 -1.5,2.7 -12.9,10.6 -16.8,11.6 8.2,0 24.7,-10.1 30.9,-10.1 -0.2,3 1.7,6.4 5.2,6.7 3.5,0.2 13.6,2.2 27.2,-6.2 13.6,-8.2 9.1,-14.3 14.8,-18.3 10.9,-7.2 15.3,-13.6 21.3,-17.6 5.9,-4 9.1,-4.9 9.1,-4.9 0,0 0.2,-3 2,-2.7 1.7,0.2 2.2,1.7 2.2,1.7 0,0 10.4,-7.4 23.7,-9.4 -0.5,-0.2 -0.7,-0.7 -0.7,-0.7 0,0 1,-0.5 1.2,-1 0,0 0.7,-1 1.2,-0.5 0.5,0.5 1.2,4.2 2.2,5.7 2.2,-1 6.4,-10.4 6.4,-10.4 l 10.1,-28.9 V 399 l -7.9,1.5 -59.3,25.2 -36,37.3 z"
       clip-path="url(#SVGID_2_)"
       id="path88" />
    <path
       class="st38"
       d="m 544.6,342.4 c 0,0 5.2,-1.2 9.1,-3.7 -1.2,3.2 -1.2,6.7 -6.4,14.3 -5.2,7.7 -5.4,8.7 -9.6,16.6 -4.2,8.2 -4.7,20 -8.7,25.2 3.2,-1.5 5.7,-1.7 5.7,-1.7 0,0 -4,3.5 -5.7,7.2 -1.7,3.7 -4.7,11.4 -12.1,16.1 -7.4,4.7 -16.8,7.7 -26.9,18.8 -10.1,10.9 -20.5,24.7 -25.7,29.7 2.7,-4.7 6.4,-14.1 7.4,-20.3 1,-6.2 -0.2,-13.6 1.5,-21.8 1.7,-8.2 1.7,-14.1 9.9,-28.4 8.2,-14.3 22.2,-64 22.2,-64 l 30.2,-9.6 z"
       clip-path="url(#SVGID_2_)"
       id="path90" />
    <path
       class="st39"
       d="m 522.8,324.1 c 0,0 -9.1,13.1 -11.6,24.7 -2.5,11.6 -0.2,10.6 -1.7,16.3 -1.5,5.7 0,10.6 0,10.6 0,0 4,-7.2 12.6,-12.4 8.6,-5.2 15.6,-8.9 19.8,-13.3 4.2,-4.7 7.7,-12.4 16.8,-18.3 -3.7,-0.5 -8.9,-2.2 -9.9,-2 3.7,-4.2 14.8,-10.6 26,-18.3 11.1,-7.9 10.4,-11.1 28.4,-19 -5.9,1 -8.7,-0.5 -13.6,0 2,-4.2 8.9,-6.2 15.8,-13.1 6.9,-6.9 -4.4,-17.1 -4.4,-17.1 l -52.7,31.9 z"
       clip-path="url(#SVGID_2_)"
       id="path92" />
    <path
       class="st40"
       d="m 379.7,300.3 1.2,-9.6 15.1,-24.2 15.8,-42.5 v -58.1 l -1.2,-33.6 2.5,-22 1.9,-7 2,-2.7 12.9,6.7 17.8,24.2 1.7,46.7 -17.3,73.7 -49.4,53.9 z"
       clip-path="url(#SVGID_2_)"
       id="path94" />
    <path
       class="st30"
       d="m 419,97.9 c 0,0 -7.9,0.2 -9.6,33.1 -1.7,32.9 -2.5,50.2 -3.7,66.5 -1.2,16.3 -4,26.2 -5.4,35.8 -1.5,9.6 -2.2,22.7 -6.7,30.7 -2,3.7 -6.2,15.3 -16.1,24 -11.1,9.6 -27.7,16.3 -30.2,16.8 -4.4,1 -26.7,3.2 -35.8,8.2 -3.2,1.7 -8.7,3.7 -14.8,9.4 -12.1,10.9 -28.2,30.4 -39.8,53.9 -17.8,35.1 -35.6,134.2 -35.6,134.2 l 4,-6.7 c 0,0 0.5,-8.9 9.4,-24.5 8.7,-15.6 6.2,-33.1 18.3,-63 4.7,-11.4 10.6,-26.2 17.8,-38.8 11.4,-20.5 25.2,-38.1 39.1,-47.7 22.7,-15.6 47.7,-19 47.7,-19 L 384.5,293 c 0,0 4.7,-9.1 10.9,-19.5 8.7,-14.6 19.8,-30.9 22.2,-54.6 3.7,-35.1 -5.2,-58.1 -4.7,-78.9 0.5,-20.8 0.7,-36.1 4.9,-39.8 4.2,-3.7 1.2,-2.3 1.2,-2.3 z"
       clip-path="url(#SVGID_2_)"
       id="path96" />
    <path
       class="st41"
       d="m 419,254.9 c 0,0 11.9,-29.2 17.3,-55.1 1,-5.2 3,-10.4 3.5,-14.6 2.5,-24.5 3.2,-34.6 0,-48 -2.5,-9.9 -12.1,-18.8 -17.1,-25.7 -4.9,-7.2 -7.2,-9.9 -6.2,-11.4 1,-1.5 4.9,-4 8.7,-3.7 3.7,0.2 13.3,1 21.3,9.9 7.7,8.9 13.8,39.1 13.8,39.1 l 6.4,39.8 16.3,50.2 z"
       clip-path="url(#SVGID_2_)"
       id="path98" />
    <path
       class="st42"
       d="m 530.5,224.5 c 0,0 -2.2,1 -6.2,0 0.2,2 -0.2,5.9 -4,8.4 -4.2,-1.7 -43.5,1.7 -43.5,1.7 0,0 -18.3,-3.2 -24,-27.4 -4,-16.1 3,-38.3 0.7,-52.9 -3.5,-21.5 -8.4,-25.7 -8.9,-32.4 -0.5,-6.7 -1,-8.4 -1,-12.6 -2.2,-0.5 -3.5,-1.2 -5.7,-1.2 -0.5,-2 0.5,-3.7 -1.7,-7.2 1.2,0.5 9.4,1.5 19,10.6 7.9,7.4 7.9,10.1 9.1,11.6 1.5,1.5 13.6,11.9 18.8,22.2 5.2,10.3 15.3,43.3 17.6,48.7 0.7,2.2 2.2,4.4 5.9,9.4 5.8,7.2 14.3,19.1 23.9,21.1 z"
       clip-path="url(#SVGID_2_)"
       id="path100" />
    <path
       class="st30"
       d="m 465.7,123.6 c 3.7,5.9 10.6,17.8 16.3,30.4 5.9,13.3 9.4,24.2 16.8,33.1 -4,-11.6 -11.1,-34.4 -15.3,-42.5 -4.7,-8.6 -14.3,-17.8 -17.8,-21 z"
       clip-path="url(#SVGID_2_)"
       id="path102" />
    <path
       class="st43"
       d="m 397.7,288 c 0,0 -10.1,2.5 -28.9,12.4 -6.2,3.2 -12.1,5.9 -17.8,8.4 -14.8,6.7 -30.7,12.9 -43.3,16.3 1,1.2 1.5,1.7 1.5,1.7 0,0 0,4.9 2.7,7.7 -1.5,1.5 -21.5,15.1 -15.6,60.6 4,-1.5 8.7,-3.5 9.4,-3.5 1.2,0.2 1.5,3.5 3,3.5 1.5,0 6.4,-2 11.6,-8.7 -0.2,2.7 -3.2,29.9 12.9,48.2 3,-3.5 10.6,-15.1 10.6,-15.1 l 0.2,-3.7 c 0,0 0.7,-12.9 4.9,-24.7 4.2,-11.9 12.4,-20.5 12.4,-20.5 l 42.8,-61.1 z"
       clip-path="url(#SVGID_2_)"
       id="path104" />
    <path
       class="st44"
       d="m 357.7,377.7 c 0,0 -3,2.2 -6.4,3.2 -0.7,-2.5 -1.7,-11.1 4.2,-19.5 6.9,-10.1 22,-23.2 26.2,-33.6 2.7,-6.7 1.5,-23.5 25.5,-45 24,-21.5 33.4,-28.9 33.4,-28.9 l 38.8,-19.5 47.7,18.8 -23.7,92.9 -18.4,43.5 -73.2,-13.8 z"
       clip-path="url(#SVGID_2_)"
       id="path106" />
    <path
       class="st45"
       d="m 385.6,352.5 9.1,-11.4 V 333 c 0,0 10.1,-2.7 21,-13.8 10.9,-11.1 26,-32.4 39.3,-31.1 13.3,1.5 14.6,28.9 15.1,36.6 0.5,7.7 2.2,25.2 4.9,34.6 3,9.4 -32.4,45 -32.4,45 l -24,18.3 z"
       clip-path="url(#SVGID_2_)"
       id="path108" />
    <path
       class="st46"
       d="m 413.8,447.4 c 0,0 7.4,-11.6 2,-14.1 3.2,-7.2 9.1,-14.8 9.1,-14.8 0,0 4.2,-10.4 17.8,-23.2 13.6,-12.9 22,-21.3 24.2,-29.9 2.2,-8.7 2.2,-17.1 2.2,-17.1 0,0 2.7,2.2 4.7,3.2 2.2,1 12.6,9.6 11.1,26.9 -1.5,17.3 -7.9,24.5 -7.9,24.5 0,0 -6.2,6.2 -10.6,9.4 -4.7,3.2 -6.4,6.9 -14.3,7.2 1.2,-1 2.7,-1.5 2.7,-1.5 0,0 -8.2,-1 -12.6,3 -4.4,4 -13.8,16.3 -18.5,20 -4.7,3 -9.9,6.4 -9.9,6.4 z"
       clip-path="url(#SVGID_2_)"
       id="path110" />
    <path
       class="st47"
       d="m 746.3,252.9 c 0,0 -15.8,-6.4 -36.8,-7.2 -21,-0.7 -51.7,0.5 -81.8,0.7 -32.4,0.2 -61.8,-11.1 -102.6,-13.1 -6.7,-4 -23.7,-21.5 -76.9,15.6 3.2,-0.2 38.6,-8.2 50.9,7.2 12.4,15.3 8.9,41.3 7.2,47.5 -3.2,13.8 -13.6,33.9 -17.8,48 -4.2,14.1 -3.2,21.5 -6.2,31.4 -3,9.9 -9.6,14.8 -5.7,26.2 5.2,-3.2 7.9,-3.2 16.6,-22.7 8.7,-19.5 6.9,-33.4 21.3,-49.9 14.1,-16.6 37.6,-39.3 46.5,-45 8.9,-5.7 79.8,-42.5 154,-7.4 17.9,-1.9 31.3,-31.3 31.3,-31.3 z"
       clip-path="url(#SVGID_2_)"
       id="path112" />
    <path
       class="st48"
       d="m 478.1,239.3 c 0,0 -0.2,-1.7 -0.5,-2.2 -1.2,-2.5 -2.7,-4 -2.7,-4 0,0 -17.6,-3.2 -26.5,-2.2 -15.6,1.7 -29.7,21 -36.3,30.9 -6.7,9.9 -14.8,25.2 -23.7,33.1 0.2,-1.2 -0.5,-2.2 -0.5,-2.2 0,0 0.5,0.7 -0.5,1.7 -1,1 -1,1.5 -0.5,2 l 1.5,1.5 c 0.5,0 14.3,-6.2 33.1,-23.7 20,-18.3 35.3,-27.7 43.3,-30.9 6.1,-2.8 13.3,-4 13.3,-4 z"
       clip-path="url(#SVGID_2_)"
       id="path114" />
    <path
       class="st49"
       d="m 819.5,164.1 c 0,0 -3.2,4 -7.2,8.4 -8.9,9.4 -20.5,20 -30.4,30.9 -9.4,10.4 -20,18.5 -31.9,32.1 -11.9,13.6 -25.7,28.7 -29.2,33.1 -3.2,4.4 -5.7,11.6 -5.7,15.3 -1.7,-1.2 -3.7,-2.5 -3.7,-2.5 0,0 1,2 3,4.4 2.5,3.5 6.4,7.9 8.4,10.6 3.2,4.4 4.9,9.6 5.2,11.4 1.2,0.2 8.9,1.7 18.5,-14.1 9.6,-15.8 22.2,-33.1 22.2,-33.1 l 20,-29.7 12.6,-25.2 15.8,-28.2 z"
       clip-path="url(#SVGID_2_)"
       id="path116" />
    <path
       class="st30"
       d="m 840,143.9 c 0,0 -12.1,9.9 -16.8,15.8 -4.7,5.9 -15.8,21.5 -15.8,21.5 l 4,-0.5 20.3,-18 7.9,-14.1 z"
       clip-path="url(#SVGID_2_)"
       id="path118" />
    <path
       class="st50"
       d="m 836.3,938.6 c 0,0 -0.2,-8.2 4.4,-13.1 4.7,-4.9 16.6,-12.1 28.2,-39.1 11.6,-26.9 12.9,-33.1 12.9,-33.1 0,0 -20.8,17.8 -33.6,22 3,-6.2 4.7,-10.6 6.2,-13.8 -1.7,-1.5 -8.9,-3.2 -9.6,-4 4,-4 6.2,-13.8 14.3,-20.3 10.4,-7.9 29.4,-21.5 44.2,-33.6 14.8,-12.1 43.8,-40.3 47.5,-48.5 2.2,3.2 2.7,5.2 2.7,5.2 0,0 -14.6,19 -22.2,31.1 -6.7,10.4 -6.2,16.3 -6.2,16.3 l 13.8,-5.9 c 0,0 4,14.8 -14.1,37.3 7.9,-3 11.1,-1.2 15.6,-3.7 -7.4,4.7 -17.6,11.1 -27.2,28.7 -9.4,17.6 -22.2,38.1 -43.8,50.9 -21,13.5 -33.1,23.6 -33.1,23.6 z"
       clip-path="url(#SVGID_2_)"
       id="path120" />
    <path
       class="st51"
       d="m 782.1,263.3 c 0,0 -8.2,17.1 -9.4,30.4 -0.2,3.2 -1,5.7 -1,9.4 -0.2,11.9 0.7,25.2 -2,31.4 -1,-2.5 -1.5,-4.2 -2.5,-5.2 -1.5,4.2 -4.2,17.3 -6.4,22.2 -1,-3.2 -3.2,-14.3 -3,-27.4 0.2,-13.1 0.5,-15.6 0.5,-18.3 -0.5,4 -3.2,9.4 -4.2,12.6 -1.5,-2.7 -3.2,-6.2 -5.2,-9.1 -1.2,2 -2.7,4.9 -4,6.4 -0.2,-1.2 -0.7,-4.4 -1,-8.9 -0.2,-5.2 -0.5,-11.9 -0.2,-13.3 0.5,-2.7 4.7,-13.3 13.6,-23 10.6,-11.6 21.5,-33.9 24.7,-40.8 3.2,-6.9 16.8,-35.6 16.8,-35.6 h 10.4 l -15.1,34.4 c 0,0 -9.1,18.8 -13.8,25.7 -4.7,6.9 -14.6,26.7 -19,34.4 3.2,-4.2 5.9,-6.4 9.1,-10.4 3.1,-2.8 11.7,-14.9 11.7,-14.9 z"
       clip-path="url(#SVGID_2_)"
       id="path122" />
    <path
       class="st52"
       d="m 840.2,142.6 c 0,0 -2,7.2 -7.9,14.3 -6.2,7.4 -19.5,17.3 -26,25.2 -5.9,7.7 -17.8,28.7 -12.4,53.6 2,-5.4 5.7,-16.1 15.6,-28.2 9.9,-12.1 20.5,-26 25.7,-36.8 5.2,-10.9 5.9,-19.5 5.9,-19.5 l 2,-2.5 -1.2,-5.7 z"
       clip-path="url(#SVGID_2_)"
       id="path124" />
    <path
       class="st30"
       d="m 1042.7,805.9 c 0,0 -4,-10.9 -5.2,-20.8 -1.2,-9.9 2,-11.9 -1.7,-23.2 -2.2,-6.9 -6.2,-5.9 -7.2,-6.9 -1,-1 -1.7,-11.4 -1.5,-17.1 0.2,-5.7 -0.2,-13.1 -1.2,-16.3 -1.5,-1.2 -2.5,-2.2 -4.7,-9.6 -2.5,-7.4 -3.7,-11.1 -4.9,-13.3 -1.2,-2.2 -4.7,-4.2 -4.7,-6.4 0,-4.4 4,-6.7 4,-7.9 -0.2,-2.5 -3.2,-0.5 -4,-1.2 -1,-1.2 2.5,-8.4 1.2,-9.4 -0.5,-0.5 -4,3.7 -4.9,2.5 -1,-1.2 -2.2,-13.1 -4,-21 -1.7,-7.7 -3.5,-13.3 -3.7,-15.6 -0.2,-2.2 -13.8,-41 -17.1,-50.4 -3.2,-9.4 -5.7,-19.5 -6.7,-24.2 -1,-4.7 -1.7,-14.3 -2.2,-13.3 -0.5,1 -0.2,5.9 -1,5.7 -0.7,-0.2 -3.2,-17.3 -4,-20 -0.7,-2.7 -4.9,-11.9 -5.9,-18.5 -1,-6.7 -3.2,-24.2 -4.7,-36.1 -1.5,-11.9 -2.2,-16.8 -2.2,-19.8 0,-1.5 0.5,-10.1 -1.2,-21.8 -2,-12.6 -5.9,-27.9 -9.4,-36.8 -6.7,-16.8 -24.5,-59.8 -27.7,-70.5 0,-2.7 3.5,-1.2 3.5,-1.2 0,0 8.7,21.8 15.1,38.6 6.2,16.8 12.1,31.6 13.6,33.1 1.2,1.5 10.6,18 14.8,45 4.2,27 5.7,51.9 8.2,68.5 1.2,7.9 2.2,16.3 4.7,24.7 2.7,9.1 6.9,18.5 12.4,32.9 4.7,12.1 8.2,22.2 10.1,30.9 2.2,11.1 2.2,19.5 3.5,25 1.2,4.7 3,14.1 7.2,27.7 4.2,13.6 10.4,31.1 14.6,42 8.2,21.8 11.9,40 13.1,49.7 1.1,10 4.8,44.6 3.8,55 z"
       clip-path="url(#SVGID_2_)"
       id="path126" />
    <path
       class="st53"
       d="m 840.7,141.4 -0.5,1.2 c 0,0 1.5,0.5 1.2,2.5 0,1 0,4.9 -0.5,8.2 -0.5,3.5 -1.5,6.2 -1.7,8.4 0,4.7 0.7,10.1 -5.9,23.5 -2,3.7 -3.2,6.9 -4.2,9.1 -2.5,5.4 -3,6.2 -5.2,8.7 3.5,-2 16.1,-9.9 22.5,-8.7 -4.4,2.5 -11.1,7.4 -15.3,13.8 1,0.2 5.2,1 11.9,0 11.1,-1.7 23.5,-5.7 34.4,-4.9 11.9,0.7 7.2,-14.3 7.2,-14.3 l -13.8,-30.2 -26,-18.3 z"
       clip-path="url(#SVGID_2_)"
       id="path128" />
    <path
       class="st54"
       d="m 908.5,367.6 c 0,0 -11.6,-11.6 -16.3,-51.4 -4.7,-40 -3.7,-98.9 -3.7,-98.9 l -9.4,-23 c 0,0 -2,-15.3 -6.9,-21 -4.9,-5.7 -14.6,-15.3 -19,-20 -4.4,-4.7 -9.4,-11.1 -12.4,-12.1 1.5,-2.5 8.2,-16.6 33.9,-16.8 25.7,-0.2 33.6,14.1 36.3,19.3 2.7,5.2 14.8,27.7 19.3,70.5 4.2,42.8 4.4,46 3.7,60.8 -0.5,8.2 -3.2,27.2 -7.9,47.5 -4.3,17.2 -9,36.4 -17.6,45.1 z"
       clip-path="url(#SVGID_2_)"
       id="path130" />
    <path
       class="st51"
       d="m 872.1,401.7 c 0,0 5.4,0.7 11.1,-2.5 3.7,-0.2 17.1,1.5 27.4,-11.6 0.7,3 2.5,11.1 -2.2,18.3 2.5,-2.5 6.2,-3.5 6.7,-4.2 0.2,3.7 3.7,15.1 -11.1,42.8 4,-4.4 8.7,-4.2 12.9,-4.7 0.2,5.2 3,22.7 -4.4,32.1 -4.9,6.4 -12.9,4.4 -12.9,4.4 0,0 0.2,-2.2 0,-4.2 -0.2,-2.7 -1.2,-5.4 -0.5,-7.2 -1,-0.5 -5.2,-2.2 -10.4,-7.2 -8.7,-8.2 -20,-22.2 -20.8,-32.6 -1,-11.6 9.4,-14.1 9.4,-14.1 0,0 -1.2,-1 -2.2,-2.7 -0.5,-1.7 -1,-4.4 -3,-6.6 z"
       clip-path="url(#SVGID_2_)"
       id="path132" />
    <path
       class="st55"
       d="m 795,275.9 c 0,0 -0.5,-0.7 -3.2,2.5 0.5,-3.2 1,-6.2 1.2,-9.1 1,-2.2 2.7,-4.9 4.9,-7.4 -1.5,3 -2.5,5.7 -2.5,5.7 0,0 3.7,-6.9 9.1,-11.1 3.7,-3 8.4,-4.4 10.4,-7.2 2.2,-3 1.7,-3.5 2.2,-4 0,0 4.9,-3.2 12.4,-12.6 1,-1.2 2.5,-2.5 3.5,-3.7 1.7,-0.7 5.7,-2.5 10.4,-4.9 4.9,-2.7 10.4,-6.4 13.8,-7.9 6.7,-3 13.8,-2.7 17.1,-7.4 2.5,-0.7 5.2,-8.2 4.7,-14.6 3.7,1.5 22.7,13.3 29.2,39.1 4.7,18.3 -3.7,46.5 -7.2,60.1 -3.5,13.6 -4,23.7 -8.9,29.9 -6.2,8.2 -26.2,19.8 -31.1,25.5 -4.2,4.7 -16.8,16.6 -16.3,25.2 0.5,6.4 8.4,9.9 10.1,11.1 1.7,1.2 1.7,2.7 4.9,2 3.2,-0.7 4.4,-2.2 5.7,-2.2 1.5,0.2 1.5,0.5 2.2,0.5 0.7,0 1.5,-0.2 1.5,-0.2 0,0 -0.5,9.1 -21.8,11.9 -1.5,0.2 -3,0.7 -4.9,1 2.5,-1.2 4,-1.2 6.7,-4.9 -3,-0.5 -11.6,-1 -13.8,-1.7 0.7,-1.2 3,-4.4 4.9,-5.9 1.7,-1.5 -0.2,-2 -1.7,-1.2 -0.7,0.5 -4,2.7 -7.4,5.7 -2.5,2.2 -4.7,5.2 -8.7,7.9 -1.2,-4 -1,-11.6 3.7,-17.1 -1.2,0.2 -3.5,3.7 -5.7,3 -0.2,-1.5 -0.5,-6.4 0.7,-10.9 1.2,-4.5 7.7,-12.4 7.7,-12.4 l 31.4,-56.1 6.7,-42.5 z"
       clip-path="url(#SVGID_2_)"
       id="path134" />
    <path
       class="st56"
       d="m 793.3,278.3 c 0,0 -1.7,1.2 1.7,3.5 -0.5,0.7 -1.7,3.2 -3.2,4.9 -1.7,2 -3.5,3.2 -4.2,4.9 -1.5,3.5 -2.7,5.9 -2.7,7.4 0,1.5 -0.5,11.1 -4.7,17.3 -1.5,2.2 -3.2,5.9 -4.4,8.4 -2.5,4.4 -4.7,7.9 -5.2,9.9 -1,3.5 -1.7,13.1 -1.7,13.1 0,0 2.2,-2.7 3,-3.7 -1.2,2.5 -2.5,5.2 -4.4,7.2 1.2,-1 4.7,-3.5 10.6,-8.7 8.2,-6.9 21,-18.5 36.6,-27.7 -4.7,1.7 -8.7,1.7 -11.9,2.2 2.5,-2.5 25,-28.9 36.8,-31.4 1.2,-1.5 1,-3.2 1,-3.2 l -10.1,-1 -20.5,4.4 -3,-15.8 z"
       clip-path="url(#SVGID_2_)"
       id="path136" />
    <path
       class="st57"
       d="m 825.9,368.3 c 0,0 -2.7,2.7 -5.2,9.4 -0.7,-0.7 -3,-3.2 -4.9,-6.7 -3.7,-6.2 -9.4,-14.1 -22.7,-9.6 -0.2,-4.2 -0.5,-6.4 0,-9.4 2.2,-0.5 8.9,-5.9 15.6,-13.8 4.7,-5.4 9.1,-11.6 12.1,-19.5 2,-1.5 5.4,-4 9.9,-6.9 6.4,-4.4 14.1,-10.4 15.3,-17.1 -3,1.2 -9.4,4.2 -19,3.7 3.7,-1.7 9.4,-3.5 8.7,-10.9 1.5,-1 2.7,-1.7 2.7,-1.7 0,0 -1.2,-0.5 -3.5,-0.5 -0.2,-0.7 -0.5,-1.7 -2.2,-1.2 -1.7,0.5 -2,0.5 -2.2,1.2 -0.7,0.2 -3,0 -4.7,1.2 -1.7,1.2 -6.4,5.2 -8.2,5.9 0.7,-1.2 1.7,-3 1.7,-3 0,0 -4.9,0.5 -8.4,2 -6.4,2.2 -13.8,6.2 -21.3,10.1 0.7,-1.2 1,-2 1.5,-2.2 0.5,-0.2 1.7,-0.5 1.7,-0.7 0,-0.2 -0.5,-2 -0.2,-2.7 0.2,-0.7 4.4,-8.9 7.9,-13.6 3.5,-4.7 4.2,-11.4 4.2,-11.4 l 15.3,-7.7 43,-9.9 27.9,1.7 -3.5,19.3 -16.5,33.7 -14.1,30.7 -16.1,18.8 z"
       clip-path="url(#SVGID_2_)"
       id="path138" />
    <path
       class="st58"
       d="m 895.6,284.8 c 0,0 -16.8,20.8 -21.5,24 3,-6.4 21.5,-44.5 28.2,-55.1 -1.5,-1.2 -3.5,-1.2 1.2,-19.8 -4,9.4 -5.4,14.3 -8.7,16.8 -3.2,2.5 -3.7,1.7 -5.9,1.7 0.7,-1.2 0.5,-2.5 0.5,-2.5 0,0 -14.1,-1.7 -23.7,-1.7 -9.6,0 -28.7,5.2 -39.3,9.4 -8.4,3.5 -13.1,3.5 -16.1,5.7 -3,2.5 -4.7,5.2 -6.2,5.9 -1.2,0.7 -6.9,2.5 -8.2,4.4 -1.2,2 -3.2,4.2 -3.2,4.7 0,0.5 -0.5,1.2 1,0.7 0.5,-0.2 4.2,-2.2 8.4,-4.7 5.7,-3.2 12.6,-6.9 17.6,-9.1 14.3,-5.7 18.8,-4.7 25.2,-5.9 6.7,-1.2 16.3,-4 22.7,-4 6.4,-0.2 18.5,0 21.3,0.5 -1.2,1 -2.2,2.2 -1.7,6.4 0,1.2 -1,2.5 -2,5.4 -3,8.2 -8.7,21.8 -11.9,28.7 -4.4,9.4 -9.4,17.3 -11.9,22.2 -2.5,4.9 -7.9,17.8 -13.3,24.7 -5.4,6.9 -8.2,11.1 -9.9,12.6 -1.7,1.5 -13.8,10.4 -12.9,13.6 2.2,-0.7 16.1,-5.9 26.2,-17.3 10.1,-11.4 12.1,-18.3 20,-24.5 7.9,-6.2 14.1,-16.6 17.8,-25.2 3.1,-8 2.4,-10.5 6.3,-17.6 z"
       clip-path="url(#SVGID_2_)"
       id="path140" />
    <path
       class="st59"
       d="m 533.5,440 c 0,0 -2.2,9.1 -7.2,13.6 -4.9,4.4 -13.6,8.2 -14.6,15.6 -1.2,7.4 8.7,11.1 8.7,11.1 0,0 -5.4,8.9 -5.4,15.6 0,6.9 -0.2,8.2 0.5,14.8 -1.2,0.7 -2,2 -2,2 0,0 0.5,6.4 5.4,10.4 4.9,4 9.1,6.4 11.6,5.4 0.5,1 1,2.5 1,2.5 0,0 3.7,-9.4 6.2,-17.6 2.5,-8.4 4.7,-7.2 5.7,-18.5 1,-11.4 11.9,-30.7 11.9,-30.7 l 7.4,-16.6 -12.1,-9.4 z"
       clip-path="url(#SVGID_2_)"
       id="path142" />
    <path
       class="st60"
       d="m 556,456.3 c 0,0 -3.7,3.7 -6.9,8.2 -3.2,4.4 -5.7,8.4 -10.4,10.1 -4.7,1.7 -7.7,1.7 -7.4,6.4 0.3,4.7 4.7,6.7 7.2,9.1 2.7,2.5 4.9,6.7 3.7,11.4 1.5,-0.7 4.2,-1.5 6.7,-6.9 2.5,-5.4 20,-38.3 20,-38.3 z"
       clip-path="url(#SVGID_2_)"
       id="path144" />
    <path
       class="st61"
       d="m 624.9,380.4 c 0,0 1.5,-4 0,-6.9 -1.5,-3 -10.6,-4 -15.1,-7.4 -4.7,-3.5 -10.4,-5.9 -15.1,-4.4 0.7,-1.7 3.5,-5.4 1.2,-6.2 -2.2,-0.7 -10.4,3 -12.6,4.7 -2.2,1.7 -7.2,3.7 -8.2,4.9 -1,1.2 -2.7,3.5 -3.7,2.5 -1,-0.7 -1.5,-2.5 -3.2,-1.5 -1.7,1 -9.9,7.7 -11.4,11.6 -1.5,3.9 -4.9,12.6 -15.1,22.5 -10.1,9.9 -14.6,16.3 -11.6,20 3,3.7 4.4,1 4.9,4.2 0.2,1.5 0.5,5.4 -0.5,9.4 -1.2,5.2 -3.2,10.1 -0.5,11.1 6.9,2.2 13.6,-2 15.1,-0.7 3,2.7 -1.7,12.4 5.4,14.3 7.2,2 14.3,-1.7 14.3,-1.7 l 26.2,-14.1 25.2,-13.3 12.9,-25.5 -6.9,-21.3 z"
       clip-path="url(#SVGID_2_)"
       id="path146" />
    <path
       class="st62"
       d="m 600.2,441.3 c 0,0 -4.4,-6.7 1,-12.6 5.4,-5.9 13.1,-8.4 16.1,-12.1 -1,-1.2 -2.2,-1.5 -2.2,-1.5 0,0 2.7,-5.4 8.7,-8.2 -1.5,-1.5 -3.5,-2.7 -5.7,-2.7 -4.9,0 -7.9,3 -12.4,3 -4.4,0 -4.9,-2.2 -4.9,-2.2 0,0 7.4,-0.7 6.7,-4 -0.7,-3.5 -2,-3.5 -2,-3.5 0,0 14.3,-5.9 16.8,-9.1 2.5,-3.2 2.2,-6.9 2.7,-8.4 1.7,0 11.6,-5.2 15.6,-3 4,2.2 1.2,8.2 1.2,8.2 0,0 12.1,-9.1 18.3,-18 5.4,0.5 7.9,-3.7 11.9,-3.7 4.9,0 12.6,6.7 14.1,21 1,8.2 2.5,12.9 1,27.4 -0.7,8.2 -0.5,25.7 2,34.4 1.7,6.9 5.7,6.2 5.7,6.2 0,0 -0.7,3 -3.5,5.4 -2.7,2.5 -3,9.1 -2.7,11.6 0.5,2.5 1.5,5.4 1.5,5.4 0,0 -3.2,3.7 -4,6.2 -0.7,2.5 -4,4.2 -6.4,4.2 -2.5,0 -1.2,-0.2 -4.4,0 -3.2,0.2 -4.2,0.7 -6.2,0 -2,-0.7 -3.5,-1.5 -2.7,-7.9 0.7,-6.4 -24.7,-21.3 -24.7,-21.3 z"
       clip-path="url(#SVGID_2_)"
       id="path148" />
    <path
       class="st63"
       d="m 552.5,504.5 c 0,0 9.1,12.1 46.5,12.1 17.8,0 24,-1.7 27.7,-2.7 4,-1 19,-6.9 34.1,-24.7 13.6,-16.1 10.6,-22.7 10.6,-22.7 l -7.9,-1.2 -25.7,3.5 -76.1,32.4 z"
       clip-path="url(#SVGID_2_)"
       id="path150" />
    <path
       class="st64"
       d="m 580.4,507.5 c 0,0 -32.4,7.2 -32.4,-13.3 0,-20 20,-41 25,-44.7 5.2,-3.7 17.6,-7.9 17.6,-7.9 h 29.9 l 5.7,15.1 -2.5,32.6 z"
       clip-path="url(#SVGID_2_)"
       id="path152" />
    <path
       class="st65"
       d="m 610.3,447.7 c 0,0 -6.2,-5.7 -20.3,2 -14.1,7.7 -25.5,23.7 -26.2,38.3 -0.7,12.9 10.6,22.5 28.2,23 13.1,0.5 21,-1 25,-2 -1,-1.2 -6.2,-7.7 -6.2,-7.7 z"
       clip-path="url(#SVGID_2_)"
       id="path154" />
    <path
       class="st66"
       d="m 604.2,450.9 c 0,0 -1.5,-1.2 -5.9,1.2 -3.7,2 -9.1,7.2 -13.3,10.9 -2.7,2.2 -4.4,3.2 -5.9,4.9 -6.2,7.4 -11.4,19.5 -8.4,25.5 3,5.9 12.9,12.9 38.1,8.2 z"
       clip-path="url(#SVGID_2_)"
       id="path156" />
    <path
       class="st64"
       d="m 596,463.3 c 0,0 -4,6.2 -4,16.1 0,10.1 5.7,26.2 26.7,27.4 16.1,1 26.9,-23.2 38.6,-32.6 8.9,-7.2 14.3,-7.4 14.3,-7.4 0,0 -9.1,-9.9 -33.4,-22.7 -24,-12.9 -50.9,-14.6 -65.5,5.2 6.9,-0.5 29.2,-6.2 29.2,-6.2 l 10.9,3.5 z"
       clip-path="url(#SVGID_2_)"
       id="path158" />
    <path
       class="st67"
       d="m 627.4,476.4 c -0.7,-1.5 -1.2,-3.5 1.7,-4 3,-0.5 4.2,-0.2 5.2,2 1,2.2 2,4 0.5,4.9 -1.5,0.8 -5.4,0 -7.4,-2.9 z m -4.7,-14.1 c 0,0 -1,0.7 -0.5,-0.7 0.2,-1.7 1.5,-4.7 4.7,-4 3.2,0.7 2.5,4.2 2,5.2 -0.5,1 -3.2,2.7 -5.2,2 -2,-0.7 -1,-2.5 -1,-2.5 z"
       clip-path="url(#SVGID_2_)"
       id="path160" />
    <path
       class="st68"
       d="m 352,468.7 c 0,0 7.9,5.9 17.1,5.7 9.1,-0.2 20.8,-9.6 26.2,-15.6 3.2,-3.5 5.9,-7.2 8.9,-10.1 2.5,-2.5 4.2,-3.7 5.4,-5.4 1.7,-2 3.5,-5.7 4.4,-6.9 -2.2,1.7 -5.4,4.7 -8.7,6.7 -3.2,2 -10.1,5.7 -12.9,6.7 -2.7,1 -30.7,15.8 -30.7,15.8 z"
       clip-path="url(#SVGID_2_)"
       id="path162" />
    <path
       class="st69"
       d="m 364.1,394.8 c 0,0 4.4,-3 12.9,-4.9 8.2,-2 24.7,-3.5 24.7,-3.5 l 13.6,5.9 5.4,20.5 -9.9,21.3 -12.6,7.9 -14.3,-23 z"
       clip-path="url(#SVGID_2_)"
       id="path164" />
    <path
       class="st70"
       d="m 346.3,413.1 -4.7,3.5 c 0,0 1.2,-2.2 2.2,-8.9 1,-6.7 6.2,-23 13.8,-32.4 7.6,-9.4 7.4,-8.9 7.4,-8.9 0,0 -2.2,-0.5 -4,1 1,-2.2 7.4,-10.1 13.8,-14.1 6.4,-4 8.9,-5.2 15.6,-2 6.7,3.2 8.4,4.9 13.3,4.7 4.9,-0.2 9.1,-5.4 9.1,-5.4 0,0 1,3.2 -2.7,10.6 -3.7,7.4 -18.3,22.5 -18.3,22.5 l -30.4,20.8 z"
       clip-path="url(#SVGID_2_)"
       id="path166" />
    <path
       class="st71"
       d="m 368.8,392.3 c 0,0 22,3 28.7,-3.2 0.2,0.7 1,0.7 1,1.2 0,0.5 -0.5,1 -0.5,1 0,0 1.2,-0.2 2.2,-0.2 1,0.2 1.7,0.5 2.7,0.5 1,0 2.2,-0.2 2.2,-0.2 0,0 -0.2,1.7 -1.5,2.5 1,0 2,0.2 2,1 0,0.8 0.2,3.2 -1,3.7 -1.5,0.5 -3,-0.2 -3,-0.2 0,0 0,2.7 1.5,5.4 2,3.7 6.2,7.9 11.9,6.7 0,0 3,7.2 -9.6,23.2 -1.7,2.2 -3.5,5.2 -5.7,7.7 -1.7,4 -2,5.9 -2,5.9 0,0 21.3,-8.2 27.4,-26.9 6.2,-18.8 7.4,-37.3 6.2,-54.6 -0.2,-4.9 -1,-8.4 -2.2,-10.9 -3,-6.2 -11.4,-5.2 -14.8,-1.7 -4.9,4.9 -13.1,17.1 -24.5,25.5 -11.6,8.4 -12.1,9.9 -21,13.6 z"
       clip-path="url(#SVGID_2_)"
       id="path168" />
    <path
       class="st63"
       d="m 342.4,419.3 c 0,0 -4.2,2.5 -6.4,11.9 -2.2,9.6 2,21.3 4.4,25 2.5,3.7 7.9,13.8 19.3,14.3 2.5,0 5.4,-0.5 8.2,-1.7 4,-1.7 7.9,-4.4 11.1,-6.9 4.9,-3.7 8.9,-6.9 8.4,-7.2 -1.2,-0.5 -30.2,-24.5 -30.2,-24.5 L 346.3,418 Z"
       clip-path="url(#SVGID_2_)"
       id="path170" />
    <path
       class="st72"
       d="m 369.8,459.1 c 0,0 5.9,-0.5 9.4,-2.7 3.5,-2.2 -20.5,-26 -20.5,-26 l 1.7,25.7 z"
       clip-path="url(#SVGID_2_)"
       id="path172" />
    <path
       class="st73"
       d="m 344.3,417.5 c 0,0 -3,5.7 -3,7.2 -0.5,4.9 1,20.3 2.2,25.2 1.2,5.2 7.7,13.1 16.1,13.1 5.2,0 12.4,-3.2 12.4,-4 0,-1 -7.4,-2 -9.4,-5.7 -1.2,-2 -1.7,-6.9 -2,-11.9 -0.2,-3.2 -0.2,-6.7 1,-7.9 2.7,-3 3.2,-11.6 3.2,-11.6 l 9.6,-17.8 h -12.6 l -15.1,9.4 z"
       clip-path="url(#SVGID_2_)"
       id="path174" />
    <path
       class="st64"
       d="m 340.6,423 c 0,0 9.9,-13.1 18.8,-16.1 8.9,-3 12.9,-1.2 12.9,-1.2 l -5.2,13.3 -7.4,8.2 0.5,4.2 c 0,0 -1.2,11.1 6.2,18.8 7.4,7.7 12.9,7.4 16.1,7.4 3.2,0 12.4,-2.7 17.1,-13.8 4.2,-10.4 7.7,-23.7 -0.7,-37.1 -8.2,-13.3 -22.7,-13.8 -25.5,-13.8 -2.8,0.1 -24.8,1.1 -32.8,30.1 z"
       clip-path="url(#SVGID_2_)"
       id="path176" />
    <path
       class="st74"
       d="m 594.5,467.5 c -3.7,-1.7 -0.2,-12.1 3.5,-15.3 3.7,-3.2 8.4,-6.9 16.6,-7.4 3,-0.2 5.9,1.7 5.4,3.7 -0.7,3.7 -5.9,8.9 -10.6,12.6 -6.5,5.1 -10.7,8.3 -14.9,6.4 z"
       clip-path="url(#SVGID_2_)"
       id="path178" />
    <path
       class="st75"
       d="m 394.5,410.8 c 2.7,-0.2 6.2,2 6.9,4.9 0.7,3.2 -1.7,9.6 -6.9,9.6 -4.2,0 -6.4,-5.2 -6.4,-6.7 0,-1.5 0.7,-3 1,-3.5 0.2,-0.3 0.7,-3.8 5.4,-4.3 z"
       clip-path="url(#SVGID_2_)"
       id="path180" />
    <path
       class="st76"
       d="m 355.5,413.1 c 0,0 -6.9,3.2 -10.1,9.9 -3.2,6.7 -2.5,13.3 -2,15.8 0.5,2.5 3,8.7 4.7,10.9 1.7,2.2 4,3.7 5.7,3.5 1.7,-0.2 5.2,-4.7 5.2,-7.4 0,-2.7 0.2,-14.1 3.5,-20.3 2.9,-6.2 -7,-12.4 -7,-12.4 z"
       clip-path="url(#SVGID_2_)"
       id="path182" />
    <path
       class="st77"
       d="m 356.5,412.6 c -1.2,0.7 -3.2,1.7 -2.7,3 0.5,1.2 4.7,2 6.2,4.9 1.7,3 1.7,6.2 1.2,7.7 0.5,-0.2 2,-1 3.5,-2.5 2.2,-2.5 4.9,-5.9 7.2,-5.9 1.5,0 3,0.7 4.4,0.7 2.2,0 4.4,-0.7 4.7,-3 0.5,-3 -4.2,-5.7 -6.9,-5.2 0.5,-2 1.2,-4.9 -1,-6.9 -2.2,-2 -9.1,1.5 -10.6,2.5 -1.6,1 -6,4.7 -6,4.7 z"
       clip-path="url(#SVGID_2_)"
       id="path184" />
    <path
       class="st78"
       d="m 515.4,622.7 14.8,-4.4 4.2,3 c 0,0 3,6.4 7.7,7.2 -1.5,3.2 -5.4,5.9 -5.2,8.2 0.2,2.3 2.2,4 2.2,4 0,0 -13.3,22 12.9,44.2 -6.2,2.5 -14.1,5.9 -18.3,7.9 3,0.7 9.4,2 12.1,4.4 2.7,2.5 2.7,3.2 5.2,4.7 2.5,1.5 4,3.5 3.5,4.4 -1.7,-1 -7.4,-4 -8.4,-1.2 -1,2.7 -24.7,1.7 -24.7,1.7 l -40,7.7 c 0,0 1.5,-4 -2.7,-7.7 -4.9,-4.4 -10.9,0.2 -17.3,-4.7 -8.4,-6.4 -8.7,-13.8 -11.4,-16.6 2.7,-1.7 8.2,-4.2 21.3,-5.9 -0.5,-1 -2.2,-4 -1.2,-6.7 1.2,-3.5 6.2,-5.7 4.7,-9.9 2.2,-0.5 3.2,-0.5 8.7,-7.4 5.2,-6.9 8.4,-8.4 12.4,-8.9 4,-0.5 6.4,0 13.8,-6.9 5.2,-4.9 3.5,-9.1 3.5,-9.1 0,0 3.4,-1.1 2.2,-8 z"
       clip-path="url(#SVGID_2_)"
       id="path186" />
    <path
       class="st79"
       d="m 471.7,624.9 c 0.2,-1 1,-1.5 6.4,-1 5.4,0.5 39.6,-3.2 48.9,-3.7 9.4,-0.7 42.5,-0.2 58.6,3.2 16.1,3.4 32.4,7.4 40.3,9.4 7.9,2.2 10.4,3 10.1,4 -0.2,1 -2,2 -3,1.7 -1,-0.2 -27.2,-8.2 -35.3,-9.9 -8.1,-1.7 -36.1,-6.2 -51.4,-5.9 -14.3,0.2 -20,-0.2 -32.1,1.2 -12.1,1.5 -32.1,3.5 -38.1,2.7 -5.9,-0.7 -4.7,-0.7 -4.4,-1.7 z"
       clip-path="url(#SVGID_2_)"
       id="path188" />
    <path
       class="st80"
       d="m 552.2,703.3 c 0,0 20.5,11.1 27.9,24.7 5.4,10.1 -3.2,15.1 -3.2,15.1 0,0 11.6,0 10.1,6.4 -0.7,4 -20,14.8 -32.9,20.5 -13.1,5.7 -12.6,5.4 -19,6.4 -6.2,1 -23.2,-2 -26.7,3 -3.5,4.9 -2,10.1 -1,10.9 1,0.7 9.1,1.7 9.1,1.7 0,0 -1.7,4.7 -18.5,5.2 -16.8,0.5 -21,1.7 -22,3.5 -1,1.7 3.2,0.7 10.9,2 7.7,1.2 18.5,2 18.5,2 0,0 -3.5,3 -12.6,5.4 -10.4,2.7 -26.7,5.2 -31.6,8.2 2.5,1.7 6.2,4.2 7.9,4.4 -4.2,1 -10.1,3.2 -11.1,4 1.5,1 3.5,2.2 3.5,2.2 0,0 -8.4,10.1 -13.3,12.6 -4.9,2.5 -33.1,15.6 -42.8,13.1 -24.2,-6.4 -27.2,-32.9 -33.1,-34.9 -8.9,-3 -13.1,3 -21,-1.2 3.5,-2.5 5.4,-4 9.1,-5.7 -4,-2 -24.7,-15.1 -24.7,-15.1 0,0 -2.5,-5.7 -7.2,-13.8 -4,-6.9 -9.9,-16.1 -14.3,-24.2 -9.6,-17.8 -10.1,-26 -18.8,-36.1 1.5,-2 6.7,-1.7 6.7,-1.7 l 72.9,24 129.3,3.7 33.6,-48 z"
       clip-path="url(#SVGID_2_)"
       id="path190" />
    <path
       class="st81"
       d="m 360.7,776.5 c 0,0 1,1.2 2.7,2.2 2.5,1.7 6.2,3.7 8.7,6.7 1,-1.5 3.5,-4.2 7.9,0 4.4,4.2 9.9,1.2 13.3,2.2 3.5,1.2 3.7,1.7 3.7,1.7 0,0 2,-1.7 6.4,-3.5 2.7,-1 5.9,-1.7 9.4,-2.7 3.2,-0.7 6.7,-1.7 9.1,-1.7 2.2,1.5 10.1,9.9 41.8,-2.5 29.9,-11.6 36.8,-12.9 41.8,-11.1 0.5,-1.2 1,-3.5 8.7,-3.2 0,-3.2 -6.4,-14.1 -6.4,-14.1 l -35.3,-12.1 h -19.3 l -57.9,10.6 -32.1,18.3 z"
       clip-path="url(#SVGID_2_)"
       id="path192" />
    <path
       class="st82"
       d="m 341.4,756.2 c 0,0 0.7,5.4 8.7,11.1 7.9,5.7 10.4,9.1 10.4,9.1 0,0 1.5,-2 2.7,-4 1.2,-2.2 2.2,-4.7 4.2,-5.4 4,-1.7 13.1,1.5 15.1,1 1.7,-0.5 1.2,-4 3,-4 4.2,-0.2 6.9,2.7 8.4,2.7 1.5,0 5.2,-0.2 5.7,-1 0.5,-0.8 0.7,-9.1 6.4,-13.1 6.2,-4.4 13.8,-2.5 15.8,-1.5 0,1.5 0.2,5.2 4.2,5.4 4,0.2 4.4,-0.5 7.9,0.7 3.5,1.2 7.7,-0.2 9.6,5.7 1.7,-0.5 5.7,-1 4.7,-6.7 2,-1.5 3.7,-2.5 7.9,-8.4 1,-1.5 2.7,-3.2 4,-5.4 3.5,0 7.7,-0.7 13.3,4.2 -1.7,1.2 -2.7,2 -3.2,3.2 0.5,0.5 2.5,2.5 4,4.7 1.5,2 2.5,4.4 4.4,4.9 4.2,1.2 11.1,-0.5 18.8,0 7.4,0.5 13.6,3.2 16.3,4.9 1,-0.5 1,-0.7 3.5,-0.2 2.5,0.5 4.4,0.7 1.7,-2.5 1.5,0.7 3.2,2.2 4.7,0.7 1.5,-1.5 2.7,-3.7 6.9,-4.2 4.2,-0.5 5.7,0.2 7.4,-4.2 2.2,-5.4 -5.4,-5.4 -5.4,-5.4 0,0 3.5,-3.2 7.4,-7.4 4.7,-4.4 10.1,-10.1 11.4,-17.1 2.2,-12.9 -10.4,-14.6 -10.4,-14.6 l -61.1,18.8 -74.7,-3.7 z"
       clip-path="url(#SVGID_2_)"
       id="path194" />
    <path
       class="st83"
       d="m 286.5,579.7 c 0,0 -2,2.5 -3.2,8.4 -1.2,5.9 -0.7,5.2 -1.7,9.4 -1,4.2 -13.3,46 -8.7,60.1 4.6,14.1 12.6,19.3 17.6,30.7 1,2.5 2,4 2.5,6.2 1.7,7.4 0.2,13.1 2.2,20.5 0.7,2.5 2.5,5.4 5.2,8.4 5.9,6.2 15.6,12.1 19.8,16.3 5.9,6.2 14.3,18.8 25,20 5.7,0.7 13.8,-1.7 20.5,-5.7 5.9,-3.7 9.6,-8.9 15.8,-11.9 4.4,-2.2 9.1,-3 13.3,-4 8.7,-1.7 16.6,-2 21.3,-1 7.2,1.5 24.2,6.7 33.6,6.7 3.7,0 12.4,-0.5 21.8,-3 14.3,-4.2 31.6,-11.4 43,-14.6 6.7,-2 12.1,-2.5 17.6,-3.7 9.4,-2.2 17.3,-5.2 21.8,-10.9 -3,-3.5 -6.7,-8.9 -26.7,-8.7 -22.7,0.5 -48.9,13.1 -61.8,15.1 -12.9,2 -18.5,3.7 -32.9,-1.5 -14.1,-5.2 -14.6,-8.7 -14.6,-8.7 0,0 -14.8,-10.4 -21,-36.8 -6.2,-26.5 0,-45.7 16.1,-64 4.2,-4.7 3.2,-8.9 3.2,-8.9 0,0 10.6,-14.3 7.7,-27.7 -3.2,-13.3 -23.7,-10.6 -23.7,-10.6 z"
       clip-path="url(#SVGID_2_)"
       id="path196" />
    <path
       class="st84"
       d="m 303.6,624.2 c 0,0 -1.5,2.7 -1.2,5.4 0.2,2.7 1,6.2 9.1,14.1 6.9,6.9 5.4,14.6 5.4,14.6 0,0 3.5,0.7 12.9,-3.7 7.4,-3.5 9.9,2.7 9.9,2.7 0,0 3,-1.7 6.9,-2.2 4,-0.5 6.2,-2 6.2,-2 0,0 8.7,8.9 16.3,13.1 6.9,3.7 10.9,6.2 14.3,3.7 3.2,-2.2 3.2,-6.7 3,-8.7 0,0 -1,-2.5 -3,-5.2 -2.2,-3.2 -5.7,-6.9 -5.9,-9.9 -0.5,-6.9 5.2,-15.1 4,-17.1 -1.2,-2 -5.7,-2.5 -16.8,1.5 -11.5,3.8 -61.1,-6.3 -61.1,-6.3 z"
       clip-path="url(#SVGID_2_)"
       id="path198" />
    <path
       class="st85"
       d="m 329.8,668.9 c 0,0 -5.7,-5.4 -3.7,-31.6 3,-0.2 7.2,0.7 7.2,0.7 0,0 3.1,20.3 -3.5,30.9 z"
       clip-path="url(#SVGID_2_)"
       id="path200" />
    <path
       class="st64"
       d="m 289.2,559.7 c 0,0 1,-0.7 2.2,-2 -2,3.7 -11.1,18.5 -3.7,41.8 7.4,23.2 26,40.5 48.9,41.3 22.9,0.8 34.9,-10.4 48.7,-27.2 5.4,-6.7 11.6,-15.1 17.1,-20.8 8.2,-8.9 14.6,-11.4 14.6,-20 0,-17.6 -18,-25.5 -44.5,-33.4 -26.5,-7.9 -50.4,-6.9 -62.8,-1.5 -12.1,5.9 -17.3,12.1 -20.5,21.8 z"
       clip-path="url(#SVGID_2_)"
       id="path202" />
    <path
       class="st86"
       d="m 374.3,676.8 2,-1 c 0,0 0.5,-7.9 3.7,-7.7 3.2,0.5 4.7,4.7 4.4,6.2 -0.2,1.5 -1,4 -4.2,3.7 -4.2,0.1 -5.9,-1.2 -5.9,-1.2 z"
       clip-path="url(#SVGID_2_)"
       id="path204" />
    <path
       class="st87"
       d="m 365.4,643.2 c 0,0 2,-0.7 4.4,1.7 2,0 10.6,-1 13.3,0.7 2.7,1.7 3.5,3.2 3.5,3.2 0,0 -10.1,2.2 -15.6,0 -5.6,-1.9 -5.6,-5.6 -5.6,-5.6 z"
       clip-path="url(#SVGID_2_)"
       id="path206" />
    <path
       class="st88"
       d="m 409.9,644.7 c 0,-0.5 -5.4,-4.2 -11.1,-5.4 -1,-0.2 -1.2,0.5 -2,0.5 -0.5,-0.2 -0.7,-1.7 -0.7,-1.7 l -3.2,1.7 c 0,0 -0.5,0.7 1.2,2 1.5,1.2 4,2.2 4.7,4.2 0.7,2 0.7,2.7 1,3 0.2,0.2 3.7,0 5.4,-1 1.7,-1.1 4.9,-2.6 4.7,-3.3 z"
       clip-path="url(#SVGID_2_)"
       id="path208" />
    <path
       class="st89"
       d="m 359.4,665 c 0,0 1,-6.9 7.7,-7.2 6.9,-0.5 8.2,6.2 8.2,6.2 l -4,4 c 0,-0.1 -3,-4.3 -11.9,-3 z"
       clip-path="url(#SVGID_2_)"
       id="path210" />
    <path
       class="st90"
       d="m 402.9,635.3 c 0,0 -3.7,4 -11.9,5.2 -0.7,-1 -2.2,-3 0,-6.2 2.2,-3.2 4.7,-4.2 7.2,-3.2 2.5,0.5 4.2,2.2 4.7,4.2 z"
       clip-path="url(#SVGID_2_)"
       id="path212" />
    <path
       class="st88"
       d="m 418,640.2 c 0.2,-1 -0.5,-1.2 0,-1.7 0.5,-0.5 3.2,-1.5 3.7,-1 0.2,0.2 0,1 0,2 0,1 0,2 -0.5,2.7 -0.7,1 -2.7,1.5 -3.7,1.2 -1,-0.2 -1.2,-1.7 -1.2,-2 0.5,-0.2 1.7,-0.7 1.7,-1.2 z m 17.1,-10.8 c 0,-0.5 1.7,-1.5 2.7,-1.5 1.5,0 1.5,1.2 1.7,1.5 0.5,0.2 0.5,-0.2 1,0.7 0.5,1 1.2,2.5 0.7,3.5 -0.5,1 -2.5,1.7 -3,1.5 -0.7,-0.5 -2.9,-5 -3.1,-5.7 z"
       clip-path="url(#SVGID_2_)"
       id="path214" />
    <path
       class="st83"
       d="m 400.7,642.5 c 0,0 2.2,0.5 5.2,3 -1,0.7 -2.5,1.5 -2.5,1.5 0,0 -0.2,-2.3 -2.7,-4.5 z"
       clip-path="url(#SVGID_2_)"
       id="path216" />
    <path
       class="st63"
       d="m 395.8,620.5 c -0.5,-0.5 1.5,-1.7 2.7,-1.5 1.2,0.2 1.7,1 3,1.2 1.3,0.2 1.5,-0.5 2,-1 0.5,-0.5 2.2,-0.2 2.5,0 0.2,0.2 0.5,0.7 0.5,0.7 0,0 0,-1.2 1,-2 1,-0.7 2,-0.7 2.7,-0.5 0.2,0.7 1.2,3.2 1,3.7 -0.2,0.5 -3.2,1.2 -3.7,0.7 0.5,1.2 2.7,3.7 3,4.2 0.2,0.5 -2.2,1.7 -3.2,1.5 -1.4,-0.1 -10,-5.1 -11.5,-7 z m 13.1,-16.6 c 0,0 -0.2,-0.7 -1,-1.2 -0.7,-0.2 -3,0 -3,1.2 0,1.2 2,7.9 4.2,11.4 2.5,3.5 4.2,6.4 5.9,7.2 1.7,0.7 2.7,-0.5 3,-1 0.2,-0.5 0.7,-4.2 0.5,-12.9 -0.2,-8.7 -0.5,-17.1 -1,-17.6 -0.5,-0.5 -2.5,-0.5 -3.2,0.5 -0.7,1 -5.2,10.9 -5.4,12.4 z"
       clip-path="url(#SVGID_2_)"
       id="path218" />
    <path
       class="st90"
       d="m 400,655.1 c 0,0 -3.5,-2.2 -6.9,-0.7 -3.2,1.5 -3,7.4 -3,7.4 0,0 2.2,1 4.4,-0.5 2.2,-1.5 5,-4 5.5,-6.2 z"
       clip-path="url(#SVGID_2_)"
       id="path220" />
    <path
       class="st88"
       d="m 406.6,663 c -0.2,-2 -2,-2 -2,-3 0.2,-1 1.2,-1.7 2.2,-1.7 1,0 2,1.2 3.2,2 1.2,0.7 3,2 3.2,3.5 0.2,1.5 -2,5.7 -4.4,5.7 -2.4,-0.1 -1.7,-4.5 -2.2,-6.5 z m 19.3,-2.7 c 0,0 -4,1.2 -3.7,0 0.2,-1.2 1.2,-1.5 2.5,-1.5 0.5,-0.5 1.5,-1.2 2.5,-1.2 1,0 1.5,0.5 1.5,0.5 0,0 2.7,-1.2 3.5,-0.5 0.7,0.7 0.2,0.7 0.7,1.5 0.5,0.7 1.2,2.2 1.2,3 0,0.8 -3,2.5 -5.4,2.2 -2.8,-0.6 -2.3,-3.5 -2.8,-4 z m 23.3,-4.5 c 0,0 1.2,0.7 0.2,1.5 -0.7,0.7 -4.2,2 -7.2,2.2 -3,0 -5.7,0.5 -5.7,-0.5 0,-1 2.5,-3 4,-3.5 0.5,-0.7 1.5,-1.2 2.5,-1.2 1.2,0 5.9,-0.5 7.2,-0.7 1.2,-0.2 2.2,0.5 1.5,1.5 -0.3,0.7 -2.5,0.7 -2.5,0.7 z m 6.9,-30.9 c 0,0 -1.5,3.2 -3.2,3.2 -1.7,-0.2 -1.7,-0.7 -1.7,-1.2 0,-0.7 1.7,-2.5 1.5,-3 -0.5,0 -1.7,0 -1.5,-1.2 0,-1 1.7,-2.2 3.2,-2 0.5,-0.5 2.2,-1.5 4,-1.5 1.7,0 3.2,0.5 3.2,1.5 0,1 -2,3.2 -2.7,3.7 -0.8,0.8 -1.8,1.3 -2.8,0.5 z M 433.3,684 c 0,0 -2,0.2 -2,1.2 0,0.5 0.5,0.5 1.2,0.2 0.5,0 1.2,-0.2 1.2,-0.2 0.2,0.2 0.2,1.2 1.7,1.2 0.7,0 2.2,-0.5 3.5,-1.2 1.2,-0.5 2.2,-1 2.2,-2 -0.5,-1.7 -1.5,-2.5 -3,-2.5 -1.5,0 -2.2,0.5 -2.2,0.5 0,0 -0.5,-1 -2.2,0 -1.7,1 -1.5,1 -1,1.5 0.9,0.8 0.6,1.3 0.6,1.3 z M 422,694.4 c 0,-0.5 2.5,-1.5 3.2,-1.2 0.7,0.2 2.7,4 2.7,4.4 0,0.5 -2.5,1.7 -3.5,1.7 -1,0 -2.7,-1.7 -2.7,-2 0,-0.2 1.2,-0.5 1.2,-0.7 0.3,-0.5 -0.9,-1.7 -0.9,-2.2 z m -7.9,-14.6 c 0.5,-0.2 0.5,-0.7 1.2,-1.2 0.7,-0.5 1.5,-0.2 1.5,-0.2 0,0 0.5,-1 1.7,-1.2 1.2,-0.2 2.2,0 2,0.5 0,1.5 1,2.5 1,3.7 0,1.2 -0.7,2.7 -3.2,3.7 -2.5,0.7 -5.9,0.7 -6.4,0.5 -0.5,-0.2 -1,-2.2 -0.5,-3.2 0.4,-1.1 1.9,-2.1 2.7,-2.6 z"
       clip-path="url(#SVGID_2_)"
       id="path222" />
    <path
       class="st83"
       d="m 417.3,680.5 c 0,0 -1.7,1 -1.7,1.5 -0.2,0.5 -0.2,1.2 -0.2,1.5 0,0.3 2.2,-0.2 2.5,-0.5 0.1,-0.2 -0.6,-2 -0.6,-2.5 z"
       clip-path="url(#SVGID_2_)"
       id="path224" />
    <path
       class="st63"
       d="m 402.4,675.8 c 1,0.2 2.7,0 4,0.5 1,0.5 1.7,1.5 0.7,2.7 -1,1.2 -2,3 -4.2,2.7 -2.5,-0.2 -4.9,-1.5 -4.9,-2.5 -0.2,-1.2 0.5,-2.7 1.2,-3.5 1,-0.8 1.5,-0.3 3.2,0.1 z"
       clip-path="url(#SVGID_2_)"
       id="path226" />
    <path
       class="st90"
       d="m 401.2,676.8 c 0,0 -3.2,2.5 -4,3.7 -1,1.2 -5.9,7.4 -7.4,8.7 0.5,-1 1.7,-2.5 1.7,-2.5 0,0 -3,1.7 -4.2,5.4 -1.2,3.7 6.7,5.7 11.9,7.2 5.2,1.5 7.2,2 7.2,2 0,0 -3,-4.4 -4.9,-9.1 -2,-4.7 -3,-5.2 -1.7,-7.4 1,-2.2 2.5,-3.7 2.5,-5.4 -0.6,-1.6 -1.1,-2.6 -1.1,-2.6 z"
       clip-path="url(#SVGID_2_)"
       id="path228" />
    <path
       class="st64"
       d="m 287.2,684.7 c 0,0 0.7,0.2 2.2,0 1.5,-0.2 17.1,-5.9 33.4,-4.9 7.2,0.5 20,1.5 36.1,5.9 20.5,5.4 46,16.1 62.5,22.2 4.4,1.7 8.7,4.7 11.9,5.9 12.6,4.9 13.1,4.9 20.5,6.2 8.7,1.2 17.6,-1.7 26.9,-3.7 11.4,-2.5 30.9,-3.7 48,-6.2 8.9,-1.2 16.3,-3.7 16.3,-3.7 0,0 -13.6,13.6 -46.2,18.5 -16.3,2.5 -29.7,1.7 -39.8,0.5 -10.4,-1 -17.3,-2.5 -22.5,-4 -5.9,-1.7 -18,-6.2 -32.9,-9.9 -10.4,-2.7 -22,-4.7 -35.3,-7.2 -32.8,-6 -68.4,-12.9 -81.1,-19.6 z"
       clip-path="url(#SVGID_2_)"
       id="path230" />
    <path
       class="st91"
       d="M 270.2,557.9 186.9,480.1"
       clip-path="url(#SVGID_2_)"
       id="path232" />
    <path
       class="st92"
       d="m 270.2,552 c -3.5,-3.2 -7.2,-6.4 -10.6,-9.6 -3.5,-3.2 -6.9,-6.4 -10.4,-9.6 l -10.4,-9.9 c -1.7,-1.7 -3.5,-3.2 -5.2,-4.9 -1.7,-1.5 -3.7,-3.2 -5.4,-4.7 -13.8,-13.1 -27.7,-26.2 -41.3,-39.3 14.1,12.9 27.9,25.7 42,38.8 l 4.9,4.9 c 1.7,1.7 3.5,3.2 5.2,4.9 l 10.4,9.6 c 3.5,3.2 6.9,6.4 10.4,9.9 3.5,3.5 6.9,6.7 10.4,9.9 z M 87,550 c 0,0 50.2,5.2 74.7,8.7 22.7,3.2 93.7,14.1 93.7,14.1 M 87,550 c 14.1,1.2 28.2,2.7 42.3,4.2 7.2,0.7 14.1,1.5 21,2.2 l 10.6,1.2 c 3.5,0.5 6.9,1 10.4,1.5 l 42,6.7 21,3.5 c 6.9,1.2 13.8,2.5 21,3.7 -6.9,-0.7 -14.1,-1.7 -21,-2.7 l -21,-3 -42,-6.2 c -3.5,-0.5 -6.9,-1.2 -10.4,-1.7 l -10.6,-1.2 c -6.9,-0.7 -14.1,-1.7 -21,-2.5 C 115.2,554 101.1,552.2 87,550 Z m 163.4,35.9 c 0,0 -53.6,13.6 -71.7,18.8 C 160.9,609.6 107,626 107,626"
       clip-path="url(#SVGID_2_)"
       id="path234" />
    <path
       class="st92"
       d="m 250.4,585.9 c -11.9,3.5 -23.7,6.9 -35.8,10.1 l -35.8,9.6 c -11.9,3.5 -23.7,6.9 -35.6,10.4 l -17.8,4.9 c -5.9,1.7 -11.9,3.2 -18,4.9 5.9,-2 11.9,-4 17.8,-5.7 l 17.8,-5.7 c 11.9,-3.7 23.7,-7.2 35.6,-10.9 12.1,-3 24,-6.2 36.1,-9.1 11.5,-2.9 23.6,-5.8 35.7,-8.5 z M 114.5,659 c 5.9,-2.2 73.9,-33.9 89.7,-41.3 7.9,-3.7 30.9,-11.9 30.9,-11.9"
       clip-path="url(#SVGID_2_)"
       id="path236" />
    <path
       class="st92"
       d="m 114.5,659 c 5.2,-2 10.1,-4.4 15.1,-6.7 l 14.8,-6.9 29.7,-14.3 c 9.9,-4.7 19.5,-9.9 29.7,-14.3 5.2,-2.2 10.4,-4 15.6,-5.7 l 7.9,-2.5 c 2.7,-0.7 5.2,-1.5 7.9,-2.2 -9.9,4.7 -20.3,8.7 -30.2,13.3 -9.9,4.9 -20,8.9 -30.2,13.3 l -30.2,13.3 c -10.1,4.1 -20,8.5 -30.1,12.7 z m 6.6,27.7 c 0,0 61.6,-36.1 82.8,-47.7 11.1,-6.2 47,-24 47,-24"
       clip-path="url(#SVGID_2_)"
       id="path238" />
    <path
       class="st92"
       d="m 121.1,686.7 c 10.4,-6.4 21,-12.9 31.6,-19.5 l 15.8,-9.6 c 5.4,-3.2 10.6,-6.2 16.1,-9.4 5.4,-3.2 10.6,-6.4 16.1,-9.4 2.7,-1.7 5.4,-3 8.2,-4.2 l 8.4,-4.2 c 11.1,-5.4 22.2,-10.9 33.9,-15.6 -10.6,6.7 -21.5,12.4 -32.4,18.3 -5.4,3 -10.9,5.7 -16.3,8.7 -5.4,3 -10.6,6.2 -16.1,9.1 -5.4,3.2 -10.6,6.2 -16.1,9.1 l -16.3,8.9 c -11.1,6 -22,11.9 -32.9,17.8 z m 129.3,-63.8 c 0,0 -38.3,29.4 -50.7,38.8 -12.4,9.4 -48.9,35.8 -48.9,35.8"
       clip-path="url(#SVGID_2_)"
       id="path240" />
    <path
       class="st92"
       d="m 250.4,622.9 c -7.9,6.7 -16.3,13.1 -24.5,19.3 l -24.7,19 c -8.4,6.2 -16.6,12.6 -25,18.8 -8.4,6.2 -16.8,12.1 -25.7,17.8 7.9,-6.7 16.3,-12.9 24.7,-19 8.4,-6.1 17.1,-12.1 25.2,-18.3 l 24.7,-19 c 8.5,-6.2 16.7,-12.6 25.3,-18.6 z m -43.7,70 c 0,0 8.9,-7.4 20,-17.8 13.8,-12.9 30.7,-29.4 36.1,-32.4"
       clip-path="url(#SVGID_2_)"
       id="path242" />
    <path
       class="st92"
       d="m 206.7,692.9 c 4.4,-4.4 9.1,-8.7 13.8,-12.9 l 7.2,-6.2 c 2.2,-2 4.7,-4.2 6.9,-6.4 4.4,-4.4 8.7,-9.1 13.1,-13.6 2.2,-2.2 4.4,-4.4 6.9,-6.4 1.2,-1 2.5,-2 4,-2.7 1.2,-0.7 2.5,-2 4.2,-2.2 -1,1.5 -2.2,2.2 -3.2,3.5 -1.2,1 -2.2,2.2 -3.2,3.2 -2.2,2.2 -4.7,4.2 -6.9,6.2 -4.7,4 -9.6,7.9 -14.3,12.1 -4.7,4.2 -9.1,8.7 -13.8,12.9 -5.1,4.3 -9.8,8.5 -14.7,12.5 z m 59.8,-40 c 0,0 -32.6,31.9 -39.3,37.1"
       clip-path="url(#SVGID_2_)"
       id="path244" />
    <path
       class="st92"
       d="m 266.5,652.9 c -3,3.5 -6.2,6.7 -9.4,9.6 l -9.9,9.4 c -3.2,3.2 -6.2,6.4 -9.6,9.6 -3.5,3 -6.7,5.9 -10.4,8.7 l 9.6,-9.4 c 3.2,-3.2 6.7,-5.9 10.1,-9.1 l 9.6,-9.4 c 3.3,-3.3 6.5,-6.5 10,-9.4 z m 1.5,17.3 c 0,0 -3.7,10.9 -10.6,24.5 -8.4,16.8 -21,37.8 -26.5,48.5"
       clip-path="url(#SVGID_2_)"
       id="path246" />
    <path
       class="st92"
       d="m 268,670.2 c 0,3.7 -1,6.9 -2.2,10.1 -1.2,3.2 -2.5,6.4 -4,9.4 -1.5,3 -3.2,6.2 -4.9,9.1 -1.7,3 -3.7,5.9 -5.2,8.9 l -10.1,17.8 c -3.5,5.9 -6.9,11.9 -10.6,17.6 2.5,-6.4 5.9,-12.4 9.1,-18.3 3.5,-5.9 6.7,-11.9 9.9,-18 1.5,-3 3,-6.2 4.2,-9.4 1.5,-3.2 3,-6.2 4.2,-9.1 1.5,-3.2 2.7,-6.2 4.2,-9.1 1.7,-3.1 3.1,-6.1 5.4,-9 z"
       clip-path="url(#SVGID_2_)"
       id="path248" />
    <path
       class="st93"
       d="m 303.6,752.2 c 0,0 -9.9,13.1 -8.9,29.7 2.7,-8.7 6.1,-22 8.9,-29.7 z m 9.4,13.1 c 0,0 -3.5,35.6 -6.4,53.1 4.1,-20.2 4.9,-18.5 6.4,-53.1 z m 65.5,55.2 c 0,0 -14.8,43.5 -15.1,55.6 3.2,-12.4 9.4,-37.8 15.1,-55.6 z"
       clip-path="url(#SVGID_2_)"
       id="path250" />
    <path
       class="st94"
       d="m 413.1,749.5 c 0,0 24,39.6 42,73.4 -4.9,-17 -16.1,-48.2 -42,-73.4 z"
       clip-path="url(#SVGID_2_)"
       id="path252" />
    <path
       class="st95"
       d="m 477.6,807.8 c 0,0 18.8,32.4 35.6,71.9 -2,-17 -7.4,-46.1 -35.6,-71.9 z"
       clip-path="url(#SVGID_2_)"
       id="path254" />
    <path
       class="st96"
       d="m 667.2,866.2 c 4,-2.5 11.9,-16.1 18.8,-19.5 6.9,-3.5 12.1,-4.2 18.3,-11.1 6.2,-7.2 7.9,-11.6 21.5,-17.3 19,-8.2 5.9,-18.8 5.9,-18.8 0,0 3.2,-3.2 6.7,-5.7 4.9,-3.7 10.6,-8.2 10.1,-16.1 -0.7,-13.3 -3.2,-32.6 -14.1,-43.8 10.6,-2.2 30.9,-3.7 43.5,-6.9 14.6,-3.7 21.3,-8.9 21.3,-8.9 0,0 -8.4,-14.3 5.2,-28.7 13.6,-14.3 24.7,-23 32.9,-39.1 -9.4,-1.2 -23.7,-6.2 -60.3,7.7 2.7,1.2 5.7,3.2 5.7,3.2 0,0 -22.5,6.2 -30.7,13.1 -14.3,12.1 -16.1,22 -31.6,29.4 -15.6,7.4 -31.1,5.4 -44,11.4 -12.9,5.9 -14.8,11.1 -19.5,13.3 1,1.2 -0.2,3.2 1.7,4.9 -1.2,1.7 -8.2,13.1 -15.3,13.1 0.7,2.7 6.7,4.7 6.7,4.7 0,0 -4.4,3.2 -15.6,4 5.7,5.9 11.1,12.4 26,21.8 -1.2,2.5 -6.2,6.2 -4.2,10.9 2.2,4.7 7.9,11.1 30.7,16.3 -11.6,0.5 -25.2,3.2 -43.5,0.7 -18.3,-2.2 -21.3,-3.5 -32.6,-0.7 1.2,1.2 4.4,1.2 7.2,4.4 -3,0.2 -21.8,-2.2 -28.2,6.2 -6.7,8.7 -9.6,23 -9.1,32.6 -3.5,1.7 -6.9,4.7 -5.2,10.9 1.7,6.2 10.6,8.2 16.3,12.1 5.7,4.2 6.2,5.7 11.6,4.7 5.7,-1.2 14.1,-6.9 19,-6.9 4.9,0 8.4,3.7 8.4,3.7 0,0 13.3,-6.4 14.6,-5.2 1.2,1.2 0.2,8.9 1.5,10.1 1.3,0.9 16.3,-8 20.3,-10.5 z"
       clip-path="url(#SVGID_2_)"
       id="path256" />
    <path
       class="st97"
       d="M 957.9,466 C 895.4,304.6 740.9,274.7 740.9,274.7 H 300.1 l 1.7,164.4 h 87.8 V 806.2 H 300.1 V 970.3 H 728.7 C 832,970.3 914.8,866.5 914.8,866.5 1047.4,678.3 957.9,466 957.9,466 Z M 731,755.9 c 0,0 -33.6,48.5 -70.2,48.5 h -73.2 l -1.7,-364.9 h 93.9 c 0,0 43.5,9.1 73.9,95.2 0,0 40.3,123.3 -22.7,221.2 z"
       id="path258" />
  </g>
</svg>
